<svg xmlns="http://www.w3.org/2000/svg" xmlns:xlink="http://www.w3.org/1999/xlink" preserveAspectRatio="xMidYMid" width="5000" height="1600" viewBox="0 0 5000 1600">
  <defs>
    <style>
      .cls-1 {
        fill: #fff;
      }

      .cls-2, .cls-6 {
        fill: #000;
      }

      .cls-3, .cls-4 {
        fill: #448ccb;
      }

      .cls-4 {
        stroke: #fff;
        stroke-width: 50px;
      }

      .cls-5 {
        fill: #000101;
      }

      .cls-5, .cls-6 {
        fill-rule: evenodd;
      }

      .cls-7 {
        stroke: #448ccb;
        stroke-width: 30px;
        fill: none;
      }
    </style>
  </defs>
  <g>
    <rect x="-42" y="-78" width="5048" height="1668" class="cls-1"/>
    <rect x="76" y="1335" width="1414" height="50" class="cls-2"/>
    <rect x="76" y="1215" width="1414" height="50" class="cls-2"/>
    <rect x="76" y="1095" width="1414" height="50" class="cls-2"/>
    <rect x="76" y="975" width="1414" height="50" class="cls-2"/>
    <rect x="2180" y="607" width="2760" height="40" class="cls-3"/>
    <rect x="2178" y="1025" width="2760" height="40" class="cls-3"/>
    <circle cx="1578" cy="808" r="750" class="cls-4"/>
    <path d="M4888.919,956.277 L4885.797,833.305 L4914.023,833.305 L4911.741,956.277 L4888.919,956.277 ZM4900.690,977.299 C4905.334,977.299 4909.357,978.920 4912.762,982.160 C4916.164,985.401 4917.867,989.329 4917.867,993.946 C4917.867,998.403 4916.164,1002.190 4912.762,1005.308 C4909.357,1008.426 4905.334,1009.986 4900.690,1009.986 C4895.886,1009.986 4891.802,1008.426 4888.439,1005.308 C4885.076,1002.190 4883.394,998.403 4883.394,993.946 C4883.394,989.329 4885.076,985.401 4888.439,982.160 C4891.802,978.920 4895.886,977.299 4900.690,977.299 ZM4817.212,823.341 L4845.198,823.341 L4845.198,1007.556 L4817.212,1007.556 L4817.212,823.341 ZM4752.952,823.341 L4780.938,823.341 L4780.938,1007.556 L4752.952,1007.556 L4752.952,823.341 ZM4660.585,1010.472 C4641.608,1010.472 4626.453,1004.660 4615.123,993.035 C4603.791,981.411 4598.127,965.998 4598.127,946.799 C4598.127,925.899 4604.031,909.576 4615.844,897.829 C4627.654,886.084 4643.569,880.209 4663.588,880.209 C4682.806,880.209 4697.779,885.920 4708.510,897.343 C4719.240,908.765 4724.605,924.604 4724.605,944.855 C4724.605,964.703 4718.819,980.601 4707.249,992.549 C4695.677,1004.499 4680.123,1010.472 4660.585,1010.472 ZM4687.190,913.869 C4681.305,906.416 4672.876,902.689 4661.907,902.689 C4651.016,902.689 4642.407,906.538 4636.082,914.233 C4629.756,921.930 4626.594,932.542 4626.594,946.070 C4626.594,959.114 4629.795,969.382 4636.203,976.874 C4642.608,984.368 4651.175,988.114 4661.907,988.114 C4672.876,988.114 4681.305,984.428 4687.190,977.056 C4693.076,969.685 4696.019,959.193 4696.019,945.584 C4696.019,931.894 4693.076,921.323 4687.190,913.869 ZM4573.984,905.970 C4565.736,905.970 4558.850,909.737 4553.325,917.271 C4547.800,924.805 4545.037,935.054 4545.037,948.014 L4545.037,1007.556 L4517.171,1007.556 L4517.171,883.126 L4545.037,883.126 L4545.037,908.765 L4545.518,908.765 C4548.239,900.016 4552.424,893.192 4558.069,888.290 C4563.715,883.389 4570.021,880.938 4576.987,880.938 C4582.032,880.938 4585.875,881.709 4588.518,883.247 L4588.518,909.980 C4585.155,907.307 4580.309,905.970 4573.984,905.970 ZM4407.268,1001.359 C4402.464,1004.438 4396.918,1006.726 4390.633,1008.224 C4384.345,1009.722 4377.721,1010.472 4370.754,1010.472 C4357.301,1010.472 4345.650,1008.203 4335.801,1003.667 L4335.801,977.542 C4346.210,985.562 4357.701,989.572 4370.273,989.572 C4387.089,989.572 4395.497,984.550 4395.497,974.504 C4395.497,971.669 4394.776,969.260 4393.335,967.274 C4391.894,965.290 4389.951,963.528 4387.510,961.988 C4385.066,960.450 4382.183,959.072 4378.862,957.857 C4375.538,956.642 4371.835,955.265 4367.751,953.725 C4362.706,951.701 4358.161,949.554 4354.118,947.285 C4350.074,945.018 4346.711,942.445 4344.029,939.569 C4341.345,936.694 4339.324,933.432 4337.963,929.787 C4336.601,926.142 4335.921,921.889 4335.921,917.028 C4335.921,911.034 4337.321,905.748 4340.125,901.170 C4342.927,896.595 4346.690,892.746 4351.416,889.627 C4356.140,886.509 4361.505,884.158 4367.511,882.579 C4373.516,880.999 4379.721,880.209 4386.128,880.209 C4397.498,880.209 4407.668,881.952 4416.637,885.434 L4416.637,910.102 C4407.989,904.108 4398.059,901.110 4386.849,901.110 C4383.325,901.110 4380.142,901.474 4377.300,902.203 C4374.457,902.932 4372.034,903.946 4370.033,905.241 C4368.031,906.538 4366.469,908.097 4365.349,909.919 C4364.227,911.742 4363.667,913.747 4363.667,915.934 C4363.667,918.608 4364.227,920.877 4365.349,922.739 C4366.469,924.604 4368.130,926.244 4370.334,927.660 C4372.535,929.079 4375.178,930.376 4378.261,931.549 C4381.343,932.724 4384.886,934.000 4388.891,935.377 C4394.176,937.564 4398.920,939.793 4403.124,942.060 C4407.328,944.329 4410.911,946.901 4413.874,949.776 C4416.836,952.652 4419.118,955.973 4420.721,959.740 C4422.322,963.507 4423.123,967.984 4423.123,973.167 C4423.123,979.486 4421.682,984.996 4418.799,989.693 C4415.916,994.393 4412.073,998.281 4407.268,1001.359 ZM4243.615,979.608 C4250.300,985.847 4259.489,988.964 4271.181,988.964 C4284.312,988.964 4296.363,984.996 4307.335,977.056 L4307.335,999.779 C4296.123,1006.909 4281.309,1010.472 4262.893,1010.472 C4244.795,1010.472 4230.601,1004.822 4220.313,993.521 C4210.023,982.220 4204.879,966.323 4204.879,945.827 C4204.879,926.466 4210.543,910.690 4221.875,898.497 C4233.205,886.306 4247.278,880.209 4264.094,880.209 C4280.910,880.209 4293.921,885.677 4303.131,896.614 C4312.338,907.550 4316.944,922.739 4316.944,942.181 L4316.944,952.996 L4233.105,952.996 C4233.424,964.500 4236.928,973.371 4243.615,979.608 ZM4290.038,933.068 C4289.958,922.942 4287.595,915.065 4282.952,909.433 C4278.307,903.804 4271.901,900.988 4263.734,900.988 C4255.726,900.988 4248.939,903.946 4243.375,909.859 C4237.808,915.773 4234.385,923.510 4233.105,933.068 L4290.038,933.068 ZM4150.948,939.751 C4150.948,926.709 4149.126,917.271 4145.483,911.438 C4141.838,905.606 4135.694,902.689 4127.046,902.689 C4119.758,902.689 4113.572,906.377 4108.488,913.747 C4103.402,921.120 4100.861,929.950 4100.861,940.237 L4100.861,1007.556 L4072.875,1007.556 L4072.875,937.442 C4072.875,914.275 4064.786,902.689 4048.612,902.689 C4041.084,902.689 4034.899,906.173 4030.055,913.140 C4025.209,920.108 4022.788,929.140 4022.788,940.237 L4022.788,1007.556 L3994.922,1007.556 L3994.922,883.126 L4022.788,883.126 L4022.788,902.811 L4023.268,902.811 C4032.157,887.743 4045.088,880.209 4062.065,880.209 C4070.551,880.209 4077.980,882.579 4084.346,887.318 C4090.712,892.057 4095.054,898.275 4097.378,905.970 C4106.506,888.797 4120.119,880.209 4138.216,880.209 C4165.281,880.209 4178.814,897.100 4178.814,930.881 L4178.814,1007.556 L4150.948,1007.556 L4150.948,939.751 ZM3944.715,857.000 C3940.151,857.000 3936.247,855.502 3933.004,852.504 C3929.761,849.508 3928.139,845.699 3928.139,841.082 C3928.139,836.464 3929.761,832.617 3933.004,829.538 C3936.247,826.460 3940.151,824.920 3944.715,824.920 C3949.439,824.920 3953.442,826.460 3956.726,829.538 C3960.009,832.617 3961.651,836.464 3961.651,841.082 C3961.651,845.456 3960.009,849.204 3956.726,852.322 C3953.442,855.441 3949.439,857.000 3944.715,857.000 ZM3885.139,1010.351 C3861.276,1010.351 3849.345,998.767 3849.345,975.598 L3849.345,905.241 L3828.806,905.241 L3828.806,883.126 L3849.345,883.126 L3849.345,854.327 L3877.212,846.307 L3877.212,883.126 L3906.639,883.126 L3906.639,905.241 L3877.212,905.241 L3877.212,967.456 C3877.212,974.829 3878.533,980.094 3881.175,983.253 C3883.818,986.413 3888.221,987.992 3894.388,987.992 C3899.111,987.992 3903.195,986.616 3906.639,983.861 L3906.639,1006.219 C3901.193,1008.972 3894.027,1010.351 3885.139,1010.351 ZM3709.895,986.413 L3709.414,986.413 C3700.445,1002.452 3686.632,1010.472 3667.976,1010.472 C3652.841,1010.472 3640.729,1004.904 3631.642,993.764 C3622.552,982.627 3618.009,967.456 3618.009,948.257 C3618.009,927.681 3623.033,911.195 3633.083,898.801 C3643.131,886.406 3656.524,880.209 3673.261,880.209 C3689.836,880.209 3701.887,886.934 3709.414,900.381 L3709.895,900.381 L3709.895,823.341 L3737.761,823.341 L3737.761,1007.556 L3709.895,1007.556 L3709.895,986.413 ZM3710.255,934.404 C3710.255,925.576 3707.412,918.082 3701.727,911.924 C3696.041,905.769 3688.794,902.689 3679.987,902.689 C3669.576,902.689 3661.388,906.620 3655.424,914.476 C3649.457,922.335 3646.475,933.231 3646.475,947.163 C3646.475,959.801 3649.337,969.786 3655.063,977.117 C3660.787,984.449 3668.495,988.114 3678.185,988.114 C3687.713,988.114 3695.440,984.571 3701.367,977.481 C3707.292,970.394 3710.255,961.462 3710.255,950.687 L3710.255,934.404 ZM3533.570,1010.472 C3514.592,1010.472 3499.437,1004.660 3488.107,993.035 C3476.775,981.411 3471.111,965.998 3471.111,946.799 C3471.111,925.899 3477.015,909.576 3488.828,897.829 C3500.638,886.084 3516.553,880.209 3536.572,880.209 C3555.790,880.209 3570.763,885.920 3581.494,897.343 C3592.224,908.765 3597.589,924.604 3597.589,944.855 C3597.589,964.703 3591.803,980.601 3580.233,992.549 C3568.661,1004.499 3553.107,1010.472 3533.570,1010.472 ZM3560.174,913.869 C3554.289,906.416 3545.860,902.689 3534.891,902.689 C3524.000,902.689 3515.391,906.538 3509.067,914.233 C3502.740,921.930 3499.578,932.542 3499.578,946.070 C3499.578,959.114 3502.779,969.382 3509.187,976.874 C3515.592,984.368 3524.159,988.114 3534.891,988.114 C3545.860,988.114 3554.289,984.428 3560.174,977.056 C3566.060,969.685 3569.003,959.193 3569.003,945.584 C3569.003,931.894 3566.060,921.323 3560.174,913.869 ZM3386.672,1010.472 C3367.694,1010.472 3352.539,1004.660 3341.209,993.035 C3329.877,981.411 3324.213,965.998 3324.213,946.799 C3324.213,925.899 3330.118,909.576 3341.930,897.829 C3353.740,886.084 3369.655,880.209 3389.675,880.209 C3408.893,880.209 3423.866,885.920 3434.597,897.343 C3445.326,908.765 3450.692,924.604 3450.692,944.855 C3450.692,964.703 3444.906,980.601 3433.336,992.549 C3421.763,1004.499 3406.209,1010.472 3386.672,1010.472 ZM3413.277,913.869 C3407.391,906.416 3398.963,902.689 3387.993,902.689 C3377.102,902.689 3368.494,906.538 3362.169,914.233 C3355.842,921.930 3352.680,932.542 3352.680,946.070 C3352.680,959.114 3355.882,969.382 3362.289,976.874 C3368.694,984.368 3377.262,988.114 3387.993,988.114 C3398.963,988.114 3407.391,984.428 3413.277,977.056 C3419.162,969.685 3422.105,959.193 3422.105,945.584 C3422.105,931.894 3419.162,921.323 3413.277,913.869 ZM3227.763,1066.126 C3211.747,1066.126 3197.774,1063.411 3185.844,1057.984 L3185.844,1032.223 C3199.296,1040.000 3212.068,1043.889 3224.160,1043.889 C3253.386,1043.889 3268.001,1029.347 3268.001,1000.265 L3268.001,986.656 L3267.520,986.656 C3258.311,1002.534 3244.459,1010.472 3225.961,1010.472 C3210.987,1010.472 3198.915,1004.943 3189.747,993.886 C3180.578,982.828 3175.994,967.984 3175.994,949.351 C3175.994,928.207 3180.919,911.398 3190.768,898.922 C3200.618,886.448 3214.149,880.209 3231.366,880.209 C3247.621,880.209 3259.672,886.934 3267.520,900.381 L3268.001,900.381 L3268.001,883.126 L3295.867,883.126 L3295.867,997.592 C3295.867,1043.281 3273.166,1066.126 3227.763,1066.126 ZM3268.241,934.404 C3268.241,925.655 3265.377,918.182 3259.653,911.985 C3253.927,905.788 3246.780,902.689 3238.213,902.689 C3227.643,902.689 3219.374,906.639 3213.409,914.537 C3207.443,922.435 3204.461,933.474 3204.461,947.650 C3204.461,959.883 3207.323,969.664 3213.049,976.995 C3218.773,984.328 3226.361,987.992 3235.811,987.992 C3245.420,987.992 3253.227,984.489 3259.232,977.481 C3265.238,970.475 3268.241,961.502 3268.241,950.566 L3268.241,934.404 ZM3016.425,979.608 C3023.110,985.847 3032.299,988.964 3043.991,988.964 C3057.122,988.964 3069.173,984.996 3080.145,977.056 L3080.145,999.779 C3068.933,1006.909 3054.120,1010.472 3035.703,1010.472 C3017.605,1010.472 3003.412,1004.822 2993.123,993.521 C2982.833,982.220 2977.689,966.323 2977.689,945.827 C2977.689,926.466 2983.353,910.690 2994.685,898.497 C3006.015,886.306 3020.088,880.209 3036.904,880.209 C3053.720,880.209 3066.732,885.677 3075.941,896.614 C3085.148,907.550 3089.754,922.739 3089.754,942.181 L3089.754,952.996 L3005.915,952.996 C3006.234,964.500 3009.738,973.371 3016.425,979.608 ZM3062.848,933.068 C3062.768,922.942 3060.405,915.065 3055.762,909.433 C3051.117,903.804 3044.712,900.988 3036.544,900.988 C3028.536,900.988 3021.749,903.946 3016.185,909.859 C3010.618,915.773 3007.195,923.510 3005.915,933.068 L3062.848,933.068 ZM2923.878,939.508 C2923.878,914.883 2915.750,902.568 2899.495,902.568 C2891.328,902.568 2884.440,906.133 2878.836,913.261 C2873.230,920.391 2870.428,929.504 2870.428,940.602 L2870.428,1007.556 L2842.442,1007.556 L2842.442,823.341 L2870.428,823.341 L2870.428,903.783 L2870.909,903.783 C2880.197,888.068 2893.490,880.209 2910.786,880.209 C2938.091,880.209 2951.744,897.100 2951.744,930.881 L2951.744,1007.556 L2923.878,1007.556 L2923.878,939.508 ZM2796.919,1010.351 C2773.056,1010.351 2761.126,998.767 2761.126,975.598 L2761.126,905.241 L2740.587,905.241 L2740.587,883.126 L2761.126,883.126 L2761.126,854.327 L2788.992,846.307 L2788.992,883.126 L2818.419,883.126 L2818.419,905.241 L2788.992,905.241 L2788.992,967.456 C2788.992,974.829 2790.313,980.094 2792.956,983.253 C2795.598,986.413 2800.001,987.992 2806.168,987.992 C2810.892,987.992 2814.976,986.616 2818.419,983.861 L2818.419,1006.219 C2812.973,1008.972 2805.808,1010.351 2796.919,1010.351 ZM2640.413,1010.351 C2616.550,1010.351 2604.619,998.767 2604.619,975.598 L2604.619,905.241 L2584.080,905.241 L2584.080,883.126 L2604.619,883.126 L2604.619,854.327 L2632.485,846.307 L2632.485,883.126 L2661.913,883.126 L2661.913,905.241 L2632.485,905.241 L2632.485,967.456 C2632.485,974.829 2633.807,980.094 2636.449,983.253 C2639.091,986.413 2643.494,987.992 2649.661,987.992 C2654.385,987.992 2658.469,986.616 2661.913,983.861 L2661.913,1006.219 C2656.467,1008.972 2649.301,1010.351 2640.413,1010.351 ZM2497.179,979.608 C2503.864,985.847 2513.052,988.964 2524.744,988.964 C2537.876,988.964 2549.927,984.996 2560.898,977.056 L2560.898,999.779 C2549.686,1006.909 2534.873,1010.472 2516.457,1010.472 C2498.359,1010.472 2484.165,1004.822 2473.877,993.521 C2463.586,982.220 2458.442,966.323 2458.442,945.827 C2458.442,926.466 2464.106,910.690 2475.438,898.497 C2486.768,886.306 2500.842,880.209 2517.658,880.209 C2534.473,880.209 2547.485,885.677 2556.694,896.614 C2565.902,907.550 2570.507,922.739 2570.507,942.181 L2570.507,952.996 L2486.669,952.996 C2486.988,964.500 2490.492,973.371 2497.179,979.608 ZM2543.602,933.068 C2543.521,922.942 2541.158,915.065 2536.515,909.433 C2531.870,903.804 2525.465,900.988 2517.297,900.988 C2509.289,900.988 2502.503,903.946 2496.938,909.859 C2491.372,915.773 2487.949,923.510 2486.669,933.068 L2543.602,933.068 ZM2349.260,833.305 L2377.847,833.305 L2377.847,983.132 L2444.629,983.132 L2444.629,1007.556 L2349.260,1007.556 L2349.260,833.305 ZM3958.528,1007.556 L3930.662,1007.556 L3930.662,883.126 L3958.528,883.126 L3958.528,1007.556 Z" class="cls-5"/>
    <ellipse cx="1490" cy="271" rx="95" ry="85" class="cls-2"/>
    <circle cx="1499" cy="632" r="95" class="cls-2"/>
    <path d="M1890.039,399.884 C1917.887,444.351 1908.209,500.597 1868.423,525.514 C1828.638,550.431 1773.809,534.582 1745.961,490.116 C1718.113,445.649 1727.791,389.403 1767.577,364.486 C1807.362,339.569 1862.191,355.418 1890.039,399.884 Z" class="cls-6"/>
    <path d="M4888.560,584.695 L4888.560,286.852 L4934.337,286.852 L4934.337,584.695 L4888.560,584.695 ZM4747.694,584.695 L4711.151,448.347 C4709.708,443.110 4708.793,437.216 4708.400,430.665 L4707.614,430.665 C4707.351,435.119 4706.172,440.881 4704.078,447.954 L4664.392,584.695 L4617.633,584.695 L4558.496,383.513 L4605.648,383.513 L4642.191,528.505 C4643.370,532.828 4644.156,538.593 4644.549,545.794 L4645.924,545.794 C4646.317,540.293 4647.364,534.399 4649.068,528.112 L4689.736,383.513 L4732.566,383.513 L4768.716,529.095 C4769.895,533.681 4770.745,539.443 4771.270,546.384 L4772.645,546.384 C4772.906,541.540 4773.888,535.775 4775.592,529.095 L4811.349,383.513 L4854.768,383.513 L4795.435,584.695 L4747.694,584.695 ZM4433.151,589.410 C4402.109,589.410 4377.321,580.013 4358.788,561.217 C4340.253,542.424 4330.988,517.503 4330.988,486.462 C4330.988,452.669 4340.646,426.278 4359.967,407.286 C4379.285,388.296 4405.317,378.798 4438.063,378.798 C4469.497,378.798 4493.988,388.032 4511.541,406.500 C4529.091,424.968 4537.867,450.576 4537.867,483.318 C4537.867,515.410 4528.403,541.113 4509.478,560.431 C4490.550,579.752 4465.107,589.410 4433.151,589.410 ZM4476.668,433.219 C4467.041,421.170 4453.255,415.144 4435.312,415.144 C4417.498,415.144 4403.417,421.367 4393.072,433.809 C4382.724,446.253 4377.551,463.410 4377.551,485.283 C4377.551,506.372 4382.788,522.974 4393.268,535.087 C4403.745,547.203 4417.759,553.260 4435.312,553.260 C4453.255,553.260 4467.041,547.302 4476.668,535.382 C4486.295,523.465 4491.109,506.501 4491.109,484.497 C4491.109,462.364 4486.295,445.271 4476.668,433.219 ZM4279.416,456.500 C4291.007,468.617 4296.803,484.368 4296.803,503.751 C4296.803,527.851 4287.305,547.366 4268.316,562.298 C4249.323,577.229 4225.354,584.695 4196.409,584.695 L4106.034,584.695 L4106.034,302.962 L4195.427,302.962 C4222.668,302.962 4244.248,308.923 4260.162,320.840 C4276.076,332.760 4284.033,348.281 4284.033,367.403 C4284.033,383.384 4279.514,397.266 4270.477,409.054 C4261.439,420.842 4248.930,429.225 4232.952,434.201 L4232.952,434.987 C4252.334,437.216 4267.824,444.387 4279.416,456.500 ZM4234.916,376.637 C4234.916,352.539 4218.806,340.487 4186.586,340.487 L4152.597,340.487 L4152.597,420.645 L4182.853,420.645 C4199.092,420.645 4211.831,416.814 4221.065,409.152 C4230.299,401.490 4234.916,390.653 4234.916,376.637 ZM4186.389,458.170 L4152.597,458.170 L4152.597,547.366 L4192.480,547.366 C4209.898,547.366 4223.355,543.339 4232.853,535.283 C4242.348,527.228 4247.097,516.128 4247.097,501.982 C4247.097,472.776 4226.861,458.170 4186.389,458.170 ZM3885.206,550.510 L3884.420,550.510 C3869.750,576.443 3847.156,589.410 3816.639,589.410 C3791.884,589.410 3772.072,580.406 3757.208,562.396 C3742.341,544.388 3734.909,519.861 3734.909,488.819 C3734.909,455.552 3743.127,428.897 3759.566,408.857 C3776.001,388.818 3797.907,378.798 3825.284,378.798 C3852.396,378.798 3872.107,389.671 3884.420,411.411 L3885.206,411.411 L3885.206,286.852 L3930.786,286.852 L3930.786,584.695 L3885.206,584.695 L3885.206,550.510 ZM3885.795,466.422 C3885.795,452.147 3881.145,440.031 3871.846,430.076 C3862.545,420.123 3850.692,415.144 3836.286,415.144 C3819.258,415.144 3805.864,421.499 3796.109,434.201 C3786.350,446.907 3781.472,464.525 3781.472,487.051 C3781.472,507.483 3786.153,523.627 3795.519,535.480 C3804.882,547.335 3817.490,553.260 3833.339,553.260 C3848.924,553.260 3861.562,547.532 3871.257,536.069 C3880.948,524.610 3885.795,510.170 3885.795,492.748 L3885.795,466.422 ZM3596.793,589.410 C3565.751,589.410 3540.963,580.013 3522.431,561.217 C3503.895,542.424 3494.631,517.503 3494.631,486.462 C3494.631,452.669 3504.288,426.278 3523.609,407.286 C3542.928,388.296 3568.959,378.798 3601.705,378.798 C3633.139,378.798 3657.630,388.032 3675.183,406.500 C3692.733,424.968 3701.510,450.576 3701.510,483.318 C3701.510,515.410 3692.046,541.113 3673.120,560.431 C3654.192,579.752 3628.750,589.410 3596.793,589.410 ZM3640.311,433.219 C3630.684,421.170 3616.897,415.144 3598.954,415.144 C3581.140,415.144 3567.059,421.367 3556.714,433.809 C3546.366,446.253 3541.193,463.410 3541.193,485.283 C3541.193,506.372 3546.430,522.974 3556.911,535.087 C3567.388,547.203 3581.401,553.260 3598.954,553.260 C3616.897,553.260 3630.684,547.302 3640.311,535.382 C3649.937,523.465 3654.751,506.501 3654.751,484.497 C3654.751,462.364 3649.937,445.271 3640.311,433.219 ZM3356.515,589.410 C3325.473,589.410 3300.684,580.013 3282.152,561.217 C3263.617,542.424 3254.352,517.503 3254.352,486.462 C3254.352,452.669 3264.010,426.278 3283.331,407.286 C3302.649,388.296 3328.681,378.798 3361.426,378.798 C3392.861,378.798 3417.352,388.032 3434.905,406.500 C3452.455,424.968 3461.231,450.576 3461.231,483.318 C3461.231,515.410 3451.767,541.113 3432.842,560.431 C3413.914,579.752 3388.471,589.410 3356.515,589.410 ZM3400.032,433.219 C3390.405,421.170 3376.619,415.144 3358.676,415.144 C3340.862,415.144 3326.781,421.367 3316.436,433.809 C3306.087,446.253 3300.915,463.410 3300.915,485.283 C3300.915,506.372 3306.152,522.974 3316.632,535.087 C3327.109,547.203 3341.123,553.260 3358.676,553.260 C3376.619,553.260 3390.405,547.302 3400.032,535.382 C3409.659,523.465 3414.472,506.501 3414.472,484.497 C3414.472,462.364 3409.659,445.271 3400.032,433.219 ZM3128.024,584.695 L3091.481,448.347 C3090.039,443.110 3089.124,437.216 3088.731,430.665 L3087.945,430.665 C3087.681,435.119 3086.502,440.881 3084.409,447.954 L3044.722,584.695 L2997.963,584.695 L2938.827,383.513 L2985.979,383.513 L3022.522,528.505 C3023.700,532.828 3024.486,538.593 3024.879,545.794 L3026.255,545.794 C3026.647,540.293 3027.694,534.399 3029.398,528.112 L3070.067,383.513 L3112.896,383.513 L3149.046,529.095 C3150.225,533.681 3151.075,539.443 3151.600,546.384 L3152.975,546.384 C3153.236,541.540 3154.219,535.775 3155.922,529.095 L3191.679,383.513 L3235.098,383.513 L3175.766,584.695 L3128.024,584.695 ZM2764.168,679.392 C2754.606,679.392 2746.615,678.538 2740.199,676.838 L2740.199,638.920 C2747.401,641.277 2753.952,642.456 2759.846,642.456 C2776.871,642.456 2789.577,634.072 2797.961,617.308 L2811.517,584.302 L2731.555,383.513 L2782.047,383.513 L2829.985,529.684 C2830.506,531.520 2831.685,536.364 2833.521,544.223 L2834.503,544.223 C2835.157,541.211 2836.336,536.496 2838.040,530.077 L2888.335,383.513 L2934.308,383.513 L2843.541,616.915 C2824.680,658.566 2798.221,679.392 2764.168,679.392 ZM2654.933,286.852 L2700.710,286.852 L2700.710,584.695 L2654.933,584.695 L2654.933,286.852 ZM2549.823,286.852 L2595.600,286.852 L2595.600,584.695 L2549.823,584.695 L2549.823,286.852 ZM2398.741,589.410 C2367.699,589.410 2342.910,580.013 2324.378,561.217 C2305.843,542.424 2296.578,517.503 2296.578,486.462 C2296.578,452.669 2306.236,426.278 2325.557,407.286 C2344.875,388.296 2370.907,378.798 2403.652,378.798 C2435.087,378.798 2459.578,388.032 2477.131,406.500 C2494.681,424.968 2503.457,450.576 2503.457,483.318 C2503.457,515.410 2493.993,541.113 2475.068,560.431 C2456.140,579.752 2430.697,589.410 2398.741,589.410 ZM2442.258,433.219 C2432.631,421.170 2418.845,415.144 2400.902,415.144 C2383.088,415.144 2369.007,421.367 2358.662,433.809 C2348.313,446.253 2343.141,463.410 2343.141,485.283 C2343.141,506.372 2348.378,522.974 2358.858,535.087 C2369.335,547.203 2383.349,553.260 2400.902,553.260 C2418.845,553.260 2432.631,547.302 2442.258,535.382 C2451.885,523.465 2456.698,506.501 2456.698,484.497 C2456.698,462.364 2451.885,445.271 2442.258,433.219 ZM2198.148,462.493 L2065.534,462.493 L2065.534,584.695 L2018.775,584.695 L2018.775,302.962 L2065.534,302.962 L2065.534,421.431 L2198.148,421.431 L2198.148,302.962 L2245.104,302.962 L2245.104,584.695 L2198.148,584.695 L2198.148,462.493 Z" class="cls-6"/>
    <rect width="5000" height="1600" class="cls-7"/>
  </g>
</svg>
