<svg xmlns="http://www.w3.org/2000/svg" xmlns:xlink="http://www.w3.org/1999/xlink" preserveAspectRatio="xMidYMid" width="5000" height="1600" viewBox="0 0 5000 1600">
  <defs>
    <style>
      .cls-1 {
        fill: #fff;
      }

      .cls-2 {
        stroke: #d31212;
        stroke-width: 30px;
        fill: none;
      }

      .cls-3 {
        fill: #000;
        fill-rule: evenodd;
      }
    </style>
  </defs>
  <rect x="-15" y="-20" width="5049" height="1659" class="cls-1"/>
  <rect x="28" y="41" width="4928" height="1524" class="cls-2"/>
  <path d="M3285.826,279.281 L3285.826,568.273 L3229.998,568.273 L3229.998,279.281 L3133.589,279.281 L3133.589,231.898 L3382.469,231.898 L3382.469,279.281 L3285.826,279.281 ZM3079.051,381.906 C3072.560,389.647 3064.742,396.255 3055.594,401.727 C3046.446,407.203 3036.161,411.426 3024.748,414.394 L3024.748,415.333 C3030.847,418.774 3036.161,422.568 3040.699,426.709 C3045.232,430.855 3049.532,435.117 3053.600,439.493 C3057.665,443.873 3061.693,448.840 3065.680,454.389 C3069.668,459.941 3074.085,466.392 3078.934,473.741 L3138.749,568.273 L3073.539,568.273 L3019.822,478.198 C3014.973,469.911 3010.241,462.833 3005.630,456.969 C3001.016,451.105 2996.324,446.296 2991.556,442.543 C2986.784,438.790 2981.587,436.056 2975.957,434.333 C2970.327,432.614 2963.994,431.753 2956.957,431.753 L2934.438,431.753 L2934.438,568.273 L2878.844,568.273 L2878.844,231.898 L2989.562,231.898 C3005.355,231.898 3019.899,233.774 3033.192,237.527 C3046.482,241.281 3058.057,246.951 3067.909,254.534 C3077.761,262.121 3085.461,271.581 3091.014,282.917 C3096.563,294.257 3099.341,307.510 3099.341,322.677 C3099.341,334.563 3097.582,345.471 3094.063,355.400 C3090.545,365.332 3085.538,374.165 3079.051,381.906 ZM3025.217,290.775 C3015.050,281.708 3000.429,277.170 2981.352,277.170 L2934.438,277.170 L2934.438,386.480 L2980.883,386.480 C2989.481,386.480 2997.420,385.154 3004.692,382.493 C3011.964,379.835 3018.257,376.005 3023.575,370.999 C3028.889,365.996 3033.035,359.897 3036.007,352.702 C3038.976,345.511 3040.464,337.455 3040.464,328.541 C3040.464,312.436 3035.380,299.846 3025.217,290.775 ZM2630.199,231.898 L2811.522,231.898 L2811.522,279.281 L2686.027,279.281 L2686.027,374.517 L2801.670,374.517 L2801.670,421.666 L2686.027,421.666 L2686.027,521.124 L2819.029,521.124 L2819.029,568.273 L2630.199,568.273 L2630.199,231.898 ZM2402.430,568.273 L2283.736,231.898 L2344.725,231.898 L2427.763,487.111 C2430.421,495.244 2432.455,504.704 2433.862,515.495 L2434.801,515.495 C2435.893,506.581 2438.161,496.963 2441.603,486.642 L2526.518,231.898 L2585.630,231.898 L2464.826,568.273 L2402.430,568.273 ZM2070.511,568.273 L1977.386,568.273 L1977.386,231.898 L2074.499,231.898 C2198.506,231.898 2260.514,286.553 2260.514,395.863 C2260.514,447.784 2243.310,489.498 2208.908,521.007 C2174.503,552.520 2128.370,568.273 2070.511,568.273 ZM2079.659,279.281 L2032.980,279.281 L2032.980,521.124 L2077.548,521.124 C2116.799,521.124 2147.333,510.334 2169.148,488.753 C2190.963,467.173 2201.871,436.679 2201.871,397.271 C2201.871,318.612 2161.133,279.281 2079.659,279.281 ZM1839.693,482.655 L1707.394,482.655 L1678.308,568.273 L1617.319,568.273 L1743.284,231.898 L1806.149,231.898 L1931.176,568.273 L1869.952,568.273 L1839.693,482.655 ZM1778.235,302.973 C1776.828,298.597 1775.339,291.560 1773.778,281.861 L1772.840,281.861 C1771.432,290.775 1769.867,297.812 1768.148,302.973 L1721.938,437.148 L1824.915,437.148 L1778.235,302.973 Z" class="cls-3"/>
  <path d="M2865.707,665.078 L2865.707,954.070 L2809.879,954.070 L2809.879,665.078 L2713.470,665.078 L2713.470,617.694 L2962.351,617.694 L2962.351,665.078 L2865.707,665.078 ZM2542.702,959.699 C2494.223,959.699 2455.401,943.983 2426.237,912.551 C2397.070,881.118 2382.490,840.226 2382.490,789.870 C2382.490,735.764 2397.345,692.603 2427.058,660.386 C2456.768,628.173 2497.115,612.065 2548.097,612.065 C2595.323,612.065 2633.364,627.704 2662.216,658.979 C2691.069,690.257 2705.495,731.150 2705.495,781.660 C2705.495,836.549 2690.717,879.945 2661.161,911.847 C2631.605,943.749 2592.116,959.699 2542.702,959.699 ZM2619.993,693.930 C2601.931,672.038 2577.026,661.090 2545.282,661.090 C2514.473,661.090 2489.414,672.584 2470.102,695.572 C2450.787,718.560 2441.133,748.820 2441.133,786.351 C2441.133,823.729 2450.515,853.831 2469.281,876.661 C2488.047,899.495 2512.596,910.909 2542.937,910.909 C2575.150,910.909 2600.561,900.041 2619.172,878.303 C2637.780,856.569 2647.086,826.151 2647.086,787.055 C2647.086,746.866 2638.055,715.826 2619.993,693.930 ZM2099.127,706.831 C2095.059,700.579 2091.698,694.088 2089.041,687.362 L2087.633,687.362 C2088.883,694.557 2089.510,709.961 2089.510,733.573 L2089.510,954.070 L2035.559,954.070 L2035.559,617.694 L2100.535,617.694 L2255.821,859.068 C2262.389,869.078 2266.611,875.957 2268.488,879.711 L2269.426,879.711 C2267.861,870.797 2267.081,855.707 2267.081,834.438 L2267.081,617.694 L2320.797,617.694 L2320.797,954.070 L2259.809,954.070 L2099.127,706.831 Z" class="cls-3"/>
  <path d="M3242.414,1314.370 C3208.009,1345.883 3161.875,1361.636 3104.016,1361.636 L3010.892,1361.636 L3010.892,1025.261 L3108.004,1025.261 C3232.012,1025.261 3294.019,1079.916 3294.019,1189.226 C3294.019,1241.147 3276.815,1282.861 3242.414,1314.370 ZM3113.165,1072.644 L3066.485,1072.644 L3066.485,1314.487 L3111.054,1314.487 C3150.304,1314.487 3180.839,1303.697 3202.654,1282.116 C3224.469,1260.536 3235.376,1230.042 3235.376,1190.634 C3235.376,1111.975 3194.638,1072.644 3113.165,1072.644 ZM2705.949,1114.398 C2701.880,1108.145 2698.519,1101.654 2695.862,1094.928 L2694.455,1094.928 C2695.704,1102.123 2696.331,1117.528 2696.331,1141.139 L2696.331,1361.636 L2642.380,1361.636 L2642.380,1025.261 L2707.356,1025.261 L2862.642,1266.635 C2869.210,1276.644 2873.433,1283.524 2875.309,1287.277 L2876.247,1287.277 C2874.682,1278.363 2873.902,1263.274 2873.902,1242.005 L2873.902,1025.261 L2927.619,1025.261 L2927.619,1361.636 L2866.630,1361.636 L2705.949,1114.398 ZM2429.154,1367.266 C2343.455,1367.266 2300.609,1321.840 2300.609,1230.980 L2300.609,1025.261 L2356.437,1025.261 L2356.437,1219.486 C2356.437,1285.481 2382.082,1318.475 2433.376,1318.475 C2482.790,1318.475 2507.501,1286.654 2507.501,1223.004 L2507.501,1025.261 L2563.329,1025.261 L2563.329,1225.585 C2563.329,1320.040 2518.603,1367.266 2429.154,1367.266 ZM2080.112,1367.266 C2031.633,1367.266 1992.811,1351.550 1963.647,1320.117 C1934.480,1288.684 1919.900,1247.792 1919.900,1197.436 C1919.900,1143.331 1934.755,1100.170 1964.468,1067.953 C1994.178,1035.739 2034.524,1019.631 2085.507,1019.631 C2132.733,1019.631 2170.774,1035.270 2199.626,1066.545 C2228.478,1097.824 2242.904,1138.716 2242.904,1189.226 C2242.904,1244.116 2228.126,1287.512 2198.570,1319.413 C2169.014,1351.315 2129.526,1367.266 2080.112,1367.266 ZM2157.403,1101.496 C2139.341,1079.604 2114.436,1068.656 2082.692,1068.656 C2051.883,1068.656 2026.824,1080.150 2007.512,1103.138 C1988.197,1126.126 1978.542,1156.386 1978.542,1193.918 C1978.542,1231.295 1987.925,1261.397 2006.691,1284.228 C2025.457,1307.062 2050.006,1318.475 2080.346,1318.475 C2112.560,1318.475 2137.970,1307.608 2156.582,1285.870 C2175.190,1264.135 2184.496,1233.718 2184.496,1194.621 C2184.496,1154.433 2175.465,1123.392 2157.403,1101.496 ZM1755.934,1173.744 L1871.812,1173.744 L1871.812,1220.893 L1755.934,1220.893 L1755.934,1361.636 L1700.106,1361.636 L1700.106,1025.261 L1881.664,1025.261 L1881.664,1072.644 L1755.934,1072.644 L1755.934,1173.744 Z" class="cls-3"/>
</svg>
