<svg xmlns="http://www.w3.org/2000/svg" xmlns:xlink="http://www.w3.org/1999/xlink" preserveAspectRatio="xMidYMid" width="3693" height="3050" viewBox="0 0 3693 3050">
  <defs>
    <style>
      .cls-3, .cls-4 {
        fill-rule: evenodd;
      }
    </style>
  </defs>
  <g>
    <rect x="43" y="45" width="3587" height="2952" rx="500" ry="500" fill="#fff" stroke="#eb0e0e" stroke-width="50px"/>
    <rect x="2700" y="873" width="700" height="182" fill="#eb0e0e"/>
    <rect x="2959" y="614" width="182" height="700" fill="#eb0e0e"/>
    <path d="M1924.065,606.827 L300.347,606.827 L300.347,981.421 L880.034,981.421 L880.034,2649.296 L1341.518,2649.296 L1341.518,981.421 L1924.065,981.421 L1924.065,606.827 Z" fill="#010100" class="cls-3"/>
    <path d="M2450.421,606.707 L1904.905,606.707 L1161.421,2649.176 L1659.920,2649.176 L1803.780,2194.817 L2530.186,2194.817 L2675.467,2649.176 L3176.827,2649.176 L2450.421,606.707 ZM1902.061,1841.582 L2124.249,1149.363 C2143.233,1090.504 2155.108,1031.160 2159.858,971.332 L2171.249,971.332 C2177.889,1042.551 2189.280,1103.801 2205.436,1155.067 L2424.780,1841.582 L1902.061,1841.582 Z" fill="#d31212" class="cls-4"/>
  </g>
</svg>
