<svg xmlns="http://www.w3.org/2000/svg" xmlns:xlink="http://www.w3.org/1999/xlink" preserveAspectRatio="xMidYMid" width="5000" height="1600" viewBox="0 0 5000 1600">
  <defs>
    <style>
      .cls-1, .cls-3 {
        fill: #e2d3a5;
      }

      .cls-2 {
        fill: #c69c6d;
      }

      .cls-2, .cls-3, .cls-4, .cls-5, .cls-6, .cls-7, .cls-8 {
        fill-rule: evenodd;
      }

      .cls-4 {
        fill: #8c6239;
      }

      .cls-5 {
        fill: #ffed00;
      }

      .cls-6 {
        fill: #7cc576;
      }

      .cls-7 {
        fill: #000;
      }

      .cls-8 {
        fill: #000101;
      }

      .cls-9 {
        stroke: #754c24;
        stroke-width: 30px;
        fill: none;
      }
    </style>
  </defs>
  <rect x="-28" y="-40" width="5248" height="1768" class="cls-1"/>
  <g>
    <g>
      <path d="M502.544,82.000 L1177.268,82.000 C1362.835,82.000 1513.268,232.432 1513.268,418.000 L1513.268,862.588 C1513.268,1048.156 1362.835,1198.588 1177.268,1198.588 L502.544,1198.588 C316.976,1198.588 166.544,1048.156 166.544,862.588 L166.544,418.000 C166.544,232.432 316.976,82.000 502.544,82.000 Z" class="cls-2"/>
      <path d="M206.544,1132.101 L1473.268,1132.101 C1495.359,1132.101 1513.268,1150.009 1513.268,1172.101 L1513.268,1456.000 C1513.268,1478.091 1495.359,1496.000 1473.268,1496.000 L206.544,1496.000 C184.452,1496.000 166.544,1478.091 166.544,1456.000 L166.544,1172.101 C166.544,1150.009 184.452,1132.101 206.544,1132.101 Z" class="cls-2"/>
      <path d="M110.000,640.294 L1756.000,640.294 L1756.000,1198.588 L110.000,1198.588 L110.000,640.294 Z" class="cls-3"/>
      <path d="M188.209,861.269 L1491.565,861.269 C1508.134,861.269 1521.565,874.701 1521.565,891.269 L1521.565,1150.305 C1521.565,1166.874 1508.134,1180.305 1491.565,1180.305 L188.209,1180.305 C171.640,1180.305 158.209,1166.874 158.209,1150.305 L158.209,891.269 C158.209,874.701 171.640,861.269 188.209,861.269 Z" class="cls-4"/>
      <path d="M161.751,761.594 L1525.044,761.594 C1530.567,761.594 1535.044,766.071 1535.044,771.594 L1535.044,834.675 C1535.044,840.198 1530.567,844.675 1525.044,844.675 L161.751,844.675 C156.228,844.675 151.751,840.198 151.751,834.675 L151.751,771.594 C151.751,766.071 156.228,761.594 161.751,761.594 Z" class="cls-5"/>
      <path d="M163.403,653.397 L1526.734,653.397 C1532.256,653.397 1536.734,657.874 1536.734,663.397 L1536.734,734.775 C1536.734,740.298 1532.256,744.775 1526.734,744.775 L163.403,744.775 C157.880,744.775 153.403,740.298 153.403,734.775 L153.403,663.397 C153.403,657.874 157.880,653.397 163.403,653.397 Z" class="cls-6"/>
    </g>
    <g>
      <path d="M3160.060,278.267 L3160.060,534.138 L3076.818,534.138 L3076.818,278.267 L3027.585,278.267 L3027.585,214.250 L3209.491,214.250 L3209.491,278.267 L3160.060,278.267 ZM2878.896,214.250 L3017.698,214.250 L3017.698,278.267 L2962.138,278.267 L2962.138,338.926 L3014.139,338.926 L3014.139,399.781 L2962.138,399.781 L2962.138,470.121 L3023.235,470.121 L3023.235,534.138 L2878.896,534.138 L2878.896,214.250 ZM2772.619,318.179 L2743.652,534.138 L2692.046,534.138 L2661.497,323.119 L2661.399,534.138 L2588.636,534.138 L2588.636,214.250 L2696.346,214.250 C2699.541,233.484 2702.834,256.150 2706.226,282.256 L2718.047,363.624 L2737.177,214.250 L2845.480,214.250 L2845.480,534.138 L2772.718,534.138 L2772.619,318.179 ZM2479.096,427.838 C2479.096,410.716 2477.743,400.112 2475.043,396.027 C2472.340,391.946 2465.256,389.902 2453.788,389.902 L2453.788,534.138 L2370.546,534.138 L2370.546,214.250 L2429.468,214.250 C2468.747,214.250 2495.341,215.766 2509.249,218.795 C2523.155,221.826 2534.490,229.563 2543.258,242.011 C2552.023,254.459 2556.407,274.316 2556.407,301.582 C2556.407,326.478 2553.308,343.208 2547.114,351.769 C2540.916,360.333 2528.725,365.470 2510.535,367.180 C2527.011,371.264 2538.083,376.732 2543.752,383.579 C2549.418,390.430 2552.947,396.719 2554.331,402.449 C2555.715,408.179 2556.407,423.954 2556.407,449.770 L2556.407,534.138 L2479.096,534.138 L2479.096,427.838 ZM2479.096,293.679 C2479.096,283.537 2477.283,276.884 2473.659,273.723 C2470.032,270.562 2463.408,268.981 2453.788,268.981 L2453.788,340.111 C2463.146,340.111 2469.704,338.827 2473.461,336.258 C2477.218,333.690 2479.096,325.360 2479.096,311.264 L2479.096,293.679 ZM2321.905,509.341 C2314.126,519.684 2303.878,527.519 2291.159,532.854 C2278.437,538.189 2263.444,540.856 2246.177,540.856 C2227.062,540.856 2210.191,537.695 2195.559,531.372 C2180.928,525.049 2169.985,516.819 2162.737,506.674 C2155.486,496.532 2151.201,485.829 2149.885,474.567 C2148.566,463.304 2147.908,439.628 2147.908,403.535 L2147.908,214.250 L2231.150,214.250 L2231.150,454.117 C2231.150,468.080 2231.907,477.006 2233.423,480.889 C2234.937,484.776 2238.002,486.718 2242.618,486.718 C2247.888,486.718 2251.284,484.579 2252.801,480.297 C2254.314,476.018 2255.074,465.907 2255.074,449.968 L2255.074,214.250 L2338.316,214.250 L2338.316,428.036 C2338.316,452.274 2337.526,469.300 2335.944,479.111 C2334.362,488.925 2329.681,499.002 2321.905,509.341 ZM2101.541,506.476 C2093.564,517.541 2082.788,526.037 2069.213,531.965 C2055.635,537.892 2039.817,540.856 2021.759,540.856 C2004.622,540.856 1989.234,538.056 1975.591,532.459 C1961.948,526.862 1950.974,518.464 1942.669,507.267 C1934.365,496.072 1929.422,483.887 1927.840,470.714 C1926.258,457.544 1925.467,434.491 1925.467,401.560 L1925.467,346.829 C1925.467,314.691 1926.224,291.935 1927.741,278.564 C1929.255,265.196 1934.000,252.977 1941.977,241.912 C1949.951,230.847 1960.727,222.351 1974.305,216.424 C1987.880,210.496 2003.698,207.533 2021.759,207.533 C2038.893,207.533 2054.285,210.333 2067.928,215.930 C2081.571,221.530 2092.545,229.927 2100.849,241.122 C2109.154,252.319 2114.097,264.504 2115.678,277.675 C2117.260,290.848 2118.051,313.900 2118.051,346.829 L2118.051,401.560 C2118.051,433.701 2117.291,456.457 2115.777,469.825 C2114.260,483.196 2109.515,495.412 2101.541,506.476 ZM2034.809,296.445 C2034.809,281.562 2033.984,272.044 2032.338,267.894 C2030.688,263.745 2027.296,261.670 2022.155,261.670 C2017.805,261.670 2014.474,263.350 2012.170,266.709 C2009.862,270.068 2008.709,279.981 2008.709,296.445 L2008.709,445.818 C2008.709,464.391 2009.466,475.851 2010.983,480.198 C2012.497,484.545 2016.025,486.718 2021.562,486.718 C2027.228,486.718 2030.855,484.217 2032.436,479.210 C2034.018,474.206 2034.809,462.286 2034.809,443.447 L2034.809,296.445 ZM1835.601,511.218 C1829.929,521.098 1822.771,528.507 1814.133,533.447 C1805.492,538.386 1795.303,540.856 1783.563,540.856 C1769.577,540.856 1756.484,537.463 1744.284,530.680 C1732.080,523.898 1722.815,515.500 1716.482,505.489 C1710.148,495.480 1706.191,484.974 1704.609,473.974 C1703.027,462.977 1702.236,446.479 1702.236,424.479 L1702.236,329.442 C1702.236,298.884 1703.883,276.687 1707.179,262.856 C1710.473,249.025 1719.933,236.349 1735.553,224.821 C1751.173,213.296 1771.372,207.533 1796.155,207.533 C1820.540,207.533 1840.773,212.540 1856.857,222.549 C1872.937,232.561 1883.417,244.450 1888.295,258.213 C1893.170,271.979 1895.611,291.969 1895.611,318.179 L1895.611,332.010 L1812.369,332.010 L1812.369,302.965 C1812.369,284.658 1811.578,273.198 1809.996,268.586 C1808.414,263.977 1804.658,261.670 1798.726,261.670 C1793.585,261.670 1790.091,263.646 1788.246,267.598 C1786.399,271.550 1785.478,281.694 1785.478,298.026 L1785.478,451.548 C1785.478,465.907 1786.399,475.357 1788.246,479.901 C1790.091,484.446 1793.783,486.718 1799.319,486.718 C1805.380,486.718 1809.502,484.150 1811.677,479.012 C1813.852,473.875 1814.939,463.866 1814.939,448.980 L1814.939,411.044 L1798.133,411.044 L1798.133,362.438 L1895.611,362.438 L1895.611,534.138 L1843.300,534.138 L1835.601,511.218 Z" class="cls-7"/>
      <path d="M3172.701,763.353 C3179.460,771.022 3183.669,778.062 3185.321,784.476 C3186.972,790.891 3187.798,808.551 3187.798,837.450 L3187.798,931.895 L3095.564,931.895 L3095.564,812.898 C3095.564,793.731 3093.950,781.860 3090.728,777.288 C3087.503,772.719 3079.052,770.431 3065.370,770.431 L3065.370,931.895 L2966.060,931.895 L2966.060,573.798 L3036.355,573.798 C3083.217,573.798 3114.944,575.495 3131.537,578.885 C3148.127,582.279 3161.650,590.940 3172.111,604.875 C3182.567,618.809 3187.798,641.038 3187.798,671.562 C3187.798,699.431 3184.101,718.159 3176.711,727.742 C3169.317,737.329 3154.773,743.080 3133.071,744.995 C3152.727,749.567 3165.937,755.688 3172.701,763.353 ZM3095.564,662.714 C3095.564,651.361 3093.400,643.914 3089.077,640.375 C3084.750,636.836 3076.847,635.066 3065.370,635.066 L3065.370,714.693 C3076.534,714.693 3084.359,713.255 3088.841,710.379 C3093.323,707.504 3095.564,698.180 3095.564,682.400 L3095.564,662.714 ZM2765.316,573.798 L2930.912,573.798 L2930.912,645.462 L2864.626,645.462 L2864.626,713.365 L2926.666,713.365 L2926.666,781.490 L2864.626,781.490 L2864.626,860.232 L2937.517,860.232 L2937.517,931.895 L2765.316,931.895 L2765.316,573.798 ZM2655.273,906.238 C2648.506,917.297 2639.966,925.592 2629.660,931.121 C2619.351,936.651 2607.195,939.416 2593.189,939.416 C2576.503,939.416 2560.883,935.618 2546.328,928.025 C2531.769,920.432 2520.715,911.032 2513.159,899.824 C2505.603,888.619 2500.882,876.859 2498.995,864.545 C2497.108,852.235 2496.164,833.766 2496.164,809.138 L2496.164,702.749 C2496.164,668.541 2498.128,643.692 2502.061,628.210 C2505.990,612.727 2517.276,598.536 2535.912,585.632 C2554.547,572.730 2578.645,566.278 2608.212,566.278 C2637.304,566.278 2661.443,571.884 2680.631,583.088 C2699.816,594.296 2712.318,607.605 2718.138,623.012 C2723.954,638.422 2726.866,660.800 2726.866,690.141 L2726.866,705.624 L2627.555,705.624 L2627.555,673.110 C2627.555,652.616 2626.612,639.787 2624.725,634.624 C2622.838,629.464 2618.356,626.882 2611.279,626.882 C2605.146,626.882 2600.977,629.094 2598.777,633.518 C2596.573,637.942 2595.474,649.298 2595.474,667.580 L2595.474,839.440 C2595.474,855.514 2596.573,866.093 2598.777,871.180 C2600.977,876.268 2605.382,878.811 2611.987,878.811 C2619.218,878.811 2624.135,875.936 2626.730,870.185 C2629.325,864.434 2630.622,853.230 2630.622,836.565 L2630.622,794.098 L2610.571,794.098 L2610.571,739.686 L2726.866,739.686 L2726.866,931.895 L2664.458,931.895 L2655.273,906.238 ZM2368.311,812.898 C2368.311,793.731 2366.696,781.860 2363.475,777.288 C2360.250,772.719 2351.798,770.431 2338.117,770.431 L2338.117,931.895 L2238.806,931.895 L2238.806,573.798 L2309.102,573.798 C2355.963,573.798 2387.691,575.495 2404.284,578.885 C2420.874,582.279 2434.397,590.940 2444.858,604.875 C2455.314,618.809 2460.544,641.038 2460.544,671.562 C2460.544,699.431 2456.847,718.159 2449.457,727.742 C2442.064,737.329 2427.520,743.080 2405.818,744.995 C2425.474,749.567 2438.684,755.688 2445.447,763.353 C2452.207,771.022 2456.416,778.062 2458.068,784.476 C2459.719,790.891 2460.544,808.551 2460.544,837.450 L2460.544,931.895 L2368.311,931.895 L2368.311,812.898 ZM2368.311,662.714 C2368.311,651.361 2366.147,643.914 2361.824,640.375 C2357.497,636.836 2349.594,635.066 2338.117,635.066 L2338.117,714.693 C2349.281,714.693 2357.106,713.255 2361.588,710.379 C2366.070,707.504 2368.311,698.180 2368.311,682.400 L2368.311,662.714 ZM2180.777,904.137 C2171.496,915.714 2159.270,924.486 2144.096,930.458 C2128.918,936.430 2111.031,939.416 2090.431,939.416 C2067.627,939.416 2047.499,935.877 2030.043,928.799 C2012.587,921.721 1999.531,912.507 1990.885,901.151 C1982.234,889.798 1977.122,877.816 1975.552,865.208 C1973.978,852.601 1973.193,826.097 1973.193,785.693 L1973.193,573.798 L2072.503,573.798 L2072.503,842.316 C2072.503,857.947 2073.406,867.939 2075.216,872.286 C2077.022,876.637 2080.678,878.811 2086.185,878.811 C2092.473,878.811 2096.523,876.416 2098.333,871.623 C2100.139,866.833 2101.046,855.514 2101.046,837.671 L2101.046,573.798 L2200.356,573.798 L2200.356,813.120 C2200.356,840.253 2199.413,859.312 2197.525,870.296 C2195.638,881.282 2190.054,892.563 2180.777,904.137 ZM1901.954,925.478 C1889.057,929.756 1862.637,931.895 1822.694,931.895 L1707.815,931.895 L1707.815,573.798 L1806.889,573.798 C1838.182,573.798 1861.889,576.083 1878.011,580.651 C1894.129,585.220 1907.143,594.465 1917.051,608.389 C1926.958,622.317 1931.912,644.750 1931.912,675.695 C1931.912,696.621 1928.410,711.209 1921.415,719.462 C1914.415,727.715 1900.616,734.050 1880.016,738.470 C1902.974,743.339 1918.543,751.416 1926.722,762.703 C1934.897,773.991 1938.988,791.291 1938.988,814.602 L1938.988,847.797 C1938.988,871.996 1936.040,889.922 1930.143,901.576 C1924.245,913.233 1914.846,921.199 1901.954,925.478 ZM1836.376,645.572 C1834.172,641.076 1831.304,638.239 1827.766,637.057 C1824.227,635.878 1817.346,635.215 1807.125,635.066 L1807.125,714.693 C1811.371,714.547 1814.674,714.471 1817.033,714.471 C1826.782,714.471 1832.992,712.225 1835.668,707.725 C1838.340,703.229 1839.678,690.362 1839.678,669.129 C1839.678,657.924 1838.576,650.072 1836.376,645.572 ZM1839.678,803.830 C1839.678,788.496 1837.946,779.206 1834.489,775.961 C1831.028,772.719 1821.905,770.873 1807.125,770.431 L1807.125,870.627 C1821.120,870.185 1830.043,868.122 1833.899,864.434 C1837.751,860.750 1839.678,851.682 1839.678,837.229 L1839.678,803.830 Z" class="cls-7"/>
      <path d="M3120.859,1379.376 L3071.904,1199.795 L3071.904,1379.376 L2993.220,1379.376 L2993.220,984.347 L3071.904,984.347 L3124.659,1162.220 L3124.659,984.347 L3203.343,984.347 L3203.343,1379.376 L3120.859,1379.376 ZM2802.992,984.347 L2959.913,984.347 L2959.913,1063.402 L2897.100,1063.402 L2897.100,1138.308 L2955.890,1138.308 L2955.890,1213.459 L2897.100,1213.459 L2897.100,1300.321 L2966.172,1300.321 L2966.172,1379.376 L2802.992,1379.376 L2802.992,984.347 ZM2671.106,1213.459 L2642.941,1213.459 L2642.941,1379.376 L2548.833,1379.376 L2548.833,984.347 L2642.941,984.347 L2642.941,1125.620 L2671.106,1125.620 L2671.106,984.347 L2765.215,984.347 L2765.215,1379.376 L2671.106,1379.376 L2671.106,1213.459 ZM2472.049,1368.370 C2453.942,1381.237 2431.624,1387.672 2405.100,1387.672 C2377.528,1387.672 2354.805,1382.220 2336.922,1371.324 C2319.039,1360.428 2307.192,1345.339 2301.380,1326.063 C2295.568,1306.787 2292.662,1277.794 2292.662,1239.079 L2292.662,1123.669 C2292.662,1095.205 2293.556,1073.855 2295.344,1059.620 C2297.133,1045.388 2302.459,1031.682 2311.327,1018.506 C2320.192,1005.331 2332.486,994.961 2348.210,987.397 C2363.931,979.833 2381.999,976.051 2402.417,976.051 C2430.136,976.051 2453.010,981.899 2471.043,993.596 C2489.072,1005.292 2500.920,1019.875 2506.585,1037.336 C2512.246,1054.797 2515.079,1081.964 2515.079,1118.838 L2515.079,1156.364 L2420.971,1156.364 L2420.971,1087.706 C2420.971,1067.744 2419.965,1055.285 2417.953,1050.333 C2415.941,1045.384 2411.506,1042.906 2404.653,1042.906 C2396.902,1042.906 2391.985,1045.918 2389.900,1051.934 C2387.811,1057.954 2386.770,1070.965 2386.770,1090.973 L2386.770,1274.458 C2386.770,1293.653 2387.811,1306.177 2389.900,1312.033 C2391.985,1317.889 2396.679,1320.817 2403.982,1320.817 C2410.985,1320.817 2415.568,1317.885 2417.730,1312.014 C2419.888,1306.143 2420.971,1292.365 2420.971,1270.676 L2420.971,1221.023 L2515.079,1221.023 L2515.079,1236.417 C2515.079,1277.306 2512.432,1306.303 2507.144,1323.406 C2501.852,1340.512 2490.155,1355.499 2472.049,1368.370 ZM2218.001,1379.376 L2123.893,1379.376 L2123.893,1063.402 L2068.233,1063.402 L2068.233,984.347 L2273.885,984.347 L2273.885,1063.402 L2218.001,1063.402 L2218.001,1379.376 ZM1952.442,984.347 L2046.550,984.347 L2046.550,1379.376 L1952.442,1379.376 L1952.442,984.347 ZM1838.998,1379.376 L1800.885,1210.043 L1800.885,1379.376 L1706.777,1379.376 L1706.777,984.347 L1800.885,984.347 L1800.885,1137.820 L1842.798,984.347 L1931.094,984.347 L1877.111,1162.708 L1936.235,1379.376 L1838.998,1379.376 Z" class="cls-7"/>
      <path d="M1697.719,1444.205 L3220.293,1444.205 L3220.293,1496.000 L1697.719,1496.000 L1697.719,1444.205 Z" class="cls-8"/>
      <path d="M1699.338,104.000 L3221.913,104.000 L3221.913,155.795 L1699.338,155.795 L1699.338,104.000 Z" class="cls-8"/>
    </g>
    <path d="M4530.132,817.931 C4524.029,831.034 4515.402,842.182 4504.253,851.378 C4493.185,860.655 4480.328,867.756 4465.679,872.679 C4451.031,877.604 4434.875,880.064 4417.217,880.064 L4326.885,880.064 L4328.960,871.153 C4330.996,871.073 4334.026,870.808 4338.055,870.360 C4342.083,869.913 4345.074,869.364 4347.027,868.712 C4350.201,867.655 4352.621,866.026 4354.290,863.829 C4355.957,861.632 4357.117,859.110 4357.769,856.261 L4385.763,735.167 C4386.169,733.458 4386.454,732.035 4386.618,730.894 C4386.780,729.756 4386.862,728.901 4386.862,728.331 C4386.862,724.913 4385.132,722.248 4381.674,720.335 C4378.214,718.424 4372.580,716.898 4364.767,715.758 L4366.842,706.847 L4455.568,706.847 C4464.682,706.847 4474.058,707.926 4483.700,710.081 C4493.340,712.239 4502.228,715.840 4510.365,720.885 C4519.394,726.500 4526.472,733.845 4531.599,742.918 C4536.724,751.993 4539.288,762.715 4539.288,775.084 C4539.288,790.547 4536.236,804.829 4530.132,817.931 ZM4480.433,731.322 C4473.259,722.004 4462.458,717.345 4448.031,717.345 C4445.177,717.345 4442.343,717.406 4439.531,717.528 C4436.720,717.650 4434.498,717.753 4432.869,717.833 L4402.948,847.813 C4402.622,849.051 4402.338,850.544 4402.094,852.293 C4401.850,854.044 4401.728,855.284 4401.728,856.016 C4401.728,861.143 4403.622,864.683 4407.410,866.637 C4411.198,868.590 4416.515,869.566 4423.359,869.566 C4434.441,869.566 4444.279,866.637 4452.875,860.777 C4461.472,854.918 4468.580,847.147 4474.203,837.462 C4479.988,827.616 4484.266,816.893 4487.036,805.296 C4489.805,793.700 4491.192,781.596 4491.192,768.980 C4491.192,753.193 4487.604,740.641 4480.433,731.322 ZM4480.022,456.407 C4479.696,453.641 4479.065,450.181 4478.130,446.031 C4477.194,441.881 4475.912,437.772 4474.285,433.702 C4472.576,429.471 4470.724,425.972 4468.731,423.204 C4466.736,420.438 4464.355,418.809 4461.590,418.321 C4459.148,417.997 4456.038,417.711 4452.253,417.467 C4448.469,417.222 4445.192,417.100 4442.427,417.100 L4436.323,417.100 L4405.199,551.746 C4404.873,553.129 4404.608,554.451 4404.406,555.711 C4404.202,556.974 4404.100,557.889 4404.100,558.458 C4404.100,560.411 4404.486,562.141 4405.260,563.646 C4406.033,565.153 4407.476,566.352 4409.594,567.247 C4411.547,568.061 4414.394,568.855 4418.139,569.627 C4421.881,570.402 4424.974,570.909 4427.416,571.153 L4425.341,580.064 L4328.777,580.064 L4330.853,571.153 C4333.130,570.991 4336.468,570.665 4340.862,570.177 C4345.257,569.688 4348.389,569.120 4350.262,568.468 C4353.516,567.167 4355.957,565.416 4357.586,563.219 C4359.213,561.021 4360.352,558.418 4361.004,555.406 L4392.975,417.100 L4388.214,417.100 C4385.122,417.100 4382.010,417.203 4378.878,417.406 C4375.746,417.610 4372.185,417.915 4368.198,418.321 C4365.269,418.729 4361.994,420.478 4358.374,423.570 C4354.754,426.664 4351.234,430.040 4347.817,433.702 C4343.748,438.261 4340.391,442.390 4337.748,446.092 C4335.104,449.796 4332.846,453.233 4330.975,456.407 L4321.575,456.407 L4333.050,406.847 L4500.896,406.847 L4489.422,456.407 L4480.022,456.407 ZM4323.162,815.672 C4317.669,829.304 4309.958,841.166 4300.030,851.256 C4289.856,861.592 4277.893,869.770 4264.141,875.792 C4250.387,881.813 4234.802,884.825 4217.388,884.825 C4194.601,884.825 4175.884,878.254 4161.236,865.111 C4146.587,851.969 4139.263,834.776 4139.263,813.536 C4139.263,798.075 4142.233,783.528 4148.174,769.896 C4154.114,756.266 4162.334,744.364 4172.833,734.190 C4183.086,724.181 4195.110,716.328 4208.904,710.631 C4222.698,704.935 4237.244,702.086 4252.544,702.086 C4275.494,702.086 4294.373,708.515 4309.185,721.373 C4323.996,734.232 4331.402,751.524 4331.402,773.253 C4331.402,787.901 4328.655,802.042 4323.162,815.672 ZM4275.372,726.256 C4269.674,717.711 4261.169,713.438 4249.859,713.438 C4239.929,713.438 4231.039,716.776 4223.187,723.448 C4215.332,730.122 4208.721,738.789 4203.350,749.449 C4197.979,760.111 4193.869,772.154 4191.021,785.582 C4188.171,799.010 4186.749,812.357 4186.749,825.621 C4186.749,840.025 4189.596,851.603 4195.293,860.350 C4200.989,869.099 4209.534,873.472 4220.928,873.472 C4230.774,873.472 4239.706,870.055 4247.723,863.219 C4255.737,856.383 4262.350,847.716 4267.559,837.218 C4273.092,825.987 4277.203,813.761 4279.888,800.535 C4282.574,787.312 4283.917,774.271 4283.917,761.412 C4283.917,746.519 4281.067,734.801 4275.372,726.256 ZM4287.762,465.929 C4286.703,458.995 4285.177,452.470 4283.184,446.352 C4281.189,440.233 4278.442,434.726 4274.944,429.832 C4271.526,425.102 4267.273,421.329 4262.188,418.514 C4257.101,415.700 4250.977,414.293 4243.816,414.293 C4233.887,414.293 4225.607,417.066 4218.975,422.611 C4212.341,428.155 4209.026,435.127 4209.026,443.523 C4209.026,449.390 4211.020,454.525 4215.008,458.925 C4218.994,463.325 4225.302,467.155 4233.929,470.415 C4238.974,472.290 4244.263,474.226 4249.798,476.221 C4255.331,478.218 4260.620,480.276 4265.667,482.393 C4275.106,486.305 4282.553,491.622 4288.006,498.344 C4293.457,505.067 4296.185,513.032 4296.185,522.241 C4296.185,530.962 4294.189,539.150 4290.203,546.810 C4286.215,554.470 4280.640,561.071 4273.479,566.612 C4265.911,572.479 4257.080,576.982 4246.990,580.120 C4236.898,583.255 4225.790,584.825 4213.665,584.825 C4204.062,584.825 4194.397,583.633 4184.673,581.253 C4174.948,578.872 4166.424,575.628 4159.100,571.519 L4148.602,580.064 L4138.226,580.064 L4151.165,517.442 L4161.663,517.442 C4162.640,523.561 4164.429,529.903 4167.034,536.468 C4169.638,543.033 4173.016,548.885 4177.166,554.023 C4181.234,559.326 4186.401,563.730 4192.669,567.235 C4198.935,570.743 4206.097,572.496 4214.153,572.496 C4225.952,572.496 4235.394,569.623 4242.474,563.875 C4249.554,558.126 4253.094,550.563 4253.094,541.187 C4253.094,535.158 4251.080,529.861 4247.051,525.297 C4243.023,520.734 4236.532,516.822 4227.581,513.563 C4221.884,511.526 4216.370,509.550 4211.041,507.635 C4205.709,505.720 4200.644,503.744 4195.843,501.705 C4186.321,497.713 4179.159,492.029 4174.358,484.655 C4169.556,477.281 4167.156,469.436 4167.156,461.124 C4167.156,453.464 4168.905,446.111 4172.405,439.062 C4175.903,432.012 4180.950,425.718 4187.542,420.177 C4193.970,414.718 4201.925,410.337 4211.407,407.037 C4220.886,403.738 4231.283,402.086 4242.596,402.086 C4252.035,402.086 4261.395,403.463 4270.672,406.217 C4279.949,408.971 4286.785,411.623 4291.180,414.171 L4300.335,406.847 L4310.955,406.847 L4298.260,465.929 L4287.762,465.929 ZM4155.254,417.406 C4150.656,418.260 4146.566,419.746 4142.986,421.861 C4139.404,423.896 4136.374,427.619 4133.892,433.031 C4131.409,438.444 4128.950,446.317 4126.516,456.651 L4111.546,521.715 C4106.823,541.898 4096.912,557.462 4081.810,568.407 C4066.708,579.353 4048.534,584.825 4027.287,584.825 C4006.119,584.825 3989.899,580.736 3978.624,572.557 C3967.348,564.378 3961.712,552.843 3961.712,537.950 C3961.712,535.347 3961.874,532.722 3962.200,530.076 C3962.524,527.433 3963.013,524.564 3963.665,521.471 L3983.673,434.923 C3984.079,433.214 3984.364,431.871 3984.528,430.894 C3984.692,429.918 3984.774,429.063 3984.774,428.331 C3984.774,424.913 3983.145,422.269 3979.889,420.396 C3976.633,418.525 3970.978,416.978 3962.921,415.758 L3964.996,406.847 L4057.837,406.847 L4055.761,415.758 C4053.076,415.922 4050.146,416.267 4046.972,416.797 C4043.798,417.327 4041.113,417.917 4038.916,418.567 C4035.578,419.546 4033.136,421.155 4031.591,423.395 C4030.045,425.634 4028.946,428.184 4028.296,431.041 L4008.555,516.445 C4007.740,519.851 4007.090,523.551 4006.601,527.542 C4006.113,531.532 4005.869,534.872 4005.869,537.559 C4005.869,548.067 4008.877,555.824 4014.895,560.832 C4020.910,565.841 4029.692,568.346 4041.237,568.346 C4055.222,568.346 4067.314,563.684 4077.518,554.357 C4087.721,545.032 4094.568,532.672 4098.061,517.280 L4111.706,457.906 C4112.843,452.857 4113.674,448.541 4114.203,444.957 C4114.729,441.373 4114.994,438.360 4114.994,435.915 C4114.994,432.821 4114.647,430.257 4113.956,428.220 C4113.264,426.183 4112.267,424.554 4110.966,423.332 C4108.931,421.459 4105.574,419.811 4100.895,418.384 C4096.214,416.959 4092.817,416.084 4090.702,415.758 L4092.777,406.847 L4167.889,406.847 L4165.813,415.758 C4163.372,416.002 4159.851,416.551 4155.254,417.406 ZM3942.974,416.980 C3939.514,417.633 3936.768,418.243 3934.734,418.811 C3931.316,419.872 3928.875,421.419 3927.410,423.454 C3925.945,425.491 3924.805,428.096 3923.992,431.272 L3901.768,527.410 C3899.572,536.777 3896.015,545.064 3891.098,552.270 C3886.179,559.478 3880.508,565.443 3874.088,570.165 C3867.746,574.808 3860.836,578.413 3853.357,580.978 C3845.877,583.541 3838.318,584.825 3830.677,584.825 C3815.393,584.825 3803.219,581.203 3794.155,573.961 C3785.093,566.719 3780.560,556.831 3780.560,544.298 C3780.560,536.567 3782.799,530.159 3787.273,525.072 C3791.748,519.987 3797.730,517.442 3805.218,517.442 C3812.460,517.442 3818.075,519.502 3822.063,523.620 C3826.050,527.740 3828.045,532.897 3828.045,539.096 C3828.045,542.358 3827.271,545.539 3825.726,548.639 C3824.179,551.738 3821.453,555.122 3817.547,558.792 L3809.979,565.887 L3809.979,567.478 C3810.707,569.437 3812.290,570.926 3814.726,571.945 C3817.160,572.963 3819.635,573.472 3822.153,573.472 C3830.593,573.472 3837.795,569.908 3843.761,562.776 C3849.728,555.645 3854.292,545.059 3857.458,531.019 L3879.612,435.182 C3880.018,433.481 3880.302,432.060 3880.466,430.919 C3880.631,429.779 3880.713,428.922 3880.713,428.350 C3880.713,424.928 3878.941,422.258 3875.401,420.343 C3871.861,418.428 3866.184,416.898 3858.372,415.758 L3860.447,406.847 L3954.021,406.847 L3951.946,415.758 C3949.423,415.922 3946.432,416.328 3942.974,416.980 ZM3846.783,702.086 C3856.628,702.086 3866.415,703.301 3876.141,705.727 C3885.864,708.153 3893.169,710.764 3898.052,713.560 L3907.085,706.847 L3917.706,706.847 L3904.278,770.079 L3893.536,770.079 C3891.745,751.280 3886.719,737.141 3878.460,727.660 C3870.199,718.180 3859.518,713.438 3846.417,713.438 C3835.999,713.438 3826.721,716.532 3818.584,722.716 C3810.446,728.901 3803.570,736.918 3797.955,746.764 C3792.419,756.367 3788.128,767.821 3785.076,781.126 C3782.024,794.432 3780.499,807.555 3780.499,820.494 C3780.499,836.607 3783.659,849.406 3789.980,858.885 C3796.301,868.367 3805.620,873.106 3817.938,873.106 C3824.625,873.106 3830.416,872.008 3835.310,869.810 C3840.204,867.613 3844.526,864.928 3848.280,861.754 L3855.881,828.673 C3856.201,827.208 3856.463,825.846 3856.665,824.583 C3856.865,823.323 3856.966,822.325 3856.966,821.593 C3856.966,818.175 3854.845,815.510 3850.605,813.597 C3846.363,811.686 3840.328,810.160 3832.500,809.019 L3834.576,800.108 L3928.326,800.108 L3926.250,809.019 C3923.727,809.183 3920.797,809.590 3917.461,810.240 C3914.124,810.892 3911.438,811.503 3909.405,812.071 C3905.987,813.130 3903.503,814.778 3901.958,817.015 C3900.412,819.254 3899.313,821.715 3898.663,824.400 L3893.780,845.518 C3892.965,849.100 3892.294,852.335 3891.766,855.223 C3891.235,858.113 3890.686,861.225 3890.118,864.561 C3880.758,869.932 3868.368,874.653 3852.947,878.722 C3837.524,882.790 3823.345,884.825 3810.406,884.825 C3799.337,884.825 3789.084,883.257 3779.644,880.123 C3770.203,876.988 3761.984,872.366 3754.986,866.257 C3747.906,860.150 3742.392,852.700 3738.445,843.905 C3734.497,835.110 3732.525,825.215 3732.525,814.221 C3732.525,797.936 3735.394,782.973 3741.131,769.331 C3746.868,755.690 3754.864,743.820 3765.118,733.723 C3775.208,723.790 3787.273,716.032 3801.312,710.453 C3815.350,704.876 3830.505,702.086 3846.783,702.086 ZM3743.328,1170.238 C3747.356,1169.709 3750.347,1169.120 3752.300,1168.468 C3755.474,1167.411 3757.895,1165.824 3759.563,1163.707 C3761.230,1161.592 3762.390,1159.110 3763.042,1156.261 L3791.037,1035.167 C3791.443,1033.458 3791.727,1032.035 3791.891,1030.894 C3792.053,1029.756 3792.135,1028.901 3792.135,1028.331 C3792.135,1024.913 3790.405,1022.248 3786.947,1020.335 C3783.487,1018.424 3777.853,1016.898 3770.041,1015.758 L3772.116,1006.846 L3927.837,1006.846 L3917.095,1053.111 L3907.696,1053.111 C3906.799,1045.487 3904.177,1037.986 3899.824,1030.604 C3895.472,1023.225 3890.896,1019.210 3886.097,1018.561 C3883.656,1018.237 3880.461,1017.955 3876.516,1017.711 C3872.570,1017.467 3868.889,1017.345 3865.473,1017.345 L3838.505,1017.345 L3822.590,1086.192 L3839.809,1086.192 C3844.286,1086.192 3848.499,1085.624 3852.448,1084.483 C3856.396,1083.345 3860.203,1081.269 3863.867,1078.258 C3866.390,1076.224 3869.158,1072.846 3872.171,1068.126 C3875.183,1063.407 3877.300,1059.297 3878.521,1055.797 L3887.676,1055.797 L3870.831,1128.673 L3861.675,1128.673 L3861.675,1124.888 C3861.675,1120.658 3861.248,1116.609 3860.394,1112.742 C3859.539,1108.878 3858.624,1106.254 3857.647,1104.869 C3855.692,1102.021 3853.107,1099.946 3849.892,1098.643 C3846.676,1097.343 3842.506,1096.690 3837.379,1096.690 L3820.164,1096.690 L3807.266,1152.484 C3806.940,1153.863 3806.675,1155.162 3806.473,1156.383 C3806.269,1157.603 3806.168,1158.540 3806.168,1159.190 C3806.168,1162.852 3807.673,1165.538 3810.684,1167.247 C3813.694,1168.956 3819.431,1170.259 3827.896,1171.153 L3825.821,1180.064 L3732.159,1180.064 L3734.234,1171.153 C3736.269,1171.073 3739.300,1170.768 3743.328,1170.238 ZM3950.909,1034.190 C3961.163,1024.180 3973.187,1016.328 3986.980,1010.631 C4000.774,1004.935 4015.320,1002.086 4030.621,1002.086 C4053.570,1002.086 4072.449,1008.515 4087.261,1021.373 C4102.072,1034.232 4109.478,1051.524 4109.478,1073.253 C4109.478,1087.901 4106.731,1102.042 4101.238,1115.672 C4095.745,1129.304 4088.034,1141.166 4078.106,1151.256 C4067.932,1161.592 4055.969,1169.770 4042.217,1175.792 C4028.463,1181.813 4012.878,1184.825 3995.464,1184.825 C3972.677,1184.825 3953.960,1178.254 3939.312,1165.111 C3924.664,1151.969 3917.339,1134.776 3917.339,1113.536 C3917.339,1098.075 3920.309,1083.528 3926.250,1069.896 C3932.190,1056.266 3940.411,1044.364 3950.909,1034.190 ZM3973.370,1160.350 C3979.065,1169.099 3987.610,1173.472 3999.004,1173.472 C4008.850,1173.472 4017.782,1170.054 4025.799,1163.219 C4033.814,1156.383 4040.426,1147.716 4045.635,1137.218 C4051.168,1125.987 4055.279,1113.761 4057.964,1100.535 C4060.650,1087.312 4061.993,1074.271 4061.993,1061.412 C4061.993,1046.519 4059.143,1034.801 4053.448,1026.256 C4047.750,1017.711 4039.246,1013.438 4027.935,1013.438 C4018.005,1013.438 4009.115,1016.776 4001.263,1023.448 C3993.408,1030.122 3986.797,1038.789 3981.426,1049.449 C3976.055,1060.111 3971.945,1072.154 3969.097,1085.582 C3966.248,1099.010 3964.825,1112.357 3964.825,1125.621 C3964.825,1140.025 3967.672,1151.603 3973.370,1160.350 ZM4059.185,875.792 C4045.431,881.813 4029.846,884.825 4012.432,884.825 C3989.645,884.825 3970.928,878.254 3956.280,865.111 C3941.631,851.969 3934.307,834.776 3934.307,813.536 C3934.307,798.075 3937.277,783.528 3943.218,769.896 C3949.158,756.266 3957.378,744.364 3967.876,734.190 C3978.130,724.181 3990.154,716.328 4003.948,710.631 C4017.742,704.935 4032.288,702.086 4047.588,702.086 C4070.538,702.086 4089.417,708.515 4104.229,721.373 C4119.040,734.232 4126.446,751.524 4126.446,773.253 C4126.446,787.901 4123.699,802.042 4118.206,815.672 C4112.713,829.304 4105.001,841.166 4095.074,851.256 C4084.900,861.592 4072.937,869.770 4059.185,875.792 ZM4070.416,726.256 C4064.718,717.711 4056.213,713.438 4044.903,713.438 C4034.973,713.438 4026.083,716.776 4018.230,723.448 C4010.376,730.122 4003.765,738.789 3998.394,749.449 C3993.023,760.111 3988.913,772.154 3986.065,785.582 C3983.215,799.010 3981.792,812.357 3981.792,825.621 C3981.792,840.025 3984.640,851.603 3990.337,860.350 C3996.033,869.099 4004.578,873.472 4015.972,873.472 C4025.818,873.472 4034.750,870.055 4042.767,863.219 C4050.781,856.383 4057.394,847.716 4062.603,837.218 C4068.136,825.987 4072.247,813.761 4074.932,800.535 C4077.618,787.312 4078.960,774.271 4078.960,761.412 C4078.960,746.519 4076.111,734.801 4070.416,726.256 ZM4155.865,1034.190 C4166.119,1024.180 4178.143,1016.328 4191.937,1010.631 C4205.730,1004.935 4220.276,1002.086 4235.577,1002.086 C4258.526,1002.086 4277.405,1008.515 4292.217,1021.373 C4307.028,1034.232 4314.434,1051.524 4314.434,1073.253 C4314.434,1087.901 4311.687,1102.042 4306.194,1115.672 C4300.701,1129.304 4292.990,1141.166 4283.062,1151.256 C4272.888,1161.592 4260.925,1169.770 4247.173,1175.792 C4233.419,1181.813 4217.834,1184.825 4200.420,1184.825 C4177.633,1184.825 4158.917,1178.254 4144.268,1165.111 C4129.620,1151.969 4122.295,1134.776 4122.295,1113.536 C4122.295,1098.075 4125.265,1083.528 4131.207,1069.896 C4137.146,1056.266 4145.367,1044.364 4155.865,1034.190 ZM4178.326,1160.350 C4184.021,1169.099 4192.566,1173.472 4203.960,1173.472 C4213.806,1173.472 4222.738,1170.054 4230.755,1163.219 C4238.770,1156.383 4245.382,1147.716 4250.591,1137.218 C4256.125,1125.987 4260.235,1113.761 4262.920,1100.535 C4265.606,1087.312 4266.949,1074.271 4266.949,1061.412 C4266.949,1046.519 4264.099,1034.801 4258.404,1026.256 C4252.707,1017.711 4244.202,1013.438 4232.891,1013.438 C4222.961,1013.438 4214.071,1016.776 4206.219,1023.448 C4198.364,1030.122 4191.753,1038.789 4186.382,1049.449 C4181.011,1060.111 4176.901,1072.154 4174.053,1085.582 C4171.204,1099.010 4169.781,1112.357 4169.781,1125.621 C4169.781,1140.025 4172.628,1151.603 4178.326,1160.350 ZM4321.087,1170.360 C4325.115,1169.913 4328.106,1169.364 4330.059,1168.712 C4333.233,1167.655 4335.653,1166.026 4337.322,1163.829 C4338.989,1161.632 4340.149,1159.110 4340.801,1156.261 L4368.795,1035.167 C4369.202,1033.458 4369.486,1032.035 4369.650,1030.894 C4369.812,1029.756 4369.894,1028.901 4369.894,1028.331 C4369.894,1024.913 4368.164,1022.248 4364.706,1020.335 C4361.246,1018.424 4355.612,1016.898 4347.799,1015.758 L4349.875,1006.846 L4438.601,1006.846 C4447.714,1006.846 4457.090,1007.926 4466.732,1010.081 C4476.372,1012.239 4485.260,1015.840 4493.397,1020.885 C4502.426,1026.500 4509.504,1033.845 4514.631,1042.918 C4519.756,1051.993 4522.320,1062.715 4522.320,1075.084 C4522.320,1090.547 4519.268,1104.829 4513.165,1117.930 C4507.061,1131.034 4498.434,1142.182 4487.286,1151.378 C4476.217,1160.655 4463.360,1167.756 4448.711,1172.679 C4434.063,1177.604 4417.908,1180.064 4400.250,1180.064 L4309.917,1180.064 L4311.993,1171.153 C4314.028,1171.073 4317.059,1170.808 4321.087,1170.360 ZM4390.442,1166.637 C4394.230,1168.590 4399.548,1169.566 4406.391,1169.566 C4417.473,1169.566 4427.311,1166.637 4435.907,1160.777 C4444.504,1154.918 4451.612,1147.147 4457.235,1137.462 C4463.020,1127.616 4467.299,1116.893 4470.068,1105.296 C4472.837,1093.700 4474.224,1081.596 4474.224,1068.980 C4474.224,1053.193 4470.636,1040.641 4463.465,1031.322 C4456.291,1022.004 4445.490,1017.345 4431.063,1017.345 C4428.209,1017.345 4425.375,1017.406 4422.564,1017.528 C4419.752,1017.650 4417.530,1017.753 4415.901,1017.833 L4385.981,1147.813 C4385.654,1149.051 4385.370,1150.544 4385.126,1152.293 C4384.882,1154.044 4384.760,1155.284 4384.760,1156.016 C4384.760,1161.143 4386.654,1164.683 4390.442,1166.637 Z" class="cls-7"/>
  </g>
  <rect width="5000" height="1600" class="cls-9"/>
</svg>
