<svg xmlns="http://www.w3.org/2000/svg" xmlns:xlink="http://www.w3.org/1999/xlink" preserveAspectRatio="xMidYMid" width="5000" height="1600" viewBox="0 0 5000 1600">
  <defs>
    <style>
      .cls-1 {
        fill: #a5f8f5;
      }

      .cls-2 {
        fill: #757575;
      }

      .cls-3 {
        fill: #36d139;
      }

      .cls-3, .cls-4 {
        fill-rule: evenodd;
      }

      .cls-4 {
        fill: #000;
      }

      .cls-5 {
        stroke: #36d139;
        stroke-width: 30px;
        fill: none;
      }
    </style>
  </defs>
  <rect x="-28" y="-40" width="5248" height="1768" class="cls-1"/>
  <g>
    <g>
      <g>
        <rect x="288" y="1184" width="330" height="152" class="cls-2"/>
        <rect x="632" y="1184" width="330" height="152" class="cls-2"/>
        <rect x="976" y="1184" width="330" height="152" class="cls-2"/>
      </g>
      <g>
        <rect x="286" y="512" width="330" height="152" class="cls-2"/>
        <rect x="630" y="512" width="330" height="152" class="cls-2"/>
        <rect x="974" y="512" width="330" height="152" class="cls-2"/>
      </g>
      <g>
        <rect x="288" y="848" width="330" height="152" class="cls-2"/>
        <rect x="632" y="848" width="330" height="152" class="cls-2"/>
        <rect x="976" y="848" width="330" height="152" class="cls-2"/>
      </g>
      <g>
        <rect x="797" y="1016" width="330" height="152" class="cls-2"/>
        <rect x="449" y="1016" width="330" height="152" class="cls-2"/>
        <rect x="288" y="1016" width="146" height="152" class="cls-2"/>
        <rect x="1144" y="1016" width="160" height="152" class="cls-2"/>
      </g>
      <g>
        <rect x="795" y="344" width="330" height="152" class="cls-2"/>
        <rect x="447" y="344" width="330" height="152" class="cls-2"/>
        <rect x="286" y="344" width="146" height="152" class="cls-2"/>
        <rect x="1142" y="344" width="160" height="152" class="cls-2"/>
      </g>
      <g>
        <rect x="797" y="680" width="330" height="152" class="cls-2"/>
        <rect x="449" y="680" width="330" height="152" class="cls-2"/>
        <rect x="288" y="680" width="146" height="152" class="cls-2"/>
        <rect x="1144" y="680" width="160" height="152" class="cls-2"/>
      </g>
      <g>
        <rect x="288" y="176" width="250" height="152" class="cls-2"/>
        <rect x="1052" y="176" width="250" height="152" class="cls-2"/>
        <rect x="666" y="176" width="250" height="152" class="cls-2"/>
      </g>
      <rect x="618" y="847" width="360" height="1260" rx="150" ry="150" class="cls-1"/>
      <path d="M338.000,1336.000 L1278.000,1336.000 C1419.385,1336.000 1534.000,1450.615 1534.000,1592.000 C1534.000,1733.385 1419.385,1848.000 1278.000,1848.000 L338.000,1848.000 C196.615,1848.000 82.000,1733.385 82.000,1592.000 C82.000,1450.615 196.615,1336.000 338.000,1336.000 Z" class="cls-3"/>
      <rect x="2" y="1440" width="1600" height="512" class="cls-1"/>
    </g>
    <g>
      <path d="M4887.182,496.986 C4866.483,510.471 4830.879,524.237 4780.371,538.287 C4781.127,559.934 4786.254,576.454 4795.752,587.847 C4804.105,597.914 4814.644,602.943 4827.368,602.943 C4844.075,602.943 4861.263,596.868 4878.922,584.714 C4885.375,580.348 4890.409,579.018 4894.018,580.727 C4898.006,583.388 4900.000,586.708 4900.000,590.696 C4900.000,593.735 4898.575,596.490 4895.727,598.956 C4867.431,620.986 4839.615,631.996 4812.272,631.996 C4762.142,631.996 4737.076,603.419 4737.076,546.262 C4737.076,503.537 4749.511,468.410 4774.389,440.875 C4797.932,414.670 4826.131,401.568 4858.984,401.568 C4899.430,401.568 4919.653,416.192 4919.653,445.432 C4919.653,465.753 4908.829,482.936 4887.182,496.986 ZM4865.677,433.611 C4860.074,427.821 4852.811,424.924 4843.888,424.924 C4828.316,424.924 4814.551,433.282 4802.588,449.989 C4789.672,468.031 4782.458,491.388 4780.940,520.058 C4817.016,508.477 4841.560,498.175 4854.569,489.153 C4867.573,480.137 4874.080,469.073 4874.080,455.971 C4874.080,446.856 4871.276,439.406 4865.677,433.611 ZM4651.343,532.875 C4643.937,571.234 4640.234,591.078 4640.234,592.405 C4640.234,597.532 4643.746,600.095 4650.773,600.095 C4656.848,600.095 4666.910,591.550 4680.965,574.460 C4681.535,574.082 4682.198,573.891 4682.959,573.891 C4684.855,573.891 4686.804,575.030 4688.798,577.309 C4690.792,579.587 4691.789,581.772 4691.789,583.860 C4691.789,584.812 4691.504,585.475 4690.934,585.853 C4665.869,616.237 4644.124,631.426 4625.708,631.426 C4607.096,631.426 4597.794,624.497 4597.794,610.634 C4597.794,601.141 4601.875,575.221 4610.042,532.875 C4624.284,459.010 4639.188,373.468 4654.760,276.242 C4656.848,263.332 4655.330,256.874 4650.203,256.874 C4645.455,256.874 4632.259,259.629 4610.612,265.134 C4606.241,266.273 4604.061,262.668 4604.061,254.310 C4604.061,252.032 4604.630,250.608 4605.770,250.038 C4646.216,231.431 4671.752,222.125 4682.389,222.125 C4696.248,222.125 4703.182,228.489 4703.182,241.208 C4703.182,242.730 4702.990,244.341 4702.612,246.050 C4682.104,366.062 4665.014,461.667 4651.343,532.875 ZM4527.726,436.033 L4490.413,433.184 C4486.995,453.314 4482.625,476.478 4477.311,502.683 C4468.383,546.930 4463.924,575.506 4463.924,588.417 C4463.924,598.101 4468.383,602.943 4477.311,602.943 C4490.792,602.943 4507.975,593.166 4528.865,573.606 C4529.052,573.419 4529.244,573.321 4529.435,573.321 C4530.761,573.321 4532.613,574.794 4534.989,577.736 C4537.361,580.682 4538.550,583.103 4538.550,584.999 C4538.550,585.760 4538.358,586.330 4537.980,586.708 C4510.253,616.522 4483.292,631.426 4457.088,631.426 C4432.971,631.426 4420.915,620.794 4420.915,599.525 C4420.915,593.072 4424.235,570.855 4430.884,532.875 C4434.110,513.698 4439.900,482.745 4448.258,440.020 C4449.398,433.754 4446.264,430.527 4438.859,430.336 L4423.193,429.766 C4419.206,429.579 4417.684,427.016 4418.636,422.076 C4419.775,414.670 4430.216,410.967 4449.967,410.967 L4452.246,410.967 C4456.234,394.260 4458.227,383.339 4458.227,378.212 C4459.367,370.428 4462.785,362.644 4468.481,354.856 C4474.178,347.072 4479.875,342.038 4485.571,339.760 C4492.216,337.294 4497.534,336.342 4501.522,336.911 C4505.509,337.481 4507.218,339.381 4506.649,342.608 C4504.370,357.802 4500.097,380.397 4493.831,410.398 L4547.379,409.828 C4551.554,409.828 4554.024,411.252 4554.785,414.101 C4554.972,415.431 4554.687,418.849 4553.930,424.354 C4552.600,433.469 4543.864,437.363 4527.726,436.033 ZM4368.506,453.977 C4366.797,458.347 4363.851,460.528 4359.676,460.528 C4352.649,460.528 4346.191,456.069 4340.308,447.141 C4330.054,431.190 4315.906,423.215 4297.868,423.215 C4287.422,423.215 4278.971,425.970 4272.518,431.475 C4266.821,436.602 4263.973,442.584 4263.973,449.420 C4263.973,458.347 4267.484,466.322 4274.512,473.345 C4277.360,476.194 4284.574,481.703 4296.159,489.866 C4321.411,507.525 4337.646,520.342 4344.865,528.318 C4353.597,538.002 4357.967,549.302 4357.967,562.213 C4357.967,583.290 4349.516,600.380 4332.617,613.482 C4315.714,626.584 4293.595,633.135 4266.251,633.135 C4221.248,633.135 4198.747,622.312 4198.747,600.665 C4198.747,578.448 4202.828,567.339 4210.994,567.339 C4219.726,567.339 4227.132,572.564 4233.211,583.005 C4243.843,601.804 4259.318,611.203 4279.639,611.203 C4303.751,611.203 4315.812,601.617 4315.812,582.435 C4315.812,573.512 4313.533,566.058 4308.976,560.076 C4304.419,554.095 4294.828,546.169 4280.208,536.293 C4258.561,521.673 4243.937,509.853 4236.344,500.831 C4228.747,491.815 4224.951,481.512 4224.951,469.927 C4224.951,450.372 4232.971,433.994 4249.019,420.794 C4265.063,407.598 4285.050,400.998 4308.976,400.998 C4355.306,400.998 4377.051,409.543 4374.202,426.633 C4371.924,441.257 4370.023,450.372 4368.506,453.977 ZM4109.594,630.857 C4092.505,630.857 4083.960,621.934 4083.960,604.083 C4083.960,591.363 4086.047,573.512 4090.226,550.534 C4090.604,548.639 4090.128,547.593 4088.802,547.401 C4087.280,547.214 4086.047,548.069 4085.099,549.965 C4052.059,605.792 4019.205,633.705 3986.548,633.705 C3953.507,633.705 3936.987,615.289 3936.987,578.448 C3936.987,532.875 3954.647,491.672 3989.966,454.831 C4022.436,421.413 4054.716,404.701 4086.808,404.701 C4096.679,404.701 4107.125,406.601 4118.139,410.398 C4120.988,411.350 4124.308,409.641 4128.109,405.271 C4134.375,398.248 4139.595,394.732 4143.774,394.732 C4145.862,394.732 4148.234,395.493 4150.895,397.011 C4153.552,398.533 4154.785,400.620 4154.598,403.277 C4154.406,405.747 4152.791,411.444 4149.756,420.367 C4131.905,472.019 4122.982,522.719 4122.982,572.466 C4122.982,590.509 4125.923,599.525 4131.811,599.525 C4137.695,599.525 4147.762,590.887 4162.003,573.606 C4162.573,573.419 4163.045,573.321 4163.427,573.321 C4165.136,573.321 4167.032,574.509 4169.124,576.881 C4171.211,579.258 4172.257,581.394 4172.257,583.290 C4172.257,584.051 4172.159,584.527 4171.972,584.714 C4149.564,615.476 4128.772,630.857 4109.594,630.857 ZM4063.452,432.615 C4045.410,432.615 4027.087,445.147 4008.480,470.212 C3988.729,496.799 3978.857,525.469 3978.857,556.231 C3978.857,583.005 3988.729,596.392 4008.480,596.392 C4027.465,596.392 4047.310,578.354 4068.009,542.274 C4086.047,511.326 4095.068,485.023 4095.068,463.376 C4095.068,442.868 4084.530,432.615 4063.452,432.615 ZM3878.597,360.837 C3871.761,361.220 3867.867,358.843 3866.919,353.716 C3860.839,324.855 3850.585,304.062 3836.157,291.339 C3821.155,278.236 3799.507,271.685 3771.216,271.685 C3725.260,271.685 3686.429,290.297 3654.720,327.512 C3622.249,365.679 3606.014,413.722 3606.014,471.636 C3606.014,513.983 3616.931,547.784 3638.769,573.036 C3661.365,599.241 3692.696,612.343 3732.763,612.343 C3790.108,612.343 3831.885,580.255 3858.089,516.070 C3860.746,509.617 3864.542,506.386 3869.482,506.386 C3871.378,506.386 3873.657,506.671 3876.318,507.240 C3884.102,508.193 3887.142,512.082 3885.433,518.918 C3877.836,552.528 3870.239,577.406 3862.646,593.544 C3857.706,604.367 3844.034,613.958 3821.631,622.312 C3795.043,632.374 3763.049,637.408 3725.643,637.408 C3669.246,637.408 3625.712,623.451 3595.048,595.538 C3564.380,567.624 3549.048,528.700 3549.048,478.757 C3549.048,413.059 3572.689,357.802 3619.970,312.986 C3666.491,269.122 3722.697,247.190 3788.590,247.190 C3819.539,247.190 3845.650,250.893 3866.919,258.298 C3888.944,265.895 3899.768,273.394 3899.389,280.800 C3898.820,297.890 3896.919,321.437 3893.693,351.438 C3893.123,357.134 3888.090,360.268 3878.597,360.837 ZM3289.567,631.426 C3270.385,631.426 3260.799,623.642 3260.799,608.070 C3260.799,602.374 3265.926,577.309 3276.180,532.875 C3284.725,495.277 3288.997,473.537 3288.997,467.649 C3288.997,448.093 3279.406,438.311 3260.229,438.311 C3245.418,438.311 3229.939,451.129 3213.802,476.763 C3196.712,503.729 3185.034,536.008 3178.768,573.606 L3171.647,615.761 C3170.316,623.927 3161.393,628.578 3144.873,629.717 C3139.363,630.096 3135.331,629.526 3132.768,628.008 C3130.204,626.491 3129.207,623.927 3129.777,620.318 C3147.623,493.475 3161.771,378.782 3172.217,276.242 C3173.543,263.332 3171.647,256.874 3166.520,256.874 C3158.732,256.874 3145.630,259.437 3127.213,264.564 C3125.504,265.134 3123.889,264.093 3122.371,261.431 C3120.849,258.774 3120.093,256.117 3120.093,253.456 C3120.093,251.560 3120.564,250.421 3121.517,250.038 C3160.441,231.431 3185.506,222.125 3196.712,222.125 C3213.041,222.125 3221.208,228.489 3221.208,241.208 C3221.208,242.730 3221.016,244.341 3220.638,246.050 C3211.710,300.929 3199.084,376.125 3182.755,471.636 C3182.564,473.158 3183.227,474.106 3184.749,474.485 C3186.458,474.867 3187.784,474.106 3188.737,472.206 C3199.747,454.546 3212.663,439.166 3227.474,426.063 C3246.651,409.356 3264.595,400.998 3281.307,400.998 C3296.118,400.998 3308.081,405.177 3317.195,413.531 C3327.067,422.645 3332.007,435.369 3332.007,451.698 C3332.007,458.347 3326.404,485.406 3315.202,532.875 C3306.657,568.955 3302.384,588.608 3302.384,591.835 C3302.384,597.345 3305.517,600.095 3311.784,600.095 C3316.911,600.095 3327.165,591.550 3342.545,574.460 C3343.115,574.082 3343.587,573.891 3343.970,573.891 C3345.865,573.891 3347.815,574.985 3349.809,577.166 C3351.802,579.351 3352.799,581.488 3352.799,583.575 C3352.799,584.527 3352.515,585.284 3351.945,585.853 C3328.967,616.237 3308.174,631.426 3289.567,631.426 ZM3055.436,468.218 C3050.879,468.218 3045.276,462.998 3038.631,452.553 C3029.703,438.503 3020.780,431.475 3011.857,431.475 C2993.815,431.475 2978.910,439.927 2967.139,456.825 C2954.415,475.054 2948.055,499.648 2948.055,530.596 C2948.055,553.766 2952.897,572.088 2962.581,585.569 C2971.505,597.914 2982.804,604.083 2996.476,604.083 C3013.183,604.083 3029.134,597.629 3044.328,584.714 C3050.972,579.400 3055.908,578.070 3059.139,580.727 C3063.313,584.527 3065.405,587.754 3065.405,590.411 C3065.405,592.502 3064.074,594.875 3061.417,597.532 C3035.970,622.597 3009.102,635.129 2980.810,635.129 C2930.297,635.129 2905.045,607.314 2905.045,551.674 C2905.045,507.623 2917.956,471.449 2943.782,443.153 C2966.947,417.518 2993.530,404.701 3023.535,404.701 C3066.260,404.701 3087.622,413.816 3087.622,432.045 C3087.622,437.363 3083.349,444.960 3074.805,454.831 C3067.016,463.759 3060.563,468.218 3055.436,468.218 ZM2829.850,334.633 C2820.736,334.633 2813.281,331.976 2807.491,326.658 C2801.696,321.344 2798.804,314.410 2798.804,305.865 C2798.804,297.511 2802.600,289.727 2810.197,282.509 C2817.789,275.295 2825.671,271.685 2833.838,271.685 C2854.533,271.685 2864.884,280.800 2864.884,299.029 C2864.884,307.765 2861.133,315.883 2853.634,323.382 C2846.130,330.885 2838.204,334.633 2829.850,334.633 ZM2814.754,403.277 C2833.362,403.277 2842.668,411.065 2842.668,426.633 C2842.668,435.748 2836.971,461.098 2825.578,502.683 C2811.336,555.661 2804.215,585.382 2804.215,591.835 C2804.215,597.345 2807.442,600.095 2813.900,600.095 C2819.405,600.095 2829.565,591.550 2844.377,574.460 C2844.755,573.891 2845.231,573.606 2845.801,573.606 C2847.510,573.606 2849.455,574.843 2851.640,577.309 C2853.820,579.779 2854.915,581.964 2854.915,583.860 C2854.915,584.812 2854.724,585.475 2854.346,585.853 C2829.850,616.237 2808.488,631.426 2790.259,631.426 C2771.460,631.426 2762.060,624.021 2762.060,609.210 C2762.060,602.756 2767.944,577.309 2779.720,532.875 C2793.962,478.187 2801.082,448.280 2801.082,443.153 C2801.082,437.648 2797.664,434.893 2790.828,434.893 C2785.132,434.893 2775.163,443.629 2760.921,461.098 C2760.538,461.667 2759.969,461.952 2759.212,461.952 C2757.312,461.952 2755.269,460.719 2753.088,458.249 C2750.903,455.784 2749.813,453.505 2749.813,451.413 C2749.813,450.465 2750.000,449.802 2750.382,449.420 C2775.256,418.658 2796.712,403.277 2814.754,403.277 ZM2577.775,631.426 C2560.302,631.426 2546.395,625.587 2536.047,613.909 C2525.695,602.231 2520.524,586.330 2520.524,566.200 C2520.524,558.795 2521.281,551.011 2522.803,542.844 C2499.825,601.902 2467.354,631.426 2425.391,631.426 C2383.805,631.426 2363.013,612.819 2363.013,575.600 C2363.013,545.790 2383.992,502.020 2425.960,444.293 C2427.099,442.775 2427.478,441.729 2427.099,441.159 C2426.908,440.403 2426.339,440.020 2425.391,440.020 C2405.831,440.781 2394.722,441.257 2392.065,441.444 C2372.127,443.153 2361.873,446.571 2361.304,451.698 L2361.304,472.206 C2361.304,473.537 2359.595,474.298 2356.177,474.485 C2352.759,474.676 2350.382,473.728 2349.056,471.636 C2339.750,453.029 2335.099,438.026 2335.099,426.633 C2335.099,416.762 2343.261,410.967 2359.595,409.258 C2390.356,406.223 2421.688,404.701 2453.589,404.701 C2461.942,404.701 2466.121,406.601 2466.121,410.398 C2466.121,412.868 2464.599,416.571 2461.564,421.506 C2426.623,477.903 2409.155,522.621 2409.155,555.661 C2409.155,582.435 2420.642,595.823 2443.620,595.823 C2460.710,595.823 2475.948,586.379 2489.335,567.482 C2502.722,548.590 2512.927,522.719 2519.954,489.866 L2535.050,418.658 C2535.620,416.379 2536.283,414.385 2537.044,412.676 C2539.892,406.410 2546.822,403.277 2557.837,403.277 C2571.126,403.277 2577.775,406.032 2577.775,411.537 C2577.775,413.437 2577.392,416.571 2576.636,420.936 L2565.527,473.915 C2559.261,503.729 2556.128,528.794 2556.128,549.110 C2556.128,580.255 2569.323,595.823 2595.719,595.823 C2616.797,595.823 2635.596,582.391 2652.116,555.519 C2668.636,528.651 2676.896,498.793 2676.896,465.940 C2676.896,463.091 2670.389,458.819 2657.385,453.122 C2644.376,447.426 2637.874,440.020 2637.874,430.906 C2637.874,411.728 2649.361,402.138 2672.339,402.138 C2693.225,402.138 2703.670,413.816 2703.670,437.172 C2703.670,491.290 2690.661,537.530 2664.648,575.884 C2639.392,612.912 2610.433,631.426 2577.775,631.426 ZM2284.969,461.667 C2282.308,461.667 2276.184,459.531 2266.597,455.259 C2257.007,450.986 2249.837,448.850 2245.093,448.850 C2235.787,448.850 2224.393,460.434 2210.913,483.599 C2195.910,509.234 2184.802,539.239 2177.588,573.606 L2168.758,615.761 C2167.049,624.119 2158.691,628.765 2143.693,629.717 C2138.183,630.096 2134.196,629.526 2131.730,628.008 C2129.260,626.491 2128.406,623.927 2129.167,620.318 C2135.050,592.787 2141.032,565.346 2147.111,538.002 C2153.755,503.822 2157.080,475.909 2157.080,454.262 C2157.080,441.351 2154.419,434.893 2149.105,434.893 C2143.025,434.893 2132.487,443.629 2117.489,461.098 C2117.106,461.480 2116.536,461.667 2115.780,461.667 C2114.071,461.667 2112.264,460.528 2110.368,458.249 C2108.467,455.971 2107.519,453.790 2107.519,451.698 C2107.519,450.750 2107.706,449.989 2108.089,449.420 C2131.254,418.658 2152.616,403.277 2172.176,403.277 C2181.860,403.277 2188.362,405.226 2191.687,409.116 C2195.007,413.010 2196.672,419.895 2196.672,429.766 C2196.672,436.602 2194.771,450.559 2190.975,471.636 C2190.592,473.158 2191.162,474.106 2192.684,474.485 C2194.201,474.867 2195.532,474.106 2196.672,472.206 C2207.873,454.168 2220.597,438.787 2234.839,426.063 C2253.446,409.356 2271.106,400.998 2287.817,400.998 C2302.059,400.998 2309.180,404.986 2309.180,412.961 C2309.180,416.192 2308.325,420.750 2306.616,426.633 C2299.397,449.989 2292.183,461.667 2284.969,461.667 ZM1959.407,631.996 C1904.529,631.996 1877.091,600.949 1877.091,538.856 C1877.091,498.602 1889.433,465.183 1914.119,438.596 C1937.093,413.914 1963.867,401.568 1994.442,401.568 C2020.833,401.568 2041.056,409.641 2055.111,425.779 C2068.591,441.351 2075.334,463.283 2075.334,491.574 C2075.334,531.834 2063.558,565.630 2040.015,592.974 C2017.228,618.992 1990.356,631.996 1959.407,631.996 ZM1983.333,427.203 C1965.291,427.203 1950.765,436.224 1939.754,454.262 C1928.739,472.304 1923.234,496.799 1923.234,527.748 C1923.234,580.540 1939.371,606.931 1971.655,606.931 C1989.315,606.931 2003.365,597.914 2013.810,579.872 C2024.251,561.834 2029.476,537.624 2029.476,507.240 C2029.476,453.883 2014.095,427.203 1983.333,427.203 ZM1844.621,271.116 C1821.265,277.951 1808.349,291.152 1805.884,310.707 L1780.819,515.500 C1776.448,552.528 1772.746,587.278 1769.710,619.748 C1768.949,629.811 1766.101,635.507 1761.165,636.838 C1753.190,638.734 1747.111,634.275 1742.936,623.451 C1736.100,605.035 1706.763,560.695 1654.923,490.435 C1609.351,428.342 1566.719,373.276 1527.035,325.233 C1525.704,323.524 1524.186,323.146 1522.477,324.094 C1520.577,324.855 1519.438,326.942 1519.059,330.360 L1492.855,563.352 C1492.472,566.200 1492.285,568.955 1492.285,571.612 C1492.285,591.741 1502.539,603.896 1523.047,608.070 C1532.540,609.971 1537.004,613.673 1536.434,619.179 C1534.912,626.206 1528.930,629.526 1518.490,629.148 C1475.574,627.252 1442.342,627.252 1418.799,629.148 C1413.672,629.526 1410.396,629.005 1408.972,627.581 C1407.548,626.157 1407.121,623.358 1407.690,619.179 C1408.069,615.191 1412.533,612.343 1421.077,610.634 C1435.889,607.216 1446.045,602.089 1451.554,595.253 C1455.920,589.748 1458.960,580.255 1460.669,566.770 L1491.715,314.695 C1493.233,302.162 1482.694,288.205 1460.099,272.824 C1452.124,267.319 1448.608,262.855 1449.561,259.437 C1450.508,254.310 1454.590,252.317 1461.808,253.456 C1484.782,257.065 1505.005,257.826 1522.477,255.735 C1531.592,254.787 1539.184,258.298 1545.264,266.273 C1639.445,388.751 1704.577,476.100 1740.658,528.318 C1742.553,530.979 1744.169,532.305 1745.500,532.305 C1747.209,532.305 1748.348,530.027 1748.918,525.469 L1775.122,312.416 C1775.309,310.137 1775.407,307.957 1775.407,305.865 C1775.407,285.740 1764.770,273.679 1743.506,269.691 C1734.770,268.174 1730.688,265.517 1731.258,261.716 C1732.584,253.741 1737.240,250.229 1745.215,251.177 C1774.268,254.595 1807.401,254.217 1844.621,250.038 C1848.039,249.660 1850.696,249.468 1852.596,249.468 C1858.480,249.468 1861.043,252.793 1860.286,259.437 C1859.717,264.186 1854.492,268.080 1844.621,271.116 Z" class="cls-4"/>
      <path d="M4693.997,786.627 C4683.906,822.002 4669.909,854.824 4652.005,885.097 C4633.450,916.238 4612.887,940.977 4590.319,959.316 C4581.855,966.152 4575.833,969.244 4572.252,968.593 C4564.115,967.291 4557.034,965.175 4551.012,962.246 C4544.990,959.316 4542.198,956.549 4542.630,953.945 C4544.042,945.263 4547.622,941.303 4553.372,942.063 C4561.943,943.147 4568.127,943.691 4571.927,943.691 C4584.513,943.691 4594.279,940.217 4601.224,933.274 C4607.516,927.089 4611.478,921.718 4613.105,917.161 C4614.298,913.580 4614.896,907.070 4614.896,897.630 C4614.896,874.518 4611.910,848.532 4605.944,819.668 C4599.540,788.962 4592.651,773.606 4585.273,773.606 C4578.328,773.606 4571.545,777.947 4564.928,786.627 C4564.709,786.953 4564.331,787.115 4563.789,787.115 C4562.703,787.115 4561.454,786.546 4560.045,785.406 C4558.634,784.267 4557.929,783.102 4557.929,781.907 C4557.929,781.365 4558.036,780.931 4558.255,780.605 C4563.679,771.384 4568.779,764.817 4573.554,760.911 C4579.414,756.028 4586.575,753.587 4595.039,753.587 C4604.044,753.587 4610.990,757.386 4615.872,764.980 C4620.320,771.925 4624.443,784.621 4628.242,803.066 C4633.667,829.001 4636.922,856.507 4638.008,885.586 C4655.802,857.484 4668.986,827.264 4677.558,794.928 C4678.209,792.649 4678.535,790.589 4678.535,788.743 C4678.535,782.016 4674.573,778.652 4666.654,778.652 C4663.505,778.652 4659.599,778.761 4654.935,778.977 C4652.656,779.087 4651.082,777.187 4650.215,773.281 C4649.454,769.375 4649.833,766.826 4651.354,765.631 C4664.807,757.602 4674.247,753.587 4679.674,753.587 C4690.849,753.587 4696.439,759.393 4696.439,771.002 C4696.439,775.453 4695.625,780.661 4693.997,786.627 ZM4533.678,786.953 C4532.157,786.953 4528.658,785.732 4523.180,783.291 C4517.700,780.849 4513.603,779.628 4510.892,779.628 C4505.574,779.628 4499.064,786.248 4491.361,799.485 C4482.788,814.134 4476.440,831.279 4472.318,850.918 L4467.272,875.006 C4466.295,879.782 4461.520,882.437 4452.949,882.981 C4449.801,883.198 4447.522,882.872 4446.113,882.005 C4444.702,881.138 4444.213,879.673 4444.648,877.610 C4448.010,861.878 4451.428,846.198 4454.902,830.573 C4458.699,811.041 4460.599,795.091 4460.599,782.721 C4460.599,775.343 4459.078,771.653 4456.042,771.653 C4452.568,771.653 4446.546,776.645 4437.975,786.627 C4437.757,786.846 4437.431,786.953 4436.999,786.953 C4436.022,786.953 4434.990,786.302 4433.906,785.000 C4432.820,783.698 4432.279,782.451 4432.279,781.256 C4432.279,780.714 4432.385,780.280 4432.604,779.954 C4445.841,762.376 4458.048,753.587 4469.225,753.587 C4474.759,753.587 4478.475,754.701 4480.374,756.923 C4482.271,759.149 4483.223,763.083 4483.223,768.724 C4483.223,772.630 4482.137,780.605 4479.967,792.649 C4479.749,793.519 4480.074,794.061 4480.944,794.277 C4481.811,794.496 4482.572,794.061 4483.223,792.975 C4489.624,782.668 4496.895,773.878 4505.032,766.608 C4515.665,757.061 4525.756,752.285 4535.306,752.285 C4543.444,752.285 4547.513,754.563 4547.513,759.121 C4547.513,760.967 4547.025,763.571 4546.048,766.933 C4541.923,780.280 4537.801,786.953 4533.678,786.953 ZM4335.762,830.735 C4336.194,843.105 4339.124,852.545 4344.551,859.056 C4349.324,864.808 4355.346,867.682 4362.617,867.682 C4372.164,867.682 4381.986,864.211 4392.077,857.265 C4395.764,854.770 4398.641,854.010 4400.703,854.987 C4402.982,856.507 4404.121,858.405 4404.121,860.683 C4404.121,862.420 4403.307,863.994 4401.680,865.403 C4385.510,877.992 4369.616,884.283 4353.991,884.283 C4325.345,884.283 4311.022,867.954 4311.022,835.293 C4311.022,810.878 4318.128,790.806 4332.344,775.071 C4345.797,760.097 4361.910,752.610 4380.684,752.610 C4403.795,752.610 4415.352,760.967 4415.352,777.675 C4415.352,789.287 4409.167,799.106 4396.797,807.135 C4384.969,814.841 4364.624,822.707 4335.762,830.735 ZM4384.508,770.921 C4381.307,767.612 4377.156,765.957 4372.057,765.957 C4363.159,765.957 4355.293,770.733 4348.457,780.280 C4341.077,790.589 4336.954,803.936 4336.087,820.319 C4356.702,813.701 4370.727,807.814 4378.161,802.659 C4385.592,797.507 4389.310,791.184 4389.310,783.698 C4389.310,778.489 4387.708,774.232 4384.508,770.921 ZM4262.031,827.643 C4257.800,849.562 4255.684,860.902 4255.684,861.660 C4255.684,864.589 4257.690,866.054 4261.706,866.054 C4265.177,866.054 4270.927,861.171 4278.958,851.406 C4279.284,851.190 4279.663,851.080 4280.098,851.080 C4281.181,851.080 4282.295,851.731 4283.434,853.033 C4284.573,854.336 4285.143,855.584 4285.143,856.777 C4285.143,857.321 4284.980,857.700 4284.655,857.916 C4270.332,875.278 4257.906,883.958 4247.383,883.958 C4236.748,883.958 4231.432,879.998 4231.432,872.076 C4231.432,866.652 4233.764,851.841 4238.431,827.643 C4246.569,785.434 4255.086,736.553 4263.984,680.996 C4265.177,673.618 4264.310,669.928 4261.380,669.928 C4258.667,669.928 4251.126,671.502 4238.757,674.648 C4236.259,675.299 4235.013,673.239 4235.013,668.463 C4235.013,667.161 4235.339,666.347 4235.990,666.022 C4259.102,655.389 4273.694,650.071 4279.772,650.071 C4287.691,650.071 4291.654,653.708 4291.654,660.976 C4291.654,661.846 4291.544,662.767 4291.328,663.743 C4279.609,732.321 4269.844,786.953 4262.031,827.643 ZM4177.721,827.643 C4173.490,849.562 4171.374,860.902 4171.374,861.660 C4171.374,864.589 4173.380,866.054 4177.396,866.054 C4180.867,866.054 4186.617,861.171 4194.648,851.406 C4194.974,851.190 4195.353,851.080 4195.788,851.080 C4196.871,851.080 4197.985,851.731 4199.125,853.033 C4200.264,854.336 4200.833,855.584 4200.833,856.777 C4200.833,857.321 4200.671,857.700 4200.345,857.916 C4186.022,875.278 4173.596,883.958 4163.073,883.958 C4152.438,883.958 4147.123,879.998 4147.123,872.076 C4147.123,866.652 4149.455,851.841 4154.121,827.643 C4162.259,785.434 4170.776,736.553 4179.675,680.996 C4180.867,673.618 4180.000,669.928 4177.070,669.928 C4174.357,669.928 4166.816,671.502 4154.447,674.648 C4151.949,675.299 4150.703,673.239 4150.703,668.463 C4150.703,667.161 4151.029,666.347 4151.680,666.022 C4174.792,655.389 4189.384,650.071 4195.462,650.071 C4203.382,650.071 4207.344,653.708 4207.344,660.976 C4207.344,661.846 4207.234,662.767 4207.018,663.743 C4195.300,732.321 4185.534,786.953 4177.721,827.643 ZM4089.505,883.632 C4079.740,883.632 4074.857,878.533 4074.857,868.333 C4074.857,861.065 4076.050,850.864 4078.437,837.734 C4078.654,836.651 4078.382,836.053 4077.624,835.944 C4076.754,835.837 4076.050,836.325 4075.508,837.408 C4056.628,869.309 4037.854,885.260 4019.193,885.260 C4000.313,885.260 3990.872,874.737 3990.872,853.684 C3990.872,827.643 4000.964,804.099 4021.146,783.046 C4039.700,763.950 4058.146,754.401 4076.484,754.401 C4082.125,754.401 4088.094,755.487 4094.388,757.656 C4096.016,758.200 4097.913,757.224 4100.085,754.726 C4103.665,750.713 4106.648,748.704 4109.036,748.704 C4110.229,748.704 4111.585,749.139 4113.105,750.006 C4114.624,750.876 4115.328,752.069 4115.221,753.587 C4115.112,754.998 4114.189,758.253 4112.454,763.352 C4102.254,792.868 4097.155,821.839 4097.155,850.267 C4097.155,860.576 4098.836,865.729 4102.200,865.729 C4105.563,865.729 4111.315,860.793 4119.453,850.918 C4119.779,850.811 4120.048,850.755 4120.267,850.755 C4121.243,850.755 4122.327,851.434 4123.522,852.789 C4124.715,854.147 4125.312,855.368 4125.312,856.451 C4125.312,856.886 4125.257,857.158 4125.150,857.265 C4112.345,874.843 4100.464,883.632 4089.505,883.632 ZM4063.138,770.351 C4052.828,770.351 4042.358,777.513 4031.725,791.836 C4020.439,807.028 4014.798,823.411 4014.798,840.989 C4014.798,856.289 4020.439,863.938 4031.725,863.938 C4042.574,863.938 4053.914,853.631 4065.742,833.014 C4076.050,815.329 4081.204,800.299 4081.204,787.929 C4081.204,776.211 4075.182,770.351 4063.138,770.351 ZM3965.645,791.673 C3957.723,792.868 3952.705,794.033 3950.589,795.172 C3948.473,796.311 3947.197,798.671 3946.764,802.252 L3941.068,846.035 C3939.766,855.043 3931.246,863.832 3915.514,872.402 C3897.611,882.168 3876.994,887.050 3853.666,887.050 C3824.043,887.050 3799.792,878.696 3780.912,861.985 C3761.487,844.951 3751.777,822.597 3751.777,794.928 C3751.777,757.602 3764.526,726.406 3790.026,701.341 C3815.524,676.276 3847.099,663.743 3884.753,663.743 C3906.888,663.743 3924.792,666.078 3938.464,670.742 C3949.638,674.541 3955.281,678.610 3955.391,682.949 C3955.607,691.087 3954.740,703.350 3952.787,719.733 C3952.352,723.097 3949.910,724.941 3945.462,725.267 C3940.905,725.701 3938.191,724.399 3937.324,721.360 C3932.983,705.303 3926.582,694.126 3918.119,687.832 C3909.220,681.321 3895.439,678.066 3876.777,678.066 C3848.999,678.066 3826.754,687.941 3810.046,707.688 C3793.119,727.871 3784.655,755.214 3784.655,789.720 C3784.655,813.918 3791.219,833.449 3804.349,848.313 C3818.128,863.832 3837.008,871.588 3860.990,871.588 C3875.203,871.588 3887.275,869.203 3897.204,864.427 C3907.132,859.653 3912.748,853.415 3914.050,845.709 C3914.591,842.238 3915.947,832.419 3918.119,816.250 C3918.444,813.645 3918.607,811.367 3918.607,809.414 C3918.607,800.625 3912.748,794.496 3901.029,791.022 C3895.276,789.287 3892.728,787.171 3893.379,784.674 C3894.137,781.854 3895.060,780.091 3896.146,779.384 C3897.229,778.680 3899.780,778.545 3903.796,778.977 C3928.751,781.582 3949.857,781.691 3967.109,779.303 C3970.146,778.871 3972.046,778.952 3972.806,779.547 C3973.564,780.145 3973.889,781.963 3973.783,785.000 C3973.132,788.690 3970.418,790.915 3965.645,791.673 ZM3625.475,772.304 L3604.154,770.677 C3602.200,782.179 3599.703,795.416 3596.667,810.390 C3591.565,835.674 3589.017,852.003 3589.017,859.381 C3589.017,864.915 3591.565,867.682 3596.667,867.682 C3604.370,867.682 3614.189,862.095 3626.126,850.918 C3626.233,850.811 3626.342,850.755 3626.452,850.755 C3627.210,850.755 3628.268,851.597 3629.626,853.278 C3630.981,854.961 3631.660,856.345 3631.660,857.428 C3631.660,857.863 3631.551,858.188 3631.335,858.405 C3615.491,875.441 3600.085,883.958 3585.111,883.958 C3571.329,883.958 3564.440,877.882 3564.440,865.729 C3564.440,862.041 3566.337,849.346 3570.137,827.643 C3571.980,816.684 3575.289,798.997 3580.065,774.583 C3580.716,771.002 3578.926,769.158 3574.694,769.049 L3565.742,768.724 C3563.464,768.617 3562.594,767.152 3563.138,764.329 C3563.789,760.097 3569.755,757.981 3581.042,757.981 L3582.344,757.981 C3584.622,748.434 3585.762,742.194 3585.762,739.264 C3586.413,734.816 3588.366,730.368 3591.621,725.918 C3594.876,721.470 3598.131,718.593 3601.387,717.291 C3605.184,715.882 3608.223,715.338 3610.501,715.664 C3612.780,715.989 3613.756,717.075 3613.431,718.919 C3612.129,727.601 3609.688,740.513 3606.107,757.656 L3636.706,757.330 C3639.091,757.330 3640.503,758.144 3640.938,759.772 C3641.044,760.532 3640.881,762.485 3640.449,765.631 C3639.689,770.839 3634.697,773.065 3625.475,772.304 ZM3528.796,786.953 C3527.275,786.953 3523.775,785.732 3518.297,783.291 C3512.817,780.849 3508.720,779.628 3506.009,779.628 C3500.691,779.628 3494.181,786.248 3486.478,799.485 C3477.905,814.134 3471.557,831.279 3467.435,850.918 L3462.389,875.006 C3461.413,879.782 3456.637,882.437 3448.066,882.981 C3444.918,883.198 3442.639,882.872 3441.230,882.005 C3439.819,881.138 3439.331,879.673 3439.766,877.610 C3443.128,861.878 3446.546,846.198 3450.019,830.573 C3453.816,811.041 3455.716,795.091 3455.716,782.721 C3455.716,775.343 3454.195,771.653 3451.159,771.653 C3447.685,771.653 3441.663,776.645 3433.092,786.627 C3432.874,786.846 3432.548,786.953 3432.116,786.953 C3431.139,786.953 3430.107,786.302 3429.023,785.000 C3427.938,783.698 3427.396,782.451 3427.396,781.256 C3427.396,780.714 3427.503,780.280 3427.721,779.954 C3440.958,762.376 3453.165,753.587 3464.342,753.587 C3469.876,753.587 3473.592,754.701 3475.491,756.923 C3477.389,759.149 3478.340,763.083 3478.340,768.724 C3478.340,772.630 3477.254,780.605 3475.085,792.649 C3474.866,793.519 3475.191,794.061 3476.061,794.277 C3476.928,794.496 3477.689,794.061 3478.340,792.975 C3484.741,782.668 3492.012,773.878 3500.150,766.608 C3510.782,757.061 3520.874,752.285 3530.423,752.285 C3538.561,752.285 3542.630,754.563 3542.630,759.121 C3542.630,760.967 3542.142,763.571 3541.165,766.933 C3537.040,780.280 3532.918,786.953 3528.796,786.953 ZM3395.169,883.958 C3380.846,881.138 3359.578,880.812 3331.367,882.981 C3325.833,883.414 3323.066,882.330 3323.066,879.726 C3322.848,876.796 3324.857,874.464 3329.088,872.727 C3341.133,867.845 3347.155,863.125 3347.155,858.567 C3347.155,857.158 3346.829,855.096 3346.178,852.382 C3343.355,842.075 3339.017,826.613 3333.157,805.996 C3325.561,806.431 3312.324,806.647 3293.444,806.647 C3277.600,806.647 3264.473,806.214 3254.056,805.345 C3251.342,810.772 3244.560,823.793 3233.711,844.407 C3231.432,848.858 3230.293,852.817 3230.293,856.289 C3230.293,861.606 3232.897,865.513 3238.105,868.007 C3247.001,872.239 3251.452,875.115 3251.452,876.634 C3251.342,877.069 3251.233,877.503 3251.126,877.936 C3250.582,881.626 3247.220,883.088 3241.035,882.330 C3223.022,880.270 3205.065,880.921 3187.161,884.283 C3185.208,884.825 3183.797,884.988 3182.930,884.772 C3181.627,884.337 3180.923,882.546 3180.814,879.401 C3180.707,876.690 3184.529,873.651 3192.288,870.286 C3200.045,866.924 3207.344,859.165 3214.180,847.011 C3239.351,801.764 3255.302,772.849 3262.031,760.260 C3279.500,727.601 3293.281,699.388 3303.372,675.625 C3306.083,669.333 3311.022,664.882 3318.183,662.278 C3320.243,661.737 3322.197,664.882 3324.043,671.718 C3340.319,731.507 3357.678,791.836 3376.126,852.708 C3379.163,862.799 3385.945,869.582 3396.471,873.053 C3400.810,874.464 3402.600,876.471 3401.842,879.075 C3400.540,883.414 3398.315,885.041 3395.169,883.958 ZM3306.465,715.338 C3305.921,713.494 3305.107,712.571 3304.023,712.571 C3302.828,712.571 3301.745,713.494 3300.768,715.338 C3291.002,734.437 3277.763,760.207 3261.055,792.649 C3271.797,793.519 3284.273,793.951 3298.490,793.951 C3307.604,793.951 3317.911,793.735 3329.414,793.300 C3324.422,776.157 3316.772,750.169 3306.465,715.338 ZM3081.204,759.283 C3078.381,761.346 3075.887,762.376 3073.717,762.376 C3071.220,762.376 3068.616,760.911 3065.905,757.981 C3059.176,750.713 3051.038,743.496 3041.491,736.334 C3044.853,743.714 3046.536,753.045 3046.536,764.329 C3046.536,794.496 3038.993,820.265 3023.913,841.640 C3003.512,870.505 2976.277,884.934 2942.207,884.934 C2920.072,884.934 2902.493,878.887 2889.473,866.787 C2876.452,854.689 2869.941,838.006 2869.941,816.738 C2869.941,793.300 2876.993,774.855 2891.100,761.399 C2903.577,749.574 2918.714,743.658 2936.510,743.658 C2942.695,743.658 2947.929,743.768 2952.217,743.984 C2956.502,744.203 2958.483,744.309 2958.157,744.309 C2960.868,744.309 2962.226,739.211 2962.226,729.010 C2962.226,702.317 2952.568,688.971 2933.255,688.971 C2930.542,688.971 2926.745,689.080 2921.862,689.296 C2919.690,689.406 2918.388,687.506 2917.956,683.600 C2917.521,679.477 2917.956,676.927 2919.258,675.950 C2932.711,668.247 2942.370,664.394 2948.229,664.394 C2956.367,664.394 2962.850,669.521 2967.679,679.775 C2972.506,690.029 2974.922,703.566 2974.922,720.384 C2974.922,745.016 2968.790,768.779 2956.530,791.673 C2944.918,813.050 2929.240,831.386 2909.492,846.686 C2919.039,857.972 2932.385,863.613 2949.531,863.613 C2978.503,863.613 3000.529,852.057 3015.612,828.945 C3028.198,809.523 3034.492,788.852 3034.492,766.933 C3034.492,755.324 3032.971,745.395 3029.935,737.148 C3027.005,729.229 3023.641,725.267 3019.844,725.267 C3017.891,725.267 3013.115,727.817 3005.521,732.916 C3005.195,733.242 3004.814,733.405 3004.381,733.405 C3001.668,733.405 3000.312,732.212 3000.312,729.824 C3000.312,729.498 3000.419,729.229 3000.638,729.010 C3006.930,721.416 3014.038,714.959 3021.960,709.642 C3024.238,707.688 3026.461,706.712 3028.633,706.712 C3031.453,706.712 3039.970,711.704 3054.186,721.686 C3073.173,735.032 3083.646,741.705 3085.599,741.705 C3087.552,741.705 3091.891,739.373 3098.620,734.707 C3098.945,734.381 3099.324,734.218 3099.759,734.218 C3102.470,734.218 3103.828,735.414 3103.828,737.799 C3103.828,738.125 3103.719,738.397 3103.503,738.613 C3096.667,746.751 3089.233,753.643 3081.204,759.283 ZM2936.999,803.066 C2945.137,791.022 2949.206,781.093 2949.206,773.281 C2949.206,762.213 2942.423,756.679 2928.861,756.679 C2920.288,756.679 2913.017,760.641 2907.051,768.561 C2900.105,778.001 2896.634,791.240 2896.634,808.274 C2896.634,819.017 2898.857,828.838 2903.307,837.734 C2916.870,827.752 2928.100,816.196 2936.999,803.066 ZM2728.991,883.958 C2718.139,883.958 2712.715,879.510 2712.715,870.612 C2712.715,867.682 2715.156,854.580 2720.039,831.305 C2724.922,808.030 2727.363,794.386 2727.363,790.371 C2727.363,779.196 2721.992,773.606 2711.250,773.606 C2702.786,773.606 2694.539,780.389 2686.510,793.951 C2678.154,807.842 2671.862,825.962 2667.630,848.313 L2662.259,876.308 C2661.389,879.131 2659.111,881.084 2655.423,882.168 C2653.470,882.709 2650.866,883.088 2647.611,883.307 C2644.030,883.632 2641.614,883.251 2640.368,882.168 C2639.119,881.084 2638.766,879.347 2639.310,876.959 C2649.292,830.410 2654.284,801.873 2654.284,791.347 C2654.284,779.522 2649.182,773.606 2638.984,773.606 C2630.737,773.606 2622.001,780.931 2612.780,795.579 C2603.121,810.772 2596.178,829.217 2591.947,850.918 L2587.389,875.006 C2586.413,879.782 2581.746,882.437 2573.392,882.981 C2570.027,883.198 2567.695,882.872 2566.393,882.005 C2565.091,881.138 2564.603,879.673 2564.928,877.610 C2567.639,862.636 2570.300,847.662 2572.904,832.688 C2575.833,814.894 2577.298,799.757 2577.298,787.278 C2577.298,776.862 2575.615,771.653 2572.253,771.653 C2568.672,771.653 2562.919,776.645 2555.000,786.627 C2554.781,786.846 2554.456,786.953 2554.023,786.953 C2552.938,786.953 2551.798,786.248 2550.605,784.837 C2549.410,783.428 2548.815,782.126 2548.815,780.931 C2548.815,780.498 2548.869,780.173 2548.978,779.954 C2562.215,762.376 2574.096,753.587 2584.622,753.587 C2594.604,753.587 2599.596,758.851 2599.596,769.375 C2599.596,775.343 2598.727,783.102 2596.992,792.649 C2596.773,793.519 2597.155,794.061 2598.132,794.277 C2599.108,794.496 2599.813,794.061 2600.247,792.975 C2616.630,765.850 2633.557,752.285 2651.029,752.285 C2668.497,752.285 2677.396,763.299 2677.721,785.325 C2692.370,763.299 2707.776,752.285 2723.945,752.285 C2742.174,752.285 2751.289,761.944 2751.289,781.256 C2751.289,787.876 2748.413,803.338 2742.663,827.643 C2738.431,845.440 2736.315,856.670 2736.315,861.334 C2736.315,864.483 2738.105,866.054 2741.686,866.054 C2744.941,866.054 2750.582,861.171 2758.613,851.406 C2758.939,851.190 2759.264,851.080 2759.590,851.080 C2760.566,851.080 2761.678,851.731 2762.926,853.033 C2764.173,854.336 2764.798,855.531 2764.798,856.614 C2764.798,857.158 2764.635,857.591 2764.310,857.916 C2751.615,875.278 2739.840,883.958 2728.991,883.958 ZM2500.313,883.307 C2490.328,883.307 2485.339,878.208 2485.339,868.007 C2485.339,862.908 2486.096,855.149 2487.617,844.733 C2487.724,843.649 2487.398,843.052 2486.641,842.942 C2485.771,842.726 2485.013,843.214 2484.362,844.407 C2468.086,871.425 2451.159,884.934 2433.581,884.934 C2425.443,884.934 2418.932,882.546 2414.049,877.773 C2408.841,872.565 2406.237,865.296 2406.237,855.963 C2406.237,849.453 2409.167,834.046 2415.026,809.739 C2419.148,791.945 2421.211,780.824 2421.211,776.373 C2421.211,773.227 2419.474,771.653 2416.003,771.653 C2412.964,771.653 2407.267,776.645 2398.913,786.627 C2398.694,786.846 2398.424,786.953 2398.099,786.953 C2397.122,786.953 2396.008,786.276 2394.762,784.918 C2393.514,783.563 2392.891,782.342 2392.891,781.256 C2392.891,780.714 2392.997,780.280 2393.216,779.954 C2406.779,762.376 2418.714,753.587 2429.023,753.587 C2439.872,753.587 2445.299,758.037 2445.299,766.933 C2445.299,770.949 2442.639,785.218 2437.324,809.739 C2432.658,831.117 2430.325,843.540 2430.325,847.011 C2430.325,858.079 2435.534,863.613 2445.951,863.613 C2453.870,863.613 2462.552,856.345 2471.992,841.803 C2482.190,826.071 2489.189,807.570 2492.988,786.302 L2497.546,760.260 C2498.413,755.703 2503.079,753.045 2511.543,752.285 C2517.184,751.852 2520.169,752.448 2520.495,754.075 C2520.602,754.836 2520.548,756.028 2520.332,757.656 C2511.650,805.507 2507.311,836.269 2507.311,849.941 C2507.311,860.251 2509.102,865.403 2512.682,865.403 C2515.828,865.403 2521.688,860.467 2530.260,850.592 C2530.477,850.485 2530.749,850.376 2531.074,850.267 C2531.941,850.267 2532.971,850.974 2534.167,852.382 C2535.359,853.794 2535.957,855.043 2535.957,856.126 C2535.848,856.451 2535.738,856.724 2535.632,856.940 C2522.501,874.518 2510.729,883.307 2500.313,883.307 ZM2294.746,830.735 C2295.178,843.105 2298.108,852.545 2303.535,859.056 C2308.309,864.808 2314.331,867.682 2321.602,867.682 C2331.148,867.682 2340.970,864.211 2351.061,857.265 C2354.749,854.770 2357.625,854.010 2359.688,854.987 C2361.966,856.507 2363.105,858.405 2363.105,860.683 C2363.105,862.420 2362.292,863.994 2360.664,865.403 C2344.495,877.992 2328.600,884.283 2312.975,884.283 C2284.329,884.283 2270.006,867.954 2270.006,835.293 C2270.006,810.878 2277.112,790.806 2291.328,775.071 C2304.781,760.097 2320.895,752.610 2339.668,752.610 C2362.780,752.610 2374.336,760.967 2374.336,777.675 C2374.336,789.287 2368.151,799.106 2355.781,807.135 C2343.953,814.841 2323.608,822.707 2294.746,830.735 ZM2343.493,770.921 C2340.291,767.612 2336.141,765.957 2331.042,765.957 C2322.143,765.957 2314.277,770.733 2307.441,780.280 C2300.061,790.589 2295.939,803.936 2295.072,820.319 C2315.686,813.701 2329.712,807.814 2337.145,802.659 C2344.576,797.507 2348.294,791.184 2348.294,783.698 C2348.294,778.489 2346.692,774.232 2343.493,770.921 ZM2246.081,782.558 C2245.104,785.056 2243.421,786.302 2241.035,786.302 C2237.020,786.302 2233.329,783.753 2229.967,778.652 C2224.108,769.537 2216.023,764.980 2205.716,764.980 C2199.747,764.980 2194.918,766.554 2191.230,769.700 C2187.975,772.630 2186.348,776.048 2186.348,779.954 C2186.348,785.056 2188.354,789.613 2192.370,793.626 C2193.997,795.253 2198.120,798.402 2204.740,803.066 C2219.169,813.157 2228.447,820.481 2232.572,825.039 C2237.561,830.573 2240.059,837.030 2240.059,844.407 C2240.059,856.451 2235.229,866.217 2225.573,873.704 C2215.914,881.191 2203.275,884.934 2187.650,884.934 C2161.934,884.934 2149.076,878.750 2149.076,866.380 C2149.076,853.684 2151.408,847.337 2156.074,847.337 C2161.064,847.337 2165.296,850.322 2168.770,856.289 C2174.845,867.031 2183.688,872.402 2195.299,872.402 C2209.078,872.402 2215.970,866.924 2215.970,855.963 C2215.970,850.864 2214.668,846.604 2212.064,843.186 C2209.460,839.768 2203.979,835.239 2195.625,829.596 C2183.255,821.242 2174.898,814.487 2170.560,809.332 C2166.219,804.180 2164.049,798.293 2164.049,791.673 C2164.049,780.498 2168.632,771.140 2177.803,763.597 C2186.971,756.056 2198.392,752.285 2212.064,752.285 C2238.538,752.285 2250.964,757.168 2249.336,766.933 C2248.034,775.290 2246.948,780.498 2246.081,782.558 ZM2096.016,883.307 C2086.031,883.307 2081.042,878.208 2081.042,868.007 C2081.042,862.908 2081.800,855.149 2083.320,844.733 C2083.427,843.649 2083.102,843.052 2082.344,842.942 C2081.474,842.726 2080.716,843.214 2080.065,844.407 C2063.789,871.425 2046.862,884.934 2029.284,884.934 C2021.146,884.934 2014.635,882.546 2009.753,877.773 C2004.544,872.565 2001.940,865.296 2001.940,855.963 C2001.940,849.453 2004.870,834.046 2010.729,809.739 C2014.852,791.945 2016.914,780.824 2016.914,776.373 C2016.914,773.227 2015.177,771.653 2011.706,771.653 C2008.667,771.653 2002.970,776.645 1994.616,786.627 C1994.397,786.846 1994.128,786.953 1993.802,786.953 C1992.826,786.953 1991.712,786.276 1990.466,784.918 C1989.217,783.563 1988.594,782.342 1988.594,781.256 C1988.594,780.714 1988.701,780.280 1988.919,779.954 C2002.482,762.376 2014.417,753.587 2024.727,753.587 C2035.576,753.587 2041.003,758.037 2041.003,766.933 C2041.003,770.949 2038.343,785.218 2033.027,809.739 C2028.361,831.117 2026.029,843.540 2026.029,847.011 C2026.029,858.079 2031.237,863.613 2041.654,863.613 C2049.573,863.613 2058.255,856.345 2067.695,841.803 C2077.893,826.071 2084.892,807.570 2088.691,786.302 L2093.249,760.260 C2094.116,755.703 2098.783,753.045 2107.246,752.285 C2112.887,751.852 2115.872,752.448 2116.198,754.075 C2116.305,754.836 2116.251,756.028 2116.035,757.656 C2107.353,805.507 2103.014,836.269 2103.014,849.941 C2103.014,860.251 2104.805,865.403 2108.385,865.403 C2111.531,865.403 2117.391,860.467 2125.964,850.592 C2126.180,850.485 2126.452,850.376 2126.777,850.267 C2127.645,850.267 2128.675,850.974 2129.870,852.382 C2131.063,853.794 2131.660,855.043 2131.660,856.126 C2131.551,856.451 2131.441,856.724 2131.335,856.940 C2118.204,874.518 2106.432,883.307 2096.016,883.307 ZM1950.020,682.623 C1946.871,684.795 1945.081,688.483 1944.648,693.691 L1930.977,852.057 C1930.432,858.351 1931.409,862.855 1933.906,865.566 C1935.966,867.738 1939.847,869.419 1945.544,870.612 C1951.240,871.807 1953.926,873.923 1953.600,876.959 C1953.382,879.998 1952.352,881.842 1950.508,882.493 C1949.638,882.819 1947.253,882.872 1943.346,882.656 C1916.219,881.572 1895.439,881.572 1881.009,882.656 C1878.186,882.872 1876.342,882.574 1875.475,881.761 C1874.606,880.947 1874.336,879.347 1874.661,876.959 C1875.203,874.681 1877.754,873.053 1882.311,872.076 C1891.967,869.907 1897.773,868.117 1899.727,866.705 C1902.221,864.862 1903.740,860.739 1904.284,854.336 L1916.003,713.711 C1916.219,710.781 1915.621,709.316 1914.212,709.316 C1913.126,709.316 1911.934,710.349 1910.632,712.408 C1866.577,785.651 1836.682,838.604 1820.951,871.263 C1817.477,878.750 1815.523,882.819 1815.091,883.470 C1813.789,885.423 1812.106,886.725 1810.046,887.376 C1808.960,887.701 1808.092,887.864 1807.441,887.864 C1805.270,887.864 1803.805,884.662 1803.047,878.261 C1800.117,856.670 1784.329,802.252 1755.684,715.013 C1754.814,712.518 1753.784,711.269 1752.591,711.269 C1751.180,711.269 1750.203,712.953 1749.661,716.315 L1728.665,845.058 C1728.121,848.313 1727.852,851.136 1727.852,853.522 C1727.852,862.746 1733.764,868.442 1745.592,870.612 C1751.452,871.697 1754.163,873.813 1753.730,876.959 C1753.296,879.998 1752.103,881.842 1750.150,882.493 C1749.389,882.819 1747.001,882.872 1742.988,882.656 C1719.441,881.679 1701.103,881.679 1687.975,882.656 C1685.046,882.872 1683.227,882.628 1682.523,881.923 C1681.816,881.219 1681.628,879.563 1681.953,876.959 C1682.279,874.681 1684.720,873.053 1689.277,872.076 C1697.632,870.233 1703.328,867.356 1706.367,863.450 C1708.862,860.414 1710.762,854.933 1712.064,847.011 L1735.339,702.968 C1735.664,700.908 1735.827,699.118 1735.827,697.597 C1735.827,690.220 1729.423,684.035 1716.621,679.043 C1712.064,677.199 1710.055,674.648 1710.599,671.393 C1711.141,668.463 1713.582,667.324 1717.923,667.975 C1733.874,670.363 1748.250,670.798 1761.055,669.277 C1765.612,668.735 1768.676,668.845 1770.251,669.602 C1771.822,670.363 1773.099,672.263 1774.076,675.299 L1819.974,833.014 C1820.516,834.751 1821.113,835.618 1821.764,835.618 C1822.522,835.618 1823.608,834.425 1825.020,832.037 C1846.395,794.170 1875.964,743.170 1913.724,679.043 C1916.979,673.509 1920.723,670.742 1924.954,670.742 C1936.238,670.742 1948.717,669.277 1962.389,666.347 C1966.402,665.480 1968.844,665.371 1969.714,666.022 C1970.581,666.566 1971.016,668.463 1971.016,671.718 C1971.016,674.648 1968.139,676.873 1962.389,678.392 C1955.986,679.912 1951.863,681.321 1950.020,682.623 Z" class="cls-4"/>
      <path d="M4425.214,1164.627 C4415.122,1200.002 4401.125,1232.824 4383.221,1263.097 C4364.667,1294.238 4344.103,1318.977 4321.535,1337.316 C4313.072,1344.152 4307.050,1347.244 4303.469,1346.593 C4295.331,1345.291 4288.251,1343.175 4282.229,1340.246 C4276.206,1337.316 4273.414,1334.549 4273.846,1331.945 C4275.258,1323.263 4278.839,1319.303 4284.589,1320.063 C4293.159,1321.147 4299.344,1321.691 4303.143,1321.691 C4315.729,1321.691 4325.495,1318.217 4332.440,1311.274 C4338.732,1305.089 4342.694,1299.718 4344.322,1295.161 C4345.514,1291.580 4346.112,1285.070 4346.112,1275.630 C4346.112,1252.518 4343.126,1226.532 4337.160,1197.668 C4330.757,1166.962 4323.867,1151.606 4316.490,1151.606 C4309.544,1151.606 4302.762,1155.947 4296.145,1164.627 C4295.926,1164.953 4295.547,1165.115 4295.005,1165.115 C4293.919,1165.115 4292.671,1164.546 4291.262,1163.406 C4289.850,1162.267 4289.146,1161.102 4289.146,1159.907 C4289.146,1159.365 4289.253,1158.931 4289.471,1158.605 C4294.896,1149.384 4299.995,1142.817 4304.771,1138.911 C4310.630,1134.028 4317.792,1131.587 4326.255,1131.587 C4335.260,1131.587 4342.206,1135.386 4347.089,1142.980 C4351.536,1149.925 4355.659,1162.621 4359.458,1181.066 C4364.883,1207.001 4368.138,1234.507 4369.224,1263.586 C4387.018,1235.484 4400.202,1205.264 4408.775,1172.928 C4409.426,1170.649 4409.751,1168.589 4409.751,1166.743 C4409.751,1160.016 4405.789,1156.652 4397.870,1156.652 C4394.721,1156.652 4390.815,1156.761 4386.151,1156.977 C4383.872,1157.087 4382.298,1155.187 4381.431,1151.281 C4380.671,1147.375 4381.050,1144.826 4382.570,1143.631 C4396.023,1135.602 4405.464,1131.587 4410.891,1131.587 C4422.065,1131.587 4427.655,1137.393 4427.655,1149.002 C4427.655,1153.453 4426.841,1158.661 4425.214,1164.627 ZM4264.895,1164.953 C4263.374,1164.953 4259.875,1163.732 4254.396,1161.291 C4248.916,1158.849 4244.819,1157.628 4242.108,1157.628 C4236.791,1157.628 4230.280,1164.248 4222.577,1177.485 C4214.004,1192.134 4207.656,1209.279 4203.534,1228.918 L4198.488,1253.006 C4197.512,1257.782 4192.736,1260.437 4184.166,1260.981 C4181.017,1261.198 4178.739,1260.872 4177.330,1260.005 C4175.918,1259.138 4175.430,1257.673 4175.865,1255.610 C4179.227,1239.878 4182.645,1224.198 4186.119,1208.573 C4189.916,1189.041 4191.815,1173.091 4191.815,1160.721 C4191.815,1153.343 4190.294,1149.653 4187.258,1149.653 C4183.784,1149.653 4177.762,1154.645 4169.191,1164.627 C4168.973,1164.846 4168.647,1164.953 4168.215,1164.953 C4167.238,1164.953 4166.206,1164.302 4165.123,1163.000 C4164.037,1161.698 4163.495,1160.451 4163.495,1159.256 C4163.495,1158.714 4163.602,1158.280 4163.820,1157.954 C4177.057,1140.376 4189.264,1131.587 4200.441,1131.587 C4205.975,1131.587 4209.691,1132.701 4211.591,1134.923 C4213.488,1137.149 4214.439,1141.083 4214.439,1146.724 C4214.439,1150.630 4213.353,1158.605 4211.184,1170.649 C4210.965,1171.519 4211.291,1172.061 4212.160,1172.277 C4213.027,1172.496 4213.788,1172.061 4214.439,1170.975 C4220.840,1160.668 4228.111,1151.878 4236.249,1144.608 C4246.882,1135.061 4256.973,1130.285 4266.522,1130.285 C4274.660,1130.285 4278.729,1132.563 4278.729,1137.121 C4278.729,1138.967 4278.241,1141.571 4277.264,1144.933 C4273.139,1158.280 4269.017,1164.953 4264.895,1164.953 ZM4078.859,1262.283 C4047.500,1262.283 4031.822,1244.543 4031.822,1209.061 C4031.822,1186.058 4038.874,1166.962 4052.980,1151.769 C4066.108,1137.665 4081.408,1130.610 4098.879,1130.610 C4113.960,1130.610 4125.516,1135.224 4133.547,1144.445 C4141.250,1153.343 4145.103,1165.876 4145.103,1182.043 C4145.103,1205.048 4138.374,1224.360 4124.921,1239.985 C4111.900,1254.852 4096.544,1262.283 4078.859,1262.283 ZM4092.531,1145.259 C4082.221,1145.259 4073.921,1150.414 4067.629,1160.721 C4061.335,1171.031 4058.189,1185.028 4058.189,1202.713 C4058.189,1232.880 4067.410,1247.961 4085.858,1247.961 C4095.949,1247.961 4103.978,1242.808 4109.947,1232.498 C4115.913,1222.191 4118.898,1208.356 4118.898,1190.994 C4118.898,1160.505 4110.109,1145.259 4092.531,1145.259 ZM3996.177,1150.304 L3974.855,1148.677 C3972.902,1160.179 3970.405,1173.416 3967.369,1188.390 C3962.267,1213.674 3959.719,1230.003 3959.719,1237.381 C3959.719,1242.915 3962.267,1245.682 3967.369,1245.682 C3975.072,1245.682 3984.891,1240.095 3996.828,1228.918 C3996.935,1228.811 3997.044,1228.755 3997.154,1228.755 C3997.912,1228.755 3998.970,1229.597 4000.328,1231.278 C4001.683,1232.961 4002.362,1234.345 4002.362,1235.428 C4002.362,1235.863 4002.252,1236.188 4002.037,1236.405 C3986.193,1253.441 3970.786,1261.958 3955.812,1261.958 C3942.031,1261.958 3935.142,1255.882 3935.142,1243.729 C3935.142,1240.041 3937.039,1227.346 3940.839,1205.643 C3942.682,1194.684 3945.991,1176.997 3950.767,1152.583 C3951.418,1149.002 3949.628,1147.158 3945.396,1147.049 L3936.444,1146.724 C3934.165,1146.617 3933.296,1145.152 3933.840,1142.329 C3934.491,1138.097 3940.457,1135.981 3951.744,1135.981 L3953.046,1135.981 C3955.324,1126.434 3956.464,1120.194 3956.464,1117.264 C3957.115,1112.816 3959.068,1108.368 3962.323,1103.918 C3965.578,1099.470 3968.833,1096.593 3972.089,1095.291 C3975.885,1093.882 3978.925,1093.338 3981.203,1093.664 C3983.482,1093.989 3984.458,1095.075 3984.133,1096.919 C3982.831,1105.601 3980.389,1118.513 3976.809,1135.656 L4007.408,1135.330 C4009.793,1135.330 4011.205,1136.144 4011.639,1137.772 C4011.746,1138.532 4011.583,1140.485 4011.151,1143.631 C4010.391,1148.839 4005.398,1151.065 3996.177,1150.304 ZM3905.194,1160.558 C3904.217,1163.056 3902.534,1164.302 3900.148,1164.302 C3896.133,1164.302 3892.443,1161.753 3889.081,1156.652 C3883.221,1147.537 3875.137,1142.980 3864.829,1142.980 C3858.861,1142.980 3854.031,1144.554 3850.344,1147.700 C3847.089,1150.630 3845.461,1154.048 3845.461,1157.954 C3845.461,1163.056 3847.468,1167.613 3851.483,1171.626 C3853.111,1173.253 3857.233,1176.402 3863.853,1181.066 C3878.283,1191.157 3887.560,1198.481 3891.685,1203.039 C3896.675,1208.573 3899.172,1215.030 3899.172,1222.407 C3899.172,1234.451 3894.343,1244.217 3884.686,1251.704 C3875.027,1259.191 3862.388,1262.934 3846.763,1262.934 C3821.047,1262.934 3808.189,1256.750 3808.189,1244.380 C3808.189,1231.684 3810.521,1225.337 3815.188,1225.337 C3820.177,1225.337 3824.409,1228.322 3827.883,1234.289 C3833.958,1245.031 3842.801,1250.402 3854.413,1250.402 C3868.191,1250.402 3875.083,1244.924 3875.083,1233.963 C3875.083,1228.864 3873.781,1224.604 3871.177,1221.186 C3868.573,1217.768 3863.093,1213.239 3854.738,1207.596 C3842.369,1199.242 3834.012,1192.487 3829.673,1187.332 C3825.332,1182.180 3823.163,1176.293 3823.163,1169.673 C3823.163,1158.498 3827.745,1149.140 3836.916,1141.597 C3846.084,1134.056 3857.505,1130.285 3871.177,1130.285 C3897.651,1130.285 3910.077,1135.168 3908.449,1144.933 C3907.147,1153.290 3906.061,1158.498 3905.194,1160.558 ZM3766.522,1092.362 C3761.314,1092.362 3757.054,1090.843 3753.745,1087.804 C3750.434,1084.768 3748.781,1080.806 3748.781,1075.923 C3748.781,1071.149 3750.951,1066.701 3755.292,1062.576 C3759.630,1058.454 3764.134,1056.392 3768.801,1056.392 C3780.626,1056.392 3786.542,1061.600 3786.542,1072.017 C3786.542,1077.009 3784.398,1081.647 3780.113,1085.933 C3775.825,1090.220 3771.296,1092.362 3766.522,1092.362 ZM3757.896,1131.587 C3768.529,1131.587 3773.846,1136.037 3773.846,1144.933 C3773.846,1150.142 3770.591,1164.627 3764.081,1188.390 C3755.943,1218.664 3751.874,1235.647 3751.874,1239.334 C3751.874,1242.483 3753.718,1244.054 3757.408,1244.054 C3760.553,1244.054 3766.359,1239.171 3774.823,1229.406 C3775.039,1229.080 3775.311,1228.918 3775.637,1228.918 C3776.613,1228.918 3777.725,1229.625 3778.973,1231.033 C3780.219,1232.445 3780.845,1233.694 3780.845,1234.777 C3780.845,1235.321 3780.736,1235.700 3780.520,1235.916 C3766.522,1253.278 3754.315,1261.958 3743.898,1261.958 C3733.156,1261.958 3727.785,1257.726 3727.785,1249.263 C3727.785,1245.575 3731.147,1231.033 3737.876,1205.643 C3746.014,1174.393 3750.083,1157.303 3750.083,1154.373 C3750.083,1151.227 3748.130,1149.653 3744.224,1149.653 C3740.969,1149.653 3735.272,1154.645 3727.134,1164.627 C3726.915,1164.953 3726.590,1165.115 3726.158,1165.115 C3725.072,1165.115 3723.904,1164.411 3722.658,1163.000 C3721.410,1161.591 3720.786,1160.289 3720.786,1159.093 C3720.786,1158.552 3720.893,1158.173 3721.112,1157.954 C3735.326,1140.376 3747.586,1131.587 3757.896,1131.587 ZM3661.867,1261.958 C3650.906,1261.958 3645.428,1257.510 3645.428,1248.612 C3645.428,1245.356 3648.358,1231.033 3654.217,1205.643 C3659.100,1184.158 3661.542,1171.735 3661.542,1168.371 C3661.542,1157.196 3656.061,1151.606 3645.103,1151.606 C3636.639,1151.606 3627.794,1158.931 3618.573,1173.579 C3608.807,1188.988 3602.134,1207.433 3598.553,1228.918 L3594.484,1253.006 C3593.724,1257.673 3588.625,1260.330 3579.185,1260.981 C3576.036,1261.198 3573.732,1260.872 3572.268,1260.005 C3570.803,1259.138 3570.233,1257.673 3570.559,1255.610 C3580.757,1183.128 3588.841,1117.589 3594.810,1058.996 C3595.568,1051.618 3594.484,1047.928 3591.555,1047.928 C3587.104,1047.928 3579.617,1049.393 3569.094,1052.323 C3568.117,1052.648 3567.194,1052.053 3566.327,1050.532 C3565.457,1049.014 3565.025,1047.496 3565.025,1045.975 C3565.025,1044.891 3565.294,1044.240 3565.839,1044.022 C3588.081,1033.389 3602.404,1028.071 3608.807,1028.071 C3618.138,1028.071 3622.805,1031.708 3622.805,1038.976 C3622.805,1039.846 3622.695,1040.767 3622.479,1041.743 C3617.378,1073.102 3610.163,1116.071 3600.832,1170.649 C3600.723,1171.519 3601.102,1172.061 3601.971,1172.277 C3602.948,1172.496 3603.706,1172.061 3604.250,1170.975 C3610.542,1160.884 3617.922,1152.095 3626.385,1144.608 C3637.344,1135.061 3647.598,1130.285 3657.147,1130.285 C3665.611,1130.285 3672.447,1132.673 3677.655,1137.446 C3683.296,1142.655 3686.119,1149.925 3686.119,1159.256 C3686.119,1163.056 3682.917,1178.518 3676.516,1205.643 C3671.633,1226.260 3669.191,1237.490 3669.191,1239.334 C3669.191,1242.483 3670.982,1244.054 3674.563,1244.054 C3677.492,1244.054 3683.352,1239.171 3692.141,1229.406 C3692.466,1229.190 3692.736,1229.080 3692.954,1229.080 C3694.038,1229.080 3695.152,1229.706 3696.291,1230.952 C3697.430,1232.201 3698.000,1233.421 3698.000,1234.614 C3698.000,1235.158 3697.837,1235.591 3697.512,1235.916 C3684.382,1253.278 3672.500,1261.958 3661.867,1261.958 ZM3500.572,1058.670 C3499.270,1058.670 3494.928,1057.205 3487.551,1054.276 C3482.343,1052.323 3476.646,1051.346 3470.461,1051.346 C3455.703,1051.346 3445.014,1058.889 3438.397,1073.970 C3433.621,1084.931 3429.662,1104.515 3426.516,1132.726 L3426.190,1135.656 L3465.904,1135.330 C3468.182,1135.330 3469.428,1136.200 3469.647,1137.934 C3469.754,1138.479 3469.484,1140.376 3468.833,1143.631 C3467.313,1148.623 3461.997,1150.849 3452.883,1150.304 L3424.562,1148.677 L3413.495,1250.076 C3410.565,1277.636 3403.241,1299.690 3391.522,1316.239 C3379.803,1332.784 3366.241,1341.060 3350.832,1341.060 C3338.355,1341.060 3332.277,1337.695 3332.603,1330.968 C3333.038,1319.682 3336.565,1314.041 3343.182,1314.041 C3344.268,1314.041 3347.251,1315.234 3352.134,1317.622 C3354.957,1319.682 3358.103,1320.714 3361.574,1320.714 C3376.004,1320.714 3385.228,1301.941 3389.244,1264.399 L3400.800,1155.350 C3401.341,1150.251 3399.279,1147.593 3394.615,1147.375 L3383.872,1146.724 C3381.594,1146.507 3380.508,1145.747 3380.617,1144.445 C3380.724,1144.013 3380.943,1143.306 3381.268,1142.329 C3382.677,1138.097 3388.755,1135.981 3399.497,1135.981 L3402.915,1135.981 C3405.952,1108.205 3413.439,1084.712 3425.376,1065.506 C3440.457,1041.201 3460.314,1029.048 3484.947,1029.048 C3494.061,1029.048 3498.997,1029.048 3499.758,1029.048 C3507.135,1029.918 3510.716,1032.359 3510.500,1036.372 C3510.281,1040.822 3509.061,1045.649 3506.838,1050.858 C3504.613,1056.066 3502.525,1058.670 3500.572,1058.670 ZM3286.542,1262.283 C3255.182,1262.283 3239.504,1244.543 3239.504,1209.061 C3239.504,1186.058 3246.556,1166.962 3260.663,1151.769 C3273.790,1137.665 3289.090,1130.610 3306.561,1130.610 C3321.642,1130.610 3333.198,1135.224 3341.229,1144.445 C3348.932,1153.343 3352.785,1165.876 3352.785,1182.043 C3352.785,1205.048 3346.056,1224.360 3332.603,1239.985 C3319.582,1254.852 3304.227,1262.283 3286.542,1262.283 ZM3300.214,1145.259 C3289.904,1145.259 3281.603,1150.414 3275.311,1160.721 C3269.017,1171.031 3265.871,1185.028 3265.871,1202.713 C3265.871,1232.880 3275.093,1247.961 3293.540,1247.961 C3303.632,1247.961 3311.660,1242.808 3317.629,1232.498 C3323.595,1222.191 3326.581,1208.356 3326.581,1190.994 C3326.581,1160.505 3317.792,1145.259 3300.214,1145.259 ZM3135.988,1160.558 C3135.012,1163.056 3133.328,1164.302 3130.943,1164.302 C3126.927,1164.302 3123.237,1161.753 3119.875,1156.652 C3114.016,1147.537 3105.931,1142.980 3095.624,1142.980 C3089.655,1142.980 3084.826,1144.554 3081.138,1147.700 C3077.883,1150.630 3076.255,1154.048 3076.255,1157.954 C3076.255,1163.056 3078.262,1167.613 3082.277,1171.626 C3083.905,1173.253 3088.027,1176.402 3094.647,1181.066 C3109.077,1191.157 3118.354,1198.481 3122.479,1203.039 C3127.469,1208.573 3129.966,1215.030 3129.966,1222.407 C3129.966,1234.451 3125.137,1244.217 3115.480,1251.704 C3105.822,1259.191 3093.182,1262.934 3077.557,1262.934 C3051.841,1262.934 3038.983,1256.750 3038.983,1244.380 C3038.983,1231.684 3041.315,1225.337 3045.982,1225.337 C3050.971,1225.337 3055.203,1228.322 3058.677,1234.289 C3064.753,1245.031 3073.595,1250.402 3085.207,1250.402 C3098.986,1250.402 3105.878,1244.924 3105.878,1233.963 C3105.878,1228.864 3104.576,1224.604 3101.971,1221.186 C3099.367,1217.768 3093.887,1213.239 3085.533,1207.596 C3073.163,1199.242 3064.806,1192.487 3060.468,1187.332 C3056.126,1182.180 3053.957,1176.293 3053.957,1169.673 C3053.957,1158.498 3058.540,1149.140 3067.710,1141.597 C3076.878,1134.056 3088.300,1130.285 3101.971,1130.285 C3128.445,1130.285 3140.871,1135.168 3139.244,1144.933 C3137.941,1153.290 3136.856,1158.498 3135.988,1160.558 ZM3011.314,1164.953 C3009.793,1164.953 3006.294,1163.732 3000.816,1161.291 C2995.335,1158.849 2991.238,1157.628 2988.527,1157.628 C2983.210,1157.628 2976.699,1164.248 2968.996,1177.485 C2960.423,1192.134 2954.076,1209.279 2949.953,1228.918 L2944.908,1253.006 C2943.931,1257.782 2939.155,1260.437 2930.585,1260.981 C2927.436,1261.198 2925.158,1260.872 2923.749,1260.005 C2922.337,1259.138 2921.849,1257.673 2922.284,1255.610 C2925.646,1239.878 2929.064,1224.198 2932.538,1208.573 C2936.335,1189.041 2938.234,1173.091 2938.234,1160.721 C2938.234,1153.343 2936.714,1149.653 2933.677,1149.653 C2930.203,1149.653 2924.181,1154.645 2915.611,1164.627 C2915.392,1164.846 2915.067,1164.953 2914.634,1164.953 C2913.658,1164.953 2912.625,1164.302 2911.542,1163.000 C2910.456,1161.698 2909.914,1160.451 2909.914,1159.256 C2909.914,1158.714 2910.021,1158.280 2910.240,1157.954 C2923.477,1140.376 2935.684,1131.587 2946.861,1131.587 C2952.395,1131.587 2956.110,1132.701 2958.010,1134.923 C2959.907,1137.149 2960.858,1141.083 2960.858,1146.724 C2960.858,1150.630 2959.772,1158.605 2957.603,1170.649 C2957.384,1171.519 2957.710,1172.061 2958.579,1172.277 C2959.447,1172.496 2960.207,1172.061 2960.858,1170.975 C2967.259,1160.668 2974.530,1151.878 2982.668,1144.608 C2993.301,1135.061 3003.392,1130.285 3012.941,1130.285 C3021.080,1130.285 3025.148,1132.563 3025.148,1137.121 C3025.148,1138.967 3024.660,1141.571 3023.684,1144.933 C3019.559,1158.280 3015.436,1164.953 3011.314,1164.953 ZM2862.714,1261.632 C2852.948,1261.632 2848.065,1256.533 2848.065,1246.333 C2848.065,1239.065 2849.258,1228.864 2851.646,1215.734 C2851.862,1214.651 2851.590,1214.053 2850.832,1213.944 C2849.962,1213.837 2849.258,1214.325 2848.716,1215.408 C2829.836,1247.309 2811.063,1263.260 2792.401,1263.260 C2773.521,1263.260 2764.081,1252.737 2764.081,1231.684 C2764.081,1205.643 2774.172,1182.099 2794.354,1161.046 C2812.909,1141.950 2831.354,1132.401 2849.693,1132.401 C2855.333,1132.401 2861.302,1133.487 2867.596,1135.656 C2869.224,1136.200 2871.121,1135.224 2873.293,1132.726 C2876.874,1128.713 2879.857,1126.704 2882.245,1126.704 C2883.438,1126.704 2884.793,1127.139 2886.314,1128.006 C2887.832,1128.876 2888.537,1130.069 2888.430,1131.587 C2888.320,1132.998 2887.397,1136.253 2885.663,1141.352 C2875.462,1170.868 2870.363,1199.839 2870.363,1228.267 C2870.363,1238.576 2872.044,1243.729 2875.409,1243.729 C2878.771,1243.729 2884.523,1238.793 2892.661,1228.918 C2892.987,1228.811 2893.257,1228.755 2893.475,1228.755 C2894.452,1228.755 2895.535,1229.434 2896.731,1230.789 C2897.923,1232.147 2898.521,1233.368 2898.521,1234.451 C2898.521,1234.886 2898.465,1235.158 2898.358,1235.265 C2885.553,1252.843 2873.672,1261.632 2862.714,1261.632 ZM2836.346,1148.351 C2826.037,1148.351 2815.566,1155.513 2804.934,1169.836 C2793.647,1185.028 2788.007,1201.411 2788.007,1218.989 C2788.007,1234.289 2793.647,1241.938 2804.934,1241.938 C2815.783,1241.938 2827.122,1231.631 2838.951,1211.014 C2849.258,1193.329 2854.413,1178.299 2854.413,1165.929 C2854.413,1154.211 2848.391,1148.351 2836.346,1148.351 ZM2664.797,1208.735 C2665.229,1221.105 2668.159,1230.545 2673.586,1237.056 C2678.359,1242.808 2684.382,1245.682 2691.652,1245.682 C2701.199,1245.682 2711.021,1242.211 2721.112,1235.265 C2724.800,1232.770 2727.676,1232.010 2729.738,1232.987 C2732.017,1234.507 2733.156,1236.405 2733.156,1238.683 C2733.156,1240.420 2732.342,1241.994 2730.715,1243.403 C2714.546,1255.992 2698.651,1262.283 2683.026,1262.283 C2654.380,1262.283 2640.057,1245.954 2640.057,1213.293 C2640.057,1188.878 2647.163,1168.806 2661.379,1153.071 C2674.832,1138.097 2690.945,1130.610 2709.719,1130.610 C2732.831,1130.610 2744.387,1138.967 2744.387,1155.675 C2744.387,1167.287 2738.202,1177.106 2725.832,1185.135 C2714.004,1192.841 2693.659,1200.707 2664.797,1208.735 ZM2713.544,1148.921 C2710.342,1145.612 2706.191,1143.957 2701.092,1143.957 C2692.194,1143.957 2684.328,1148.733 2677.492,1158.280 C2670.112,1168.589 2665.990,1181.936 2665.122,1198.319 C2685.737,1191.701 2699.762,1185.814 2707.196,1180.659 C2714.627,1175.507 2718.345,1169.184 2718.345,1161.698 C2718.345,1156.489 2716.743,1152.232 2713.544,1148.921 ZM2572.023,1263.097 C2553.469,1294.238 2532.905,1318.977 2510.337,1337.316 C2501.874,1344.152 2495.852,1347.244 2492.271,1346.593 C2484.133,1345.291 2477.053,1343.175 2471.031,1340.246 C2465.008,1337.316 2462.216,1334.549 2462.649,1331.945 C2464.060,1323.263 2467.641,1319.303 2473.391,1320.063 C2481.961,1321.147 2488.146,1321.691 2491.945,1321.691 C2504.531,1321.691 2514.297,1318.217 2521.242,1311.274 C2527.534,1305.089 2531.496,1299.718 2533.124,1295.161 C2534.316,1291.580 2534.914,1285.070 2534.914,1275.630 C2534.914,1252.518 2531.928,1226.532 2525.962,1197.668 C2519.559,1166.962 2512.669,1151.606 2505.292,1151.606 C2498.346,1151.606 2491.564,1155.947 2484.947,1164.627 C2484.728,1164.953 2484.349,1165.115 2483.807,1165.115 C2482.721,1165.115 2481.473,1164.546 2480.064,1163.406 C2478.652,1162.267 2477.948,1161.102 2477.948,1159.907 C2477.948,1159.365 2478.055,1158.931 2478.273,1158.605 C2483.698,1149.384 2488.797,1142.817 2493.573,1138.911 C2499.432,1134.028 2506.594,1131.587 2515.057,1131.587 C2524.063,1131.587 2531.008,1135.386 2535.891,1142.980 C2540.339,1149.925 2544.461,1162.621 2548.260,1181.066 C2553.685,1207.001 2556.940,1234.507 2558.026,1263.586 C2575.820,1235.484 2589.004,1205.264 2597.577,1172.928 C2598.228,1170.649 2598.553,1168.589 2598.553,1166.743 C2598.553,1160.016 2594.591,1156.652 2586.672,1156.652 C2583.523,1156.652 2579.617,1156.761 2574.953,1156.977 C2572.674,1157.087 2571.100,1155.187 2570.233,1151.281 C2569.473,1147.375 2569.852,1144.826 2571.372,1143.631 C2584.826,1135.602 2594.266,1131.587 2599.693,1131.587 C2610.867,1131.587 2616.457,1137.393 2616.457,1149.002 C2616.457,1153.453 2615.643,1158.661 2614.016,1164.627 C2603.924,1200.002 2589.927,1232.824 2572.023,1263.097 ZM2307.049,1262.283 C2289.471,1262.283 2275.799,1257.184 2266.034,1246.984 C2256.701,1237.218 2252.036,1223.981 2252.036,1207.270 C2252.036,1184.703 2259.740,1165.388 2275.148,1149.328 C2289.797,1134.028 2306.615,1126.378 2325.604,1126.378 C2343.398,1126.378 2357.124,1131.317 2366.783,1141.190 C2375.788,1150.630 2380.292,1163.434 2380.292,1179.601 C2380.292,1202.497 2373.049,1222.000 2358.563,1238.114 C2344.077,1254.227 2326.906,1262.283 2307.049,1262.283 ZM2323.326,1140.701 C2310.956,1140.701 2300.592,1146.833 2292.238,1159.093 C2283.882,1171.356 2279.706,1186.546 2279.706,1204.666 C2279.706,1233.096 2289.797,1247.309 2309.979,1247.309 C2322.349,1247.309 2332.547,1241.287 2340.578,1229.243 C2348.823,1216.766 2352.948,1200.328 2352.948,1179.927 C2352.948,1153.778 2343.073,1140.701 2323.326,1140.701 ZM2156.008,1262.283 C2138.430,1262.283 2124.758,1257.184 2114.992,1246.984 C2105.659,1237.218 2100.995,1223.981 2100.995,1207.270 C2100.995,1184.703 2108.698,1165.388 2124.107,1149.328 C2138.755,1134.028 2155.573,1126.378 2174.563,1126.378 C2192.357,1126.378 2206.082,1131.317 2215.741,1141.190 C2224.746,1150.630 2229.250,1163.434 2229.250,1179.601 C2229.250,1202.497 2222.007,1222.000 2207.522,1238.114 C2193.036,1254.227 2175.865,1262.283 2156.008,1262.283 ZM2172.284,1140.701 C2159.914,1140.701 2149.551,1146.833 2141.197,1159.093 C2132.840,1171.356 2128.664,1186.546 2128.664,1204.666 C2128.664,1233.096 2138.755,1247.309 2158.938,1247.309 C2171.307,1247.309 2181.505,1241.287 2189.536,1229.243 C2197.781,1216.766 2201.906,1200.328 2201.906,1179.927 C2201.906,1153.778 2192.031,1140.701 2172.284,1140.701 ZM1963.625,1324.295 C1962.104,1324.728 1960.911,1322.612 1960.044,1317.948 C1959.500,1315.234 1962.811,1312.142 1969.973,1308.670 C1983.861,1301.834 1997.260,1291.796 2010.174,1278.559 C2022.326,1265.864 2031.603,1252.899 2038.007,1239.660 C2027.480,1247.256 2015.924,1251.053 2003.339,1251.053 C1989.341,1251.053 1978.055,1246.605 1969.484,1237.707 C1960.477,1228.376 1955.975,1215.464 1955.975,1198.970 C1955.975,1178.787 1962.458,1161.698 1975.425,1147.700 C1988.390,1133.703 2004.369,1126.704 2023.358,1126.704 C2038.764,1126.704 2051.353,1131.643 2061.118,1141.515 C2071.210,1151.825 2076.255,1165.767 2076.255,1183.345 C2076.255,1213.618 2065.025,1242.264 2042.564,1269.282 C2021.186,1294.889 1994.875,1313.227 1963.625,1324.295 ZM2020.266,1142.329 C2008.654,1142.329 1999.486,1147.484 1992.759,1157.791 C1986.465,1167.666 1983.319,1180.634 1983.319,1196.691 C1983.319,1223.384 1992.324,1236.730 2010.337,1236.730 C2021.621,1236.730 2031.277,1231.684 2039.309,1221.593 C2048.204,1210.635 2052.655,1196.203 2052.655,1178.299 C2052.655,1154.320 2041.857,1142.329 2020.266,1142.329 Z" class="cls-4"/>
    </g>
  </g>
  <rect x="2" y="1" width="5000" height="1600" class="cls-5"/>
</svg>
