<svg xmlns="http://www.w3.org/2000/svg" xmlns:xlink="http://www.w3.org/1999/xlink" preserveAspectRatio="xMidYMid" width="5000" height="1600" viewBox="0 0 5000 1600">
  <defs>
    <style>
      .cls-1 {
        fill: #7cc576;
      }

      .cls-2 {
        fill: #e4f0fa;
      }

      .cls-2, .cls-3, .cls-4, .cls-5, .cls-6, .cls-7 {
        fill-rule: evenodd;
      }

      .cls-3 {
        fill: #e2d3a5;
      }

      .cls-4 {
        fill: #8c6239;
      }

      .cls-5 {
        fill: #000101;
      }

      .cls-6 {
        fill: #047d06;
      }

      .cls-7 {
        fill: #000;
      }

      .cls-8 {
        stroke: #047d06;
        stroke-width: 30px;
        fill: none;
      }
    </style>
  </defs>
  <rect x="-28" y="-40" width="5248" height="1768" class="cls-1"/>
  <g>
    <g>
      <path d="M392.000,456.000 L1098.000,456.000 L1006.000,1366.000 L504.000,1366.000 L392.000,456.000 Z" class="cls-2"/>
      <path d="M392.000,456.000 L1098.000,456.000 L1006.000,1366.000 L504.000,1366.000 L392.000,456.000 Z" class="cls-2"/>
      <path d="M409.000,364.000 L1081.000,364.000 L1109.000,444.000 L381.000,444.000 L409.000,364.000 Z" class="cls-2"/>
      <path d="M807.430,83.010 L898.000,107.343 L808.720,352.000 L709.000,352.000 L807.430,83.010 Z" class="cls-2"/>
      <path d="M449.000,491.000 L1041.000,491.000 L973.000,1327.000 L549.000,1331.000 L449.000,491.000 Z" class="cls-3"/>
      <path d="M461.000,501.000 L1024.000,615.000 L1024.000,627.000 L461.000,513.000 L461.000,501.000 Z" class="cls-4"/>
      <path d="M474.000,619.000 L1013.000,733.000 L1013.000,745.000 L474.000,631.000 L474.000,619.000 Z" class="cls-4"/>
      <path d="M489.000,745.000 L1002.000,859.000 L1002.000,871.000 L489.000,757.000 L489.000,745.000 Z" class="cls-4"/>
      <path d="M506.000,863.000 L992.000,977.000 L992.000,989.000 L506.000,875.000 L506.000,863.000 Z" class="cls-4"/>
      <path d="M519.000,989.000 L981.000,1103.000 L981.000,1115.000 L519.000,1001.000 L519.000,989.000 Z" class="cls-4"/>
      <path d="M534.000,1107.000 L971.000,1221.000 L971.000,1233.000 L534.000,1119.000 L534.000,1107.000 Z" class="cls-4"/>
      <path d="M557.084,1233.000 L860.313,1314.129 L860.916,1324.493 L557.687,1243.363 L557.084,1233.000 Z" class="cls-4"/>
    </g>
    <path d="M4375.589,513.527 C4376.422,520.430 4377.398,526.594 4378.501,532.012 C4384.173,559.867 4397.997,582.107 4419.982,598.744 C4441.962,615.381 4468.568,623.699 4499.802,623.699 C4549.768,623.699 4608.831,606.323 4676.992,571.571 L4674.955,622.220 C4591.050,661.906 4516.445,681.742 4451.149,681.742 C4399.759,681.742 4356.002,669.357 4319.871,644.587 C4283.740,619.817 4261.484,586.856 4253.102,545.691 C4237.947,471.260 4256.025,404.592 4307.344,345.682 C4358.657,286.778 4424.204,257.323 4503.986,257.323 C4536.917,257.323 4565.766,265.150 4590.531,280.799 C4615.291,296.454 4630.111,316.233 4634.979,340.136 C4644.565,387.216 4623.740,427.883 4572.519,462.139 C4521.292,496.400 4455.650,513.527 4375.589,513.527 ZM4521.532,362.319 C4517.267,341.373 4509.961,325.718 4499.622,315.366 C4489.276,305.015 4475.733,299.839 4458.984,299.839 C4429.740,299.839 4407.090,316.539 4391.039,349.933 C4374.983,383.334 4369.126,426.035 4373.472,478.036 C4423.152,478.036 4461.960,467.130 4489.884,445.317 C4517.808,423.504 4528.358,395.840 4521.532,362.319 ZM4060.031,672.500 C3982.881,588.207 3925.095,519.443 3886.681,466.205 L3871.350,466.205 L3866.125,672.500 L3740.210,672.500 L3752.603,195.952 L3751.884,148.503 C3748.939,134.038 3729.658,125.818 3694.059,123.854 L3685.818,123.120 L3686.908,88.738 L3880.868,88.738 L3872.161,438.847 L3886.640,438.847 C3926.999,426.277 3961.164,405.637 3989.139,376.922 C4017.116,348.212 4028.673,321.900 4023.805,297.990 C4021.447,286.408 4014.858,275.687 4004.054,265.826 L4129.205,261.389 C4135.734,269.760 4139.628,277.021 4140.880,283.173 C4150.302,329.444 4097.192,380.272 3981.554,435.647 C4040.412,505.105 4097.581,564.829 4153.049,614.826 C4168.736,629.123 4186.614,636.766 4206.690,637.748 L4214.431,638.117 L4213.766,672.500 L4060.031,672.500 ZM2923.410,672.500 L2930.847,386.349 C2931.444,372.549 2931.166,362.815 2930.010,357.143 C2927.502,344.821 2920.564,338.658 2909.199,338.658 C2874.518,338.658 2824.213,395.910 2758.283,510.414 L2755.056,672.500 L2629.141,672.500 L2641.534,195.952 L2641.241,148.503 C2638.296,134.038 2618.876,125.818 2582.990,123.854 L2575.175,123.120 L2575.839,88.738 L2769.799,88.738 L2761.008,436.999 C2782.880,381.185 2811.517,337.283 2846.911,305.298 C2882.307,273.318 2920.032,257.323 2960.090,257.323 C2981.969,257.323 3002.017,264.411 3020.246,278.581 C3038.469,292.751 3049.640,309.936 3053.755,330.143 C3056.265,342.470 3057.311,359.471 3056.902,381.156 L3052.114,565.251 C3052.093,595.833 3052.210,611.736 3052.461,612.966 C3055.423,627.517 3074.845,635.778 3110.739,637.748 L3118.480,638.117 L3117.815,672.500 L2923.410,672.500 ZM2269.093,686.179 C2249.504,686.179 2225.412,684.296 2196.827,680.541 C2168.234,676.780 2135.294,671.148 2097.990,663.627 L2100.808,551.976 L2163.835,551.976 L2164.408,558.972 C2165.928,585.983 2166.871,600.350 2167.221,602.071 C2169.771,614.595 2183.483,625.825 2208.365,635.772 C2233.241,645.719 2260.303,650.687 2289.547,650.687 C2319.923,650.687 2344.567,639.596 2363.473,617.414 C2382.379,595.232 2388.921,569.849 2383.099,541.255 C2376.375,508.230 2341.897,473.478 2279.680,436.999 L2247.809,418.513 C2167.195,371.191 2122.349,325.227 2113.265,280.614 C2103.279,231.571 2117.619,191.146 2156.286,159.351 C2194.953,127.557 2249.061,111.660 2318.623,111.660 C2367.736,111.660 2427.260,119.550 2497.191,135.321 L2494.548,243.644 L2431.521,243.644 L2431.443,236.989 L2429.073,191.885 C2426.564,179.564 2415.063,169.091 2394.568,160.460 C2374.074,151.836 2350.052,147.521 2322.518,147.521 C2290.152,147.521 2265.606,156.642 2248.878,174.879 C2232.151,193.121 2226.673,216.413 2232.444,244.753 C2238.014,272.111 2267.700,302.184 2321.504,334.960 L2365.765,361.452 C2418.854,393.755 2455.604,420.322 2476.016,441.158 C2496.428,461.994 2509.370,485.846 2514.841,512.719 C2525.184,563.512 2507.393,605.121 2461.474,637.545 C2415.549,669.970 2351.424,686.179 2269.093,686.179 Z" class="cls-5"/>
    <path d="M3680.884,439.271 L3681.461,409.617 L3673.552,409.298 C3636.872,407.594 3616.882,400.350 3613.568,387.561 L3614.273,380.212 L3612.532,346.647 L3614.473,89.163 L3507.917,89.163 C3500.008,88.739 3494.266,88.316 3490.690,87.887 C3464.200,85.974 3446.193,85.017 3436.668,85.017 C3359.563,85.017 3298.191,103.940 3252.556,141.774 C3217.775,170.263 3192.669,205.178 3177.252,246.520 C3161.829,287.867 3158.968,327.246 3168.662,364.658 C3174.832,388.468 3189.051,408.182 3211.321,423.806 C3233.591,439.430 3258.748,447.243 3286.801,447.243 C3327.000,447.243 3365.540,432.734 3402.413,403.718 C3439.286,374.702 3466.702,337.345 3484.650,291.639 L3482.799,439.271 L3680.884,439.271 ZM3479.252,239.684 C3418.438,331.292 3370.139,377.093 3334.362,377.093 C3323.682,377.093 3314.997,374.488 3308.305,369.271 C3301.615,364.060 3296.952,356.342 3294.304,346.124 C3290.941,333.145 3289.497,310.372 3289.986,277.808 C3291.675,169.904 3327.629,115.947 3397.865,115.947 C3423.764,115.947 3453.368,122.434 3486.661,135.397 L3485.424,230.099 C3482.359,235.001 3480.306,238.195 3479.252,239.684 L3479.252,239.684 Z" class="cls-5"/>
    <path d="M3680.884,818.021 L3681.461,788.367 L3673.552,788.048 C3636.872,786.345 3616.882,779.100 3613.568,766.311 L3614.273,758.962 L3612.532,725.397 L3614.473,467.913 L3507.917,467.913 C3500.008,467.489 3494.266,467.066 3490.690,466.637 C3464.200,464.724 3446.193,463.768 3436.668,463.768 C3359.563,463.768 3298.191,482.690 3252.556,520.525 C3217.775,549.013 3192.669,583.928 3177.252,625.270 C3161.829,666.618 3158.968,705.997 3168.662,743.408 C3174.832,767.218 3189.051,786.932 3211.321,802.557 C3233.591,818.181 3258.748,825.993 3286.801,825.993 C3327.000,825.993 3365.540,811.485 3402.413,782.468 C3439.286,753.452 3466.702,716.096 3484.650,670.389 L3482.799,818.021 L3680.884,818.021 ZM3479.252,618.435 C3418.438,710.042 3370.139,755.844 3334.362,755.844 C3323.682,755.844 3314.997,753.238 3308.305,748.022 C3301.615,742.810 3296.952,735.093 3294.304,724.874 C3290.941,711.896 3289.497,689.122 3289.986,656.559 C3291.675,548.654 3327.629,494.697 3397.865,494.697 C3423.764,494.697 3453.368,501.184 3486.661,514.148 L3485.424,608.849 C3482.359,613.752 3480.306,616.945 3479.252,618.435 L3479.252,618.435 Z" class="cls-5"/>
    <path d="M4593.314,1485.624 L4593.314,1460.498 L4623.425,1460.498 L4623.425,1485.624 L4593.314,1485.624 ZM4603.690,1443.001 L4593.314,1365.181 L4593.314,1335.071 L4623.425,1335.071 L4623.425,1365.181 L4613.049,1443.001 L4603.690,1443.001 ZM4531.974,1488.167 C4512.917,1488.167 4497.845,1482.811 4486.757,1472.095 C4475.669,1461.380 4470.125,1446.833 4470.125,1428.455 C4470.125,1411.501 4475.126,1397.751 4485.130,1387.205 C4495.132,1376.661 4508.170,1371.387 4524.243,1371.387 C4555.303,1371.387 4570.833,1390.444 4570.833,1428.556 L4570.833,1430.794 L4501.050,1430.794 C4501.050,1444.901 4504.338,1455.480 4510.917,1462.533 C4517.494,1469.587 4527.362,1473.112 4540.519,1473.112 C4549.471,1473.112 4559.575,1470.671 4570.833,1465.788 L4570.833,1481.250 C4557.541,1485.861 4544.588,1488.167 4531.974,1488.167 ZM4541.231,1421.334 L4541.231,1417.773 C4541.231,1404.279 4539.871,1394.750 4537.151,1389.189 C4534.431,1383.629 4529.741,1380.847 4523.078,1380.847 C4516.005,1380.847 4510.685,1384.222 4507.115,1390.969 C4503.545,1397.718 4501.762,1407.839 4501.762,1421.334 L4541.231,1421.334 ZM4444.490,1405.973 C4443.947,1398.446 4443.456,1394.191 4443.015,1393.207 C4442.574,1392.224 4440.895,1391.732 4437.980,1391.732 C4429.298,1391.732 4422.279,1396.446 4416.923,1405.872 L4416.923,1456.124 C4416.923,1465.347 4417.668,1470.841 4419.161,1472.603 C4420.652,1474.368 4425.570,1475.520 4433.911,1476.062 L4435.844,1476.164 L4435.844,1485.624 L4370.536,1485.624 L4370.536,1476.164 L4372.469,1476.062 C4379.318,1475.588 4383.420,1474.419 4384.778,1472.552 C4386.134,1470.688 4386.812,1465.212 4386.812,1456.124 L4386.812,1403.430 C4386.812,1394.343 4386.134,1388.868 4384.778,1387.002 C4383.420,1385.137 4379.318,1383.967 4372.469,1383.492 L4370.536,1383.390 L4370.536,1373.930 L4416.923,1373.930 L4416.923,1394.987 C4426.078,1379.255 4437.945,1371.387 4452.527,1371.387 C4454.086,1371.387 4456.052,1371.659 4458.427,1372.201 L4458.427,1407.804 L4444.592,1407.804 L4444.490,1405.973 ZM4303.194,1488.167 C4285.154,1488.167 4270.963,1482.963 4260.622,1472.552 C4250.279,1462.143 4245.109,1447.884 4245.109,1429.777 C4245.109,1411.670 4250.279,1397.412 4260.622,1387.002 C4270.963,1376.592 4285.154,1371.387 4303.194,1371.387 C4321.165,1371.387 4335.322,1376.592 4345.664,1387.002 C4356.005,1397.412 4361.178,1411.670 4361.178,1429.777 C4361.178,1447.884 4356.005,1462.143 4345.664,1472.552 C4335.322,1482.963 4321.165,1488.167 4303.194,1488.167 ZM4321.759,1393.970 C4317.655,1386.035 4311.467,1382.068 4303.194,1382.068 C4294.919,1382.068 4288.714,1386.035 4284.578,1393.970 C4280.441,1401.904 4278.373,1413.841 4278.373,1429.777 C4278.373,1445.646 4280.441,1457.565 4284.578,1465.533 C4288.714,1473.503 4294.919,1477.486 4303.194,1477.486 C4311.467,1477.486 4317.655,1473.503 4321.759,1465.533 C4325.861,1457.565 4327.913,1445.646 4327.913,1429.777 C4327.913,1413.841 4325.861,1401.904 4321.759,1393.970 ZM4175.325,1476.164 L4177.258,1476.062 C4182.955,1475.725 4186.363,1474.612 4187.482,1472.723 C4188.601,1470.834 4189.160,1465.335 4189.160,1456.226 L4189.160,1366.809 L4142.201,1468.840 L4132.092,1468.840 L4086.214,1360.502 L4086.214,1456.226 C4086.214,1465.200 4086.794,1470.666 4087.956,1472.622 C4089.116,1474.579 4092.532,1475.725 4098.203,1476.062 L4100.049,1476.164 L4100.049,1485.624 L4054.781,1485.624 L4054.781,1476.164 L4056.714,1476.062 C4063.563,1475.592 4067.665,1474.428 4069.023,1472.572 C4070.378,1470.715 4071.057,1465.266 4071.057,1456.226 L4071.057,1364.469 C4071.057,1355.429 4070.396,1349.997 4069.073,1348.176 C4067.751,1346.354 4063.631,1345.173 4056.714,1344.633 L4054.781,1344.531 L4054.781,1335.071 L4104.928,1335.071 L4146.639,1432.524 L4189.160,1335.071 L4234.326,1335.071 L4234.326,1344.531 L4232.406,1344.633 C4225.463,1345.173 4221.334,1346.354 4220.021,1348.176 C4218.706,1349.997 4218.050,1355.429 4218.050,1364.469 L4218.050,1456.226 C4218.050,1465.266 4218.727,1470.715 4220.085,1472.572 C4221.440,1474.428 4225.543,1475.592 4232.393,1476.062 L4234.326,1476.164 L4234.326,1485.624 L4175.325,1485.624 L4175.325,1476.164 ZM3969.891,1412.641 C3968.976,1413.423 3968.213,1416.736 3967.602,1422.578 C3966.382,1433.385 3959.701,1445.381 3947.564,1458.564 C3954.617,1467.245 3959.159,1472.196 3961.194,1473.417 C3963.228,1474.638 3968.348,1475.520 3976.554,1476.062 L3978.385,1476.164 L3978.385,1485.624 L3934.745,1485.624 L3926.852,1477.122 C3915.262,1485.300 3902.452,1489.388 3888.424,1489.388 C3872.497,1489.388 3859.111,1484.747 3848.268,1475.461 C3837.424,1466.177 3832.003,1454.690 3832.003,1441.002 C3832.003,1420.062 3844.935,1404.848 3870.798,1395.359 C3862.905,1382.665 3858.960,1372.245 3858.960,1364.097 C3858.960,1354.593 3862.767,1346.752 3870.382,1340.574 C3877.995,1334.397 3887.583,1331.307 3899.141,1331.307 C3911.447,1331.307 3921.287,1334.141 3928.664,1339.806 C3936.041,1345.471 3939.730,1353.019 3939.730,1362.451 C3939.730,1378.735 3928.071,1390.778 3904.754,1398.581 C3917.972,1420.201 3930.139,1437.721 3941.256,1451.139 C3946.070,1442.912 3948.478,1433.666 3948.478,1423.400 C3948.478,1418.029 3947.833,1414.715 3946.545,1413.456 C3945.256,1412.199 3941.663,1411.366 3935.762,1410.958 L3933.830,1410.856 L3933.830,1401.497 L3982.760,1401.497 L3982.760,1410.856 L3980.928,1410.958 C3974.485,1411.298 3970.807,1411.859 3969.891,1412.641 ZM3914.705,1361.198 C3914.705,1354.354 3913.620,1349.239 3911.450,1345.850 C3909.279,1342.462 3905.990,1340.767 3901.583,1340.767 C3896.970,1340.767 3893.496,1342.225 3891.156,1345.138 C3888.816,1348.053 3887.646,1352.424 3887.646,1358.251 C3887.646,1366.655 3891.795,1377.463 3900.093,1390.676 C3909.834,1382.003 3914.705,1372.177 3914.705,1361.198 ZM3875.770,1403.432 C3865.715,1411.570 3860.689,1421.981 3860.689,1434.661 C3860.689,1446.528 3864.386,1456.345 3871.780,1464.109 C3879.175,1471.875 3888.535,1475.757 3899.863,1475.757 C3907.120,1475.757 3914.244,1473.686 3921.232,1469.540 C3906.111,1452.387 3890.957,1430.351 3875.770,1403.432 Z" class="cls-6"/>
    <path d="M3082.535,817.096 L3082.252,810.260 C3082.252,795.545 3073.683,788.186 3056.544,788.186 C3049.063,788.186 3042.716,790.607 3037.509,795.449 C3032.302,800.291 3029.699,806.226 3029.699,813.251 C3029.699,819.139 3031.621,823.768 3035.466,827.137 C3039.312,830.508 3047.216,834.471 3059.179,839.028 L3071.996,844.013 C3101.142,855.217 3115.717,870.217 3115.717,889.016 C3115.717,903.353 3109.545,915.174 3097.204,924.478 C3084.860,933.783 3069.194,938.434 3050.206,938.434 C3026.659,938.434 3006.389,934.874 2989.395,927.753 L2989.395,887.450 L3008.621,887.450 L3008.764,890.013 C3009.318,901.787 3011.073,909.335 3014.033,912.657 C3021.663,921.013 3032.967,925.190 3047.948,925.190 C3055.198,925.190 3061.326,922.864 3066.335,918.211 C3071.342,913.561 3073.847,907.815 3073.847,900.979 C3073.847,890.440 3064.969,881.659 3047.216,874.632 L3034.256,869.505 C3004.349,857.638 2989.395,841.641 2989.395,821.511 C2989.395,807.270 2995.154,795.948 3006.676,787.545 C3018.196,779.143 3033.771,774.941 3053.402,774.941 C3068.952,774.941 3085.165,777.411 3102.046,782.347 L3102.046,819.802 L3082.677,819.802 L3082.535,817.096 ZM2905.228,938.434 C2878.547,938.434 2857.447,930.935 2841.924,915.933 C2826.401,900.932 2818.639,880.567 2818.639,854.836 C2818.639,831.102 2825.640,811.851 2839.645,797.087 C2853.649,782.325 2871.902,774.941 2894.404,774.941 C2937.887,774.941 2959.630,801.622 2959.630,854.979 L2959.630,858.112 L2861.933,858.112 C2861.933,877.861 2866.537,892.672 2875.748,902.546 C2884.956,912.421 2898.770,917.357 2917.190,917.357 C2929.723,917.357 2943.869,913.939 2959.630,907.103 L2959.630,928.750 C2941.021,935.205 2922.887,938.434 2905.228,938.434 ZM2918.187,844.867 L2918.187,839.883 C2918.187,820.991 2916.283,807.650 2912.475,799.864 C2908.668,792.080 2902.101,788.186 2892.773,788.186 C2882.871,788.186 2875.423,792.910 2870.425,802.356 C2865.427,811.805 2862.930,825.975 2862.930,844.867 L2918.187,844.867 ZM2748.713,938.434 C2721.463,938.434 2700.029,931.006 2684.413,916.146 C2668.794,901.288 2660.985,880.852 2660.985,854.836 C2660.985,829.963 2668.391,810.427 2683.202,796.232 C2698.013,782.040 2718.425,774.941 2744.441,774.941 C2760.865,774.941 2777.670,777.316 2794.856,782.062 L2794.856,822.366 L2774.633,822.366 L2774.490,819.802 C2773.729,807.935 2772.305,800.719 2770.218,798.155 C2764.900,791.511 2756.688,788.186 2745.580,788.186 C2732.286,788.186 2722.317,793.598 2715.673,804.421 C2709.026,815.245 2705.704,831.480 2705.704,853.127 C2705.704,875.251 2710.141,891.864 2719.020,902.973 C2727.896,914.081 2741.165,919.635 2758.825,919.635 C2769.742,919.635 2781.943,916.978 2795.425,911.660 L2795.425,931.171 C2779.190,936.013 2763.618,938.434 2748.713,938.434 ZM2561.579,921.629 L2564.285,921.487 C2573.874,920.824 2579.617,919.186 2581.517,916.573 C2583.416,913.963 2584.366,906.297 2584.366,893.573 L2584.366,819.802 C2584.366,807.081 2583.416,799.415 2581.517,796.802 C2579.617,794.192 2573.874,792.554 2564.285,791.889 L2561.579,791.746 L2561.579,778.502 L2626.521,778.502 L2626.521,893.573 C2626.521,906.297 2627.486,913.963 2629.422,916.573 C2631.356,919.186 2637.088,920.824 2646.619,921.487 L2649.307,921.629 L2649.307,934.874 L2561.579,934.874 L2561.579,921.629 ZM2584.366,710.000 L2626.521,710.000 L2626.521,752.155 L2584.366,752.155 L2584.366,710.000 ZM2487.666,905.394 C2481.304,916.409 2473.660,924.669 2464.737,930.174 C2455.811,935.679 2445.604,938.434 2434.118,938.434 C2420.161,938.434 2409.195,934.068 2401.220,925.332 C2393.244,916.598 2389.257,904.539 2389.257,889.159 L2389.257,819.802 C2389.257,807.081 2388.307,799.415 2386.408,796.802 C2384.508,794.192 2378.765,792.554 2369.176,791.889 L2366.470,791.746 L2366.470,778.502 L2431.412,778.502 L2431.412,884.316 C2431.412,895.236 2432.836,902.759 2435.684,906.889 C2438.532,911.019 2443.610,913.084 2450.922,913.084 C2457.663,913.084 2464.096,911.139 2470.220,907.245 C2476.344,903.353 2482.158,897.561 2487.666,889.871 L2487.666,819.802 C2487.666,807.081 2486.715,799.415 2484.817,796.802 C2482.917,794.192 2477.127,792.554 2467.443,791.889 L2464.879,791.746 L2464.879,778.502 L2529.821,778.502 L2529.821,893.573 C2529.821,906.297 2530.786,913.963 2532.722,916.573 C2534.656,919.186 2540.388,920.824 2549.919,921.487 L2552.607,921.629 L2552.607,934.874 L2487.666,934.874 L2487.666,905.394 ZM2340.479,742.446 C2338.628,744.996 2337.702,752.600 2337.702,765.257 L2337.702,901.976 C2337.702,928.941 2332.384,948.165 2321.752,959.654 C2311.022,971.237 2293.126,977.029 2268.061,977.029 C2257.807,977.029 2246.129,975.556 2233.027,972.614 L2233.027,934.874 L2254.104,934.874 L2254.247,937.580 C2254.436,940.522 2254.625,943.181 2254.817,945.555 C2255.291,957.233 2260.417,963.072 2270.197,963.072 C2279.216,963.072 2285.387,959.772 2288.711,953.174 C2292.034,946.574 2293.696,934.400 2293.696,916.645 L2293.696,765.257 C2293.696,752.600 2292.770,744.996 2290.919,742.446 C2289.067,739.896 2283.300,738.243 2273.615,737.486 L2270.909,737.344 L2270.909,724.099 L2360.489,724.099 L2360.489,737.344 L2357.925,737.486 C2348.145,738.243 2342.331,739.896 2340.479,742.446 ZM2056.005,921.629 L2058.568,921.487 C2068.252,920.824 2074.043,919.186 2075.943,916.573 C2077.841,913.963 2078.791,906.297 2078.791,893.573 L2078.791,829.059 C2078.791,817.951 2077.485,810.427 2074.875,806.486 C2072.262,802.548 2067.256,800.576 2059.850,800.576 C2053.488,800.576 2047.197,802.499 2040.980,806.344 C2034.760,810.189 2028.612,816.006 2022.537,823.790 L2022.537,893.573 C2022.537,906.297 2023.503,913.963 2025.439,916.573 C2027.373,919.186 2033.105,920.824 2042.636,921.487 L2045.324,921.629 L2045.324,934.874 L1957.596,934.874 L1957.596,921.629 L1960.302,921.487 C1969.890,920.824 1975.634,919.186 1977.534,916.573 C1979.432,913.963 1980.382,906.297 1980.382,893.573 L1980.382,751.300 C1980.382,738.643 1979.432,730.991 1977.534,728.345 C1975.634,725.701 1969.890,724.095 1960.302,723.527 L1957.596,723.245 L1957.596,710.000 L2022.537,710.000 L2022.537,807.982 C2028.993,796.969 2036.683,788.709 2045.608,783.201 C2054.532,777.696 2064.692,774.941 2076.085,774.941 C2090.135,774.941 2101.150,779.263 2109.126,787.901 C2117.005,796.637 2120.946,808.743 2120.946,824.217 L2120.946,893.573 C2120.946,906.297 2121.919,913.963 2123.866,916.573 C2125.810,919.186 2131.578,920.824 2141.169,921.487 L2143.875,921.629 L2143.875,934.874 L2056.005,934.874 L2056.005,921.629 ZM1885.818,839.028 L1898.636,844.013 C1927.782,855.217 1942.357,870.217 1942.357,889.016 C1942.357,903.353 1936.184,915.174 1923.843,924.478 C1911.500,933.783 1895.834,938.434 1876.846,938.434 C1853.299,938.434 1833.029,934.874 1816.035,927.753 L1816.035,887.450 L1835.261,887.450 L1835.403,890.013 C1835.957,901.787 1837.713,909.335 1840.673,912.657 C1848.303,921.013 1859.607,925.190 1874.588,925.190 C1881.837,925.190 1887.966,922.864 1892.975,918.211 C1897.982,913.561 1900.487,907.815 1900.487,900.979 C1900.487,890.440 1891.608,881.659 1873.855,874.632 L1860.896,869.505 C1830.988,857.638 1816.035,841.641 1816.035,821.511 C1816.035,807.270 1821.794,795.948 1833.316,787.545 C1844.836,779.143 1860.411,774.941 1880.042,774.941 C1895.592,774.941 1911.805,777.411 1928.685,782.347 L1928.685,819.802 L1909.317,819.802 L1909.175,817.096 L1908.892,810.260 C1908.892,795.545 1900.323,788.186 1883.184,788.186 C1875.702,788.186 1869.356,790.607 1864.149,795.449 C1858.942,800.291 1856.338,806.226 1856.338,813.251 C1856.338,819.139 1858.261,823.768 1862.106,827.137 C1865.951,830.508 1873.855,834.471 1885.818,839.028 ZM1731.867,938.434 C1705.187,938.434 1684.087,930.935 1668.564,915.933 C1653.040,900.932 1645.279,880.567 1645.279,854.836 C1645.279,831.102 1652.279,811.851 1666.285,797.087 C1680.289,782.325 1698.542,774.941 1721.044,774.941 C1764.527,774.941 1786.270,801.622 1786.270,854.979 L1786.270,858.112 L1688.573,858.112 C1688.573,877.861 1693.177,892.672 1702.387,902.546 C1711.595,912.421 1725.410,917.357 1743.830,917.357 C1756.363,917.357 1770.509,913.939 1786.270,907.103 L1786.270,928.750 C1767.660,935.205 1749.527,938.434 1731.867,938.434 ZM1744.827,844.867 L1744.827,839.883 C1744.827,820.991 1742.922,807.650 1739.115,799.864 C1735.308,792.080 1728.741,788.186 1719.413,788.186 C1709.510,788.186 1702.063,792.910 1697.065,802.356 C1692.067,811.805 1689.570,825.975 1689.570,844.867 L1744.827,844.867 ZM1609.390,823.363 C1608.629,812.824 1607.942,806.867 1607.325,805.490 C1606.707,804.114 1604.357,803.424 1600.276,803.424 C1588.121,803.424 1578.295,810.025 1570.796,823.220 L1570.796,893.573 C1570.796,906.486 1571.839,914.177 1573.929,916.645 C1576.016,919.115 1582.901,920.728 1594.579,921.487 L1597.285,921.629 L1597.285,934.874 L1505.854,934.874 L1505.854,921.629 L1508.560,921.487 C1518.149,920.824 1523.892,919.186 1525.792,916.573 C1527.691,913.963 1528.641,906.297 1528.641,893.573 L1528.641,819.802 C1528.641,807.081 1527.691,799.415 1525.792,796.802 C1523.892,794.192 1518.149,792.554 1508.560,791.889 L1505.854,791.746 L1505.854,778.502 L1570.796,778.502 L1570.796,807.982 C1583.613,785.956 1600.227,774.941 1620.641,774.941 C1622.824,774.941 1625.577,775.322 1628.901,776.081 L1628.901,825.926 L1609.533,825.926 L1609.390,823.363 ZM1470.393,760.985 C1470.108,756.523 1469.966,753.390 1469.966,751.585 C1469.966,745.795 1468.731,742.092 1466.263,740.477 C1463.793,738.864 1458.096,738.056 1449.173,738.056 L1403.885,738.056 L1403.885,823.363 L1433.934,823.363 C1445.232,823.363 1451.712,823.082 1453.374,822.517 C1455.034,821.952 1455.866,819.787 1455.866,816.019 C1455.866,815.454 1455.960,813.242 1456.151,809.384 L1456.436,806.700 L1471.390,806.700 L1471.390,852.273 L1456.436,852.273 L1456.149,849.709 C1455.958,846.768 1455.862,844.867 1455.862,844.013 C1455.862,840.310 1454.618,837.985 1452.135,837.035 C1449.651,836.087 1443.583,835.610 1433.934,835.610 L1403.885,835.610 L1403.885,893.716 C1404.548,907.793 1405.641,915.728 1407.160,917.521 C1408.678,919.315 1415.467,920.637 1427.526,921.487 L1430.232,921.629 L1430.232,934.874 L1337.092,934.874 L1337.092,921.629 L1339.798,921.487 C1349.386,920.828 1355.130,919.199 1357.030,916.600 C1358.928,914.001 1359.878,906.373 1359.878,893.716 L1359.878,765.257 C1359.878,752.600 1358.953,744.996 1357.101,742.446 C1355.250,739.896 1349.482,738.243 1339.798,737.486 L1337.092,737.344 L1337.092,724.099 L1491.613,724.099 L1491.613,763.548 L1470.535,763.548 L1470.393,760.985 Z" class="cls-7"/>
    <path d="M3262.148,1084.096 L3261.865,1077.260 C3261.865,1062.545 3253.296,1055.186 3236.157,1055.186 C3228.676,1055.186 3222.329,1057.607 3217.122,1062.449 C3211.915,1067.291 3209.312,1073.226 3209.312,1080.251 C3209.312,1086.139 3211.234,1090.768 3215.080,1094.137 C3218.925,1097.508 3226.829,1101.471 3238.792,1106.028 L3251.609,1111.013 C3280.755,1122.217 3295.331,1137.217 3295.331,1156.016 C3295.331,1170.353 3289.158,1182.174 3276.817,1191.478 C3264.473,1200.783 3248.808,1205.434 3229.820,1205.434 C3206.272,1205.434 3186.002,1201.874 3169.008,1194.753 L3169.008,1154.450 L3188.234,1154.450 L3188.377,1157.013 C3188.931,1168.787 3190.687,1176.335 3193.646,1179.657 C3201.276,1188.013 3212.581,1192.190 3227.561,1192.190 C3234.811,1192.190 3240.939,1189.864 3245.948,1185.211 C3250.955,1180.561 3253.460,1174.815 3253.460,1167.979 C3253.460,1157.440 3244.582,1148.659 3226.829,1141.632 L3213.869,1136.505 C3183.962,1124.638 3169.008,1108.641 3169.008,1088.511 C3169.008,1074.270 3174.767,1062.948 3186.289,1054.545 C3197.809,1046.143 3213.384,1041.941 3233.015,1041.941 C3248.565,1041.941 3264.778,1044.411 3281.659,1049.347 L3281.659,1086.802 L3262.290,1086.802 L3262.148,1084.096 ZM3084.841,1205.434 C3058.160,1205.434 3037.060,1197.935 3021.537,1182.933 C3006.014,1167.932 2998.252,1147.567 2998.252,1121.836 C2998.252,1098.102 3005.253,1078.851 3019.258,1064.087 C3033.262,1049.325 3051.516,1041.941 3074.017,1041.941 C3117.501,1041.941 3139.243,1068.622 3139.243,1121.979 L3139.243,1125.112 L3041.547,1125.112 C3041.547,1144.861 3046.151,1159.672 3055.361,1169.546 C3064.569,1179.421 3078.383,1184.357 3096.804,1184.357 C3109.336,1184.357 3123.482,1180.939 3139.243,1174.103 L3139.243,1195.750 C3120.634,1202.205 3102.500,1205.434 3084.841,1205.434 ZM3097.801,1111.867 L3097.801,1106.883 C3097.801,1087.991 3095.896,1074.650 3092.088,1066.864 C3088.281,1059.080 3081.714,1055.186 3072.386,1055.186 C3062.484,1055.186 3055.036,1059.910 3050.038,1069.356 C3045.040,1078.805 3042.543,1092.975 3042.543,1111.867 L3097.801,1111.867 ZM2898.846,1188.629 L2901.552,1188.487 C2911.141,1187.824 2916.884,1186.186 2918.784,1183.573 C2920.683,1180.963 2921.633,1173.297 2921.633,1160.573 L2921.633,1086.802 C2921.633,1074.081 2920.683,1066.415 2918.784,1063.802 C2916.884,1061.192 2911.141,1059.554 2901.552,1058.889 L2898.846,1058.746 L2898.846,1045.502 L2963.788,1045.502 L2963.788,1160.573 C2963.788,1173.297 2964.753,1180.963 2966.689,1183.573 C2968.623,1186.186 2974.355,1187.824 2983.886,1188.487 L2986.574,1188.629 L2986.574,1201.874 L2898.846,1201.874 L2898.846,1188.629 ZM2921.633,977.000 L2963.788,977.000 L2963.788,1019.155 L2921.633,1019.155 L2921.633,977.000 ZM2806.561,1188.629 L2809.125,1188.487 C2818.809,1187.824 2824.599,1186.186 2826.499,1183.573 C2828.398,1180.963 2829.348,1173.297 2829.348,1160.573 L2829.348,1096.059 C2829.348,1084.951 2828.041,1077.427 2825.431,1073.486 C2822.819,1069.548 2817.812,1067.576 2810.406,1067.576 C2804.044,1067.576 2797.754,1069.499 2791.536,1073.344 C2785.317,1077.189 2779.168,1083.006 2773.094,1090.790 L2773.094,1160.573 C2773.094,1173.297 2774.059,1180.963 2775.995,1183.573 C2777.929,1186.186 2783.661,1187.824 2793.192,1188.487 L2795.880,1188.629 L2795.880,1201.874 L2708.152,1201.874 L2708.152,1188.629 L2710.858,1188.487 C2720.447,1187.824 2726.190,1186.186 2728.090,1183.573 C2729.988,1180.963 2730.939,1173.297 2730.939,1160.573 L2730.939,1018.300 C2730.939,1005.643 2729.988,997.991 2728.090,995.345 C2726.190,992.701 2720.447,991.095 2710.858,990.527 L2708.152,990.245 L2708.152,977.000 L2773.094,977.000 L2773.094,1074.982 C2779.549,1063.969 2787.239,1055.709 2796.165,1050.201 C2805.088,1044.696 2815.249,1041.941 2826.642,1041.941 C2840.692,1041.941 2851.707,1046.263 2859.682,1054.901 C2867.562,1063.637 2871.502,1075.743 2871.502,1091.217 L2871.502,1160.573 C2871.502,1173.297 2872.475,1180.963 2874.422,1183.573 C2876.367,1186.186 2882.135,1187.824 2891.726,1188.487 L2894.431,1188.629 L2894.431,1201.874 L2806.561,1201.874 L2806.561,1188.629 ZM2670.412,1205.434 C2652.846,1205.434 2639.673,1201.091 2630.892,1192.403 C2622.109,1183.716 2617.718,1170.685 2617.718,1153.310 L2617.718,1059.601 L2598.350,1059.601 L2598.350,1045.502 L2617.718,1045.502 L2617.718,1019.155 L2659.873,1011.749 L2659.873,1045.502 L2694.480,1045.502 L2694.480,1059.601 L2659.873,1059.601 L2659.873,1154.307 C2659.873,1168.264 2661.249,1177.474 2664.003,1181.936 C2666.756,1186.400 2672.453,1188.629 2681.093,1188.629 C2685.840,1188.629 2690.920,1187.539 2696.332,1185.354 L2696.332,1200.592 C2687.502,1203.819 2678.861,1205.434 2670.412,1205.434 ZM2500.511,1205.434 C2475.254,1205.434 2455.387,1198.149 2440.910,1183.573 C2426.430,1169.000 2419.191,1149.038 2419.191,1123.688 C2419.191,1098.338 2426.430,1078.377 2440.910,1063.802 C2455.387,1049.229 2475.254,1041.941 2500.511,1041.941 C2525.669,1041.941 2545.489,1049.229 2559.969,1063.802 C2574.446,1078.377 2581.687,1098.338 2581.687,1123.688 C2581.687,1149.038 2574.446,1169.000 2559.969,1183.573 C2545.489,1198.149 2525.669,1205.434 2500.511,1205.434 ZM2526.501,1073.558 C2520.756,1062.449 2512.093,1056.895 2500.511,1056.895 C2488.926,1056.895 2480.239,1062.449 2474.449,1073.558 C2468.656,1084.666 2465.761,1101.378 2465.761,1123.688 C2465.761,1145.905 2468.656,1162.592 2474.449,1173.747 C2480.239,1184.904 2488.926,1190.481 2500.511,1190.481 C2512.093,1190.481 2520.756,1184.904 2526.501,1173.747 C2532.245,1162.592 2535.118,1145.905 2535.118,1123.688 C2535.118,1101.378 2532.245,1084.666 2526.501,1073.558 ZM2320.355,1205.434 C2295.099,1205.434 2275.232,1198.149 2260.754,1183.573 C2246.275,1169.000 2239.036,1149.038 2239.036,1123.688 C2239.036,1098.338 2246.275,1078.377 2260.754,1063.802 C2275.232,1049.229 2295.099,1041.941 2320.355,1041.941 C2345.514,1041.941 2365.334,1049.229 2379.814,1063.802 C2394.291,1078.377 2401.532,1098.338 2401.532,1123.688 C2401.532,1149.038 2394.291,1169.000 2379.814,1183.573 C2365.334,1198.149 2345.514,1205.434 2320.355,1205.434 ZM2346.346,1073.558 C2340.600,1062.449 2331.938,1056.895 2320.355,1056.895 C2308.771,1056.895 2300.083,1062.449 2294.293,1073.558 C2288.501,1084.666 2285.606,1101.378 2285.606,1123.688 C2285.606,1145.905 2288.501,1162.592 2294.293,1173.747 C2300.083,1184.904 2308.771,1190.481 2320.355,1190.481 C2331.938,1190.481 2340.600,1184.904 2346.346,1173.747 C2352.089,1162.592 2354.962,1145.905 2354.962,1123.688 C2354.962,1101.378 2352.089,1084.666 2346.346,1073.558 ZM2147.748,1188.629 L2150.434,1188.487 C2158.351,1188.013 2163.086,1186.422 2164.642,1183.716 C2166.195,1181.010 2166.974,1173.297 2166.974,1160.573 L2166.974,1096.246 C2166.974,1077.134 2160.881,1067.576 2148.698,1067.576 C2141.844,1067.576 2135.322,1069.630 2129.136,1073.736 C2122.950,1077.843 2117.095,1084.050 2111.574,1092.356 L2111.574,1160.573 C2111.574,1173.202 2112.380,1180.892 2113.995,1183.645 C2115.609,1186.400 2120.355,1188.013 2128.237,1188.487 L2130.800,1188.629 L2130.800,1201.874 L2051.902,1201.874 L2051.902,1188.629 L2054.588,1188.487 C2062.505,1188.013 2067.241,1186.446 2068.796,1183.787 C2070.349,1181.130 2071.128,1173.391 2071.128,1160.573 L2071.128,1096.344 C2071.128,1086.756 2069.608,1079.564 2066.571,1074.768 C2063.531,1069.975 2058.927,1067.576 2052.757,1067.576 C2045.729,1067.576 2039.132,1069.594 2032.961,1073.629 C2026.788,1077.665 2021.045,1083.765 2015.729,1091.929 L2015.729,1160.573 C2015.729,1173.202 2016.552,1180.892 2018.203,1183.645 C2019.852,1186.400 2024.541,1188.013 2032.269,1188.487 L2034.955,1188.629 L2034.955,1201.874 L1952.496,1201.874 L1952.496,1188.629 L1955.202,1188.487 C1964.791,1187.824 1970.534,1186.186 1972.434,1183.573 C1974.333,1180.963 1975.283,1173.297 1975.283,1160.573 L1975.283,1086.802 C1975.283,1074.081 1974.333,1066.415 1972.434,1063.802 C1970.534,1061.192 1964.791,1059.554 1955.202,1058.889 L1952.496,1058.746 L1952.496,1045.502 L2015.729,1045.502 L2015.729,1074.982 C2023.419,1063.969 2031.750,1055.709 2040.723,1050.201 C2049.695,1044.696 2059.308,1041.941 2069.562,1041.941 C2080.955,1041.941 2089.998,1044.696 2096.692,1050.201 C2103.385,1055.709 2107.729,1063.969 2109.723,1074.982 C2119.040,1063.969 2128.406,1055.709 2137.819,1050.201 C2147.231,1044.696 2156.646,1041.941 2166.059,1041.941 C2193.632,1041.941 2207.420,1056.895 2207.420,1086.802 L2207.420,1160.573 C2207.420,1173.297 2208.368,1180.963 2210.268,1183.573 C2212.166,1186.186 2217.959,1187.824 2227.643,1188.487 L2230.206,1188.629 L2230.206,1201.874 L2147.748,1201.874 L2147.748,1188.629 ZM1859.499,1207.143 C1842.314,1207.143 1822.565,1204.531 1800.254,1199.310 L1800.254,1155.304 L1821.332,1155.304 L1821.474,1158.735 C1822.137,1171.219 1824.558,1179.176 1828.737,1182.608 C1837.376,1189.662 1847.630,1193.187 1859.499,1193.187 C1870.701,1193.187 1879.793,1189.722 1886.772,1182.790 C1893.750,1175.861 1897.239,1166.793 1897.239,1155.589 C1897.239,1146.759 1895.196,1139.638 1891.115,1134.227 C1887.032,1128.910 1879.152,1123.025 1867.474,1116.567 L1853.375,1108.877 C1818.150,1089.415 1800.539,1068.242 1800.539,1045.359 C1800.539,1027.415 1806.899,1013.009 1819.623,1002.136 C1832.344,991.266 1849.245,985.830 1870.323,985.830 C1886.843,985.830 1905.735,988.916 1927.004,995.087 L1927.004,1037.527 L1905.926,1037.527 L1905.784,1034.963 C1905.023,1021.672 1903.071,1013.412 1899.932,1010.183 C1892.891,1003.253 1884.041,999.786 1873.385,999.786 C1864.346,999.786 1856.684,1003.040 1850.405,1009.542 C1844.125,1016.046 1840.985,1024.046 1840.985,1033.539 C1840.985,1040.755 1843.050,1046.855 1847.180,1051.839 C1851.310,1056.824 1859.165,1062.641 1870.750,1069.285 L1884.991,1077.545 C1905.784,1089.508 1920.026,1100.143 1927.716,1109.446 C1935.311,1118.846 1939.109,1130.288 1939.109,1143.768 C1939.109,1163.043 1931.917,1178.424 1917.533,1189.911 C1903.149,1201.400 1883.803,1207.143 1859.499,1207.143 Z" class="cls-7"/>
    <path d="M3708.441,1392.030 L3722.163,1402.492 C3743.510,1418.768 3755.417,1432.812 3757.886,1444.622 C3760.860,1458.851 3757.292,1470.291 3747.186,1478.940 C3737.078,1487.589 3722.291,1491.914 3702.830,1491.914 C3684.694,1491.914 3665.888,1488.472 3646.411,1481.590 L3646.155,1446.296 L3663.672,1446.296 L3663.770,1448.807 C3664.013,1452.249 3664.435,1456.992 3665.035,1463.037 C3665.968,1467.501 3669.662,1471.291 3676.119,1474.406 C3682.574,1477.523 3690.038,1479.079 3698.511,1479.079 C3706.030,1479.079 3711.864,1476.592 3716.013,1471.616 C3720.160,1466.642 3721.486,1460.573 3719.989,1453.411 C3718.531,1446.436 3712.616,1438.811 3702.247,1430.532 L3688.550,1419.512 C3667.199,1402.307 3655.290,1387.799 3652.821,1375.987 C3650.061,1362.782 3653.740,1352.110 3663.859,1343.971 C3673.979,1335.834 3688.674,1331.764 3707.949,1331.764 C3721.621,1331.764 3736.270,1333.951 3751.902,1338.321 L3752.246,1374.034 L3734.729,1374.034 L3734.460,1371.383 L3733.417,1356.177 C3731.726,1348.086 3724.167,1344.041 3710.744,1344.041 C3701.790,1344.041 3695.448,1345.948 3691.721,1349.760 C3687.995,1353.575 3686.929,1359.294 3688.523,1366.919 C3690.156,1374.731 3696.794,1383.101 3708.441,1392.030 ZM3540.694,1460.595 C3548.224,1466.873 3557.211,1470.012 3567.657,1470.012 C3584.366,1470.012 3603.930,1463.455 3626.350,1450.342 L3626.215,1469.454 C3598.583,1484.428 3573.848,1491.914 3552.012,1491.914 C3534.826,1491.914 3520.059,1487.240 3507.709,1477.894 C3495.359,1468.547 3487.562,1456.109 3484.315,1440.577 C3478.444,1412.491 3483.771,1387.334 3500.298,1365.106 C3516.823,1342.879 3538.426,1331.764 3565.106,1331.764 C3576.119,1331.764 3585.851,1334.718 3594.302,1340.623 C3602.751,1346.530 3607.920,1353.993 3609.805,1363.013 C3613.519,1380.778 3606.993,1396.123 3590.233,1409.049 C3573.471,1421.977 3551.704,1428.440 3524.930,1428.440 C3525.283,1431.045 3525.675,1433.370 3526.103,1435.415 C3528.300,1445.926 3533.163,1454.318 3540.694,1460.595 ZM3562.417,1402.702 C3571.520,1394.471 3574.750,1384.032 3572.106,1371.383 C3570.454,1363.479 3567.842,1357.572 3564.273,1353.666 C3560.701,1349.760 3556.116,1347.807 3550.515,1347.807 C3540.735,1347.807 3533.341,1354.109 3528.333,1366.710 C3523.324,1379.313 3521.825,1395.426 3523.839,1415.048 C3540.453,1415.048 3553.314,1410.932 3562.417,1402.702 ZM3360.920,1410.584 L3355.793,1410.584 L3356.269,1488.426 L3314.161,1488.426 L3313.169,1308.607 L3312.417,1290.703 C3311.276,1285.245 3304.740,1282.143 3292.813,1281.402 L3290.050,1281.125 L3290.044,1268.151 L3354.907,1268.151 L3355.769,1400.260 L3360.611,1400.260 C3373.973,1395.517 3385.176,1387.729 3394.222,1376.894 C3403.268,1366.060 3406.849,1356.132 3404.964,1347.110 C3404.050,1342.739 3401.731,1338.694 3398.012,1334.973 L3439.817,1333.299 C3442.090,1336.457 3443.471,1339.197 3443.956,1341.519 C3447.605,1358.978 3430.392,1378.158 3392.318,1399.053 C3412.750,1425.262 3432.512,1447.798 3451.600,1466.664 C3457.000,1472.059 3463.062,1474.942 3469.786,1475.313 L3472.379,1475.452 L3472.527,1488.426 L3421.115,1488.426 C3394.406,1456.619 3374.340,1430.672 3360.920,1410.584 ZM3220.656,1423.836 C3215.078,1443.833 3206.345,1460.177 3194.459,1472.872 C3182.572,1485.566 3170.045,1491.914 3156.878,1491.914 C3147.690,1491.914 3139.399,1488.496 3132.002,1481.660 C3124.605,1474.825 3119.818,1466.199 3117.641,1455.782 C3114.219,1439.415 3114.897,1422.186 3119.677,1404.097 C3124.454,1386.009 3132.447,1370.734 3143.652,1358.270 C3158.350,1341.717 3178.327,1333.438 3203.581,1333.438 C3206.701,1333.438 3212.605,1333.857 3221.294,1334.694 C3222.468,1334.881 3224.351,1335.067 3226.945,1335.252 L3261.845,1335.252 L3262.904,1447.903 L3263.695,1462.588 L3263.512,1465.803 C3264.682,1471.398 3271.277,1474.567 3283.302,1475.313 L3285.895,1475.452 L3285.901,1488.426 L3221.021,1488.426 L3220.656,1423.836 ZM3220.287,1355.480 C3209.297,1349.808 3199.558,1346.970 3191.075,1346.970 C3168.071,1346.970 3156.650,1370.577 3156.806,1417.785 C3156.860,1432.032 3157.483,1441.996 3158.670,1447.674 C3159.605,1452.144 3161.183,1455.521 3163.408,1457.801 C3165.634,1460.083 3168.496,1461.223 3171.994,1461.223 C3183.712,1461.223 3199.231,1441.185 3218.546,1401.106 C3218.882,1400.454 3219.533,1399.057 3220.505,1396.912 L3220.287,1355.480 ZM3037.278,1380.451 C3037.329,1375.243 3037.131,1371.571 3036.683,1369.430 C3035.712,1364.781 3033.325,1362.455 3029.524,1362.455 C3017.926,1362.455 3001.720,1384.058 2980.907,1427.265 L2981.575,1488.426 L2939.466,1488.426 L2938.474,1308.607 L2937.865,1290.703 C2936.724,1285.245 2930.141,1282.143 2918.119,1281.402 L2915.497,1281.125 L2915.349,1268.151 L2980.212,1268.151 L2981.027,1399.563 C2987.740,1378.502 2996.843,1361.936 3008.335,1349.867 C3019.827,1337.800 3032.271,1331.764 3045.666,1331.764 C3052.983,1331.764 3059.764,1334.439 3066.013,1339.786 C3072.260,1345.133 3076.181,1351.617 3077.775,1359.242 C3078.747,1363.894 3079.280,1370.309 3079.377,1378.491 L3079.760,1447.957 C3080.083,1459.497 3080.293,1465.498 3080.390,1465.962 C3081.538,1471.453 3088.122,1474.570 3100.147,1475.313 L3102.740,1475.452 L3102.888,1488.426 L3037.875,1488.426 L3037.278,1380.451 ZM2844.350,1491.914 C2826.214,1491.914 2807.408,1488.472 2787.932,1481.590 L2787.675,1446.296 L2805.192,1446.296 L2805.290,1448.807 C2805.533,1452.249 2805.955,1456.992 2806.555,1463.037 C2807.488,1467.501 2811.182,1471.291 2817.639,1474.406 C2824.094,1477.523 2831.558,1479.079 2840.032,1479.079 C2847.551,1479.079 2853.384,1476.592 2857.533,1471.616 C2861.680,1466.642 2863.006,1460.573 2861.509,1453.411 C2860.051,1446.436 2854.136,1438.811 2843.767,1430.532 L2830.070,1419.512 C2808.719,1402.307 2796.810,1387.799 2794.341,1375.987 C2791.581,1362.782 2795.260,1352.110 2805.380,1343.971 C2815.499,1335.834 2830.194,1331.764 2849.469,1331.764 C2863.141,1331.764 2877.791,1333.951 2893.422,1338.321 L2893.766,1374.034 L2876.249,1374.034 L2875.980,1371.383 L2874.938,1356.177 C2873.246,1348.086 2865.687,1344.041 2852.265,1344.041 C2843.310,1344.041 2836.969,1345.948 2833.241,1349.760 C2829.515,1353.575 2828.450,1359.294 2830.043,1366.919 C2831.676,1374.731 2838.315,1383.101 2849.961,1392.030 L2863.683,1402.492 C2885.030,1418.768 2896.938,1432.812 2899.406,1444.622 C2902.380,1458.851 2898.812,1470.291 2888.706,1478.940 C2878.598,1487.589 2863.812,1491.914 2844.350,1491.914 ZM2662.373,1410.584 L2657.246,1410.584 L2657.722,1488.426 L2615.614,1488.426 L2614.621,1308.607 L2613.870,1290.703 C2612.729,1285.245 2606.192,1282.143 2594.266,1281.402 L2591.502,1281.125 L2591.496,1268.151 L2656.360,1268.151 L2657.222,1400.260 L2662.064,1400.260 C2675.425,1395.517 2686.628,1387.729 2695.674,1376.894 C2704.721,1366.060 2708.302,1356.132 2706.416,1347.110 C2705.503,1342.739 2703.184,1338.694 2699.464,1334.973 L2741.269,1333.299 C2743.543,1336.457 2744.923,1339.197 2745.409,1341.519 C2749.058,1358.978 2731.845,1378.158 2693.771,1399.053 C2714.203,1425.262 2733.965,1447.798 2753.053,1466.664 C2758.453,1472.059 2764.514,1474.942 2771.239,1475.313 L2773.831,1475.452 L2773.980,1488.426 L2722.568,1488.426 C2695.859,1456.619 2675.793,1430.672 2662.373,1410.584 ZM2521.197,1308.607 L2520.445,1290.703 C2519.304,1285.245 2512.768,1282.143 2500.841,1281.402 L2498.078,1281.125 L2498.072,1268.151 L2562.935,1268.151 L2564.074,1447.957 C2564.397,1459.497 2564.607,1465.498 2564.704,1465.962 C2565.852,1471.453 2572.436,1474.570 2584.461,1475.313 L2587.054,1475.452 L2587.059,1488.426 L2522.189,1488.426 L2521.197,1308.607 ZM2430.136,1375.708 L2429.507,1357.712 C2428.360,1352.226 2421.775,1349.111 2409.752,1348.365 L2407.159,1348.226 L2407.011,1335.252 L2472.019,1335.252 L2472.643,1447.957 L2473.428,1462.612 L2473.416,1465.962 C2474.564,1471.453 2481.101,1474.570 2493.030,1475.313 L2495.623,1475.452 L2495.771,1488.426 L2430.759,1488.426 L2430.136,1375.708 ZM2429.516,1273.313 L2471.671,1273.313 L2471.960,1309.444 L2429.663,1309.444 L2429.516,1273.313 ZM2297.995,1475.452 L2300.529,1475.313 C2310.362,1474.663 2316.070,1473.244 2317.655,1471.058 C2319.239,1468.874 2320.219,1461.177 2320.591,1447.970 L2319.858,1315.702 L2255.971,1461.781 L2239.553,1461.781 L2185.913,1332.316 L2186.550,1447.665 C2187.028,1459.043 2187.348,1465.110 2187.505,1465.862 C2188.665,1471.411 2195.209,1474.561 2207.140,1475.311 L2209.591,1475.452 L2209.739,1488.426 L2142.910,1488.426 L2142.762,1475.452 L2145.439,1475.313 C2155.272,1474.663 2160.979,1473.244 2162.565,1471.058 C2164.149,1468.874 2165.128,1461.177 2165.501,1447.970 L2164.805,1322.278 C2164.634,1317.374 2164.384,1311.406 2164.053,1304.374 C2162.932,1299.007 2156.445,1295.908 2144.593,1295.075 L2141.858,1294.936 L2141.852,1281.962 L2202.837,1281.962 L2260.286,1420.628 L2318.869,1281.962 L2383.190,1281.962 L2383.338,1294.936 L2380.659,1295.064 C2370.739,1295.755 2364.986,1297.070 2363.397,1299.010 C2361.809,1300.949 2360.737,1308.086 2360.181,1320.415 L2361.022,1446.120 C2361.539,1458.130 2361.880,1464.534 2362.046,1465.327 C2363.270,1471.184 2369.851,1474.511 2381.791,1475.304 L2384.385,1475.452 L2384.534,1488.426 L2298.001,1488.426 L2297.995,1475.452 Z" class="cls-7"/>
  </g>
  <rect x="2" y="1" width="5000" height="1600" class="cls-8"/>
</svg>
