<svg xmlns="http://www.w3.org/2000/svg" xmlns:xlink="http://www.w3.org/1999/xlink" preserveAspectRatio="xMidYMid" width="4749" height="790" viewBox="0 0 4749 790">
  <defs>
    <style>
      .cls-1, .cls-2 {
        fill-rule: evenodd;
      }
    </style>
  </defs>
  <g>
    <path d="M4102.039,686.064 C4029.618,755.532 3933.149,790.267 3812.633,790.267 L3547.961,790.267 L3547.961,43.157 L3812.633,43.157 C4077.993,43.157 4210.680,164.548 4210.680,407.329 C4210.680,523.689 4174.461,616.595 4102.039,686.064 ZM3971.789,241.392 C3930.633,200.579 3872.883,180.173 3798.571,180.173 L3716.243,180.173 L3716.243,653.767 L3799.602,653.767 C3872.539,653.767 3929.774,631.892 3971.274,588.126 C4012.774,544.360 4033.539,484.798 4033.539,409.423 C4033.539,338.220 4012.946,282.204 3971.789,241.392 ZM3147.322,660.017 L3209.837,660.017 L3209.837,173.407 L3147.322,173.407 L3147.322,43.157 L3440.650,43.157 L3440.650,173.407 L3378.118,173.407 L3378.118,660.017 L3440.650,660.017 L3440.650,790.267 L3147.322,790.267 L3147.322,660.017 ZM2880.061,624.064 L2614.343,624.064 L2561.733,790.267 L2379.374,790.267 L2651.343,43.157 L2850.889,43.157 L3116.593,790.267 L2933.202,790.267 L2880.061,624.064 ZM2761.264,243.735 C2755.358,224.985 2751.202,202.595 2748.764,176.532 L2744.593,176.532 C2742.858,198.423 2738.514,220.126 2731.577,241.657 L2650.296,494.860 L2841.499,494.860 L2761.264,243.735 Z" fill="#eb0e0e" class="cls-1"/>
    <path d="M2583.724,790.357 L2371.162,790.357 L2153.381,465.779 C2149.209,459.529 2142.615,445.810 2133.584,424.622 L2130.974,424.622 L2130.974,790.357 L1962.693,790.357 L1962.693,43.247 L2130.974,43.247 L2130.974,396.482 L2133.584,396.482 C2137.740,386.763 2144.693,372.872 2154.427,354.810 L2360.740,43.247 L2561.318,43.247 L2300.818,399.607 L2583.724,790.357 ZM1394.811,43.247 L1825.686,43.247 L1825.686,180.263 L1563.093,180.263 L1563.093,346.466 L1807.452,346.466 L1807.452,482.966 L1563.093,482.966 L1563.093,653.857 L1842.874,653.857 L1842.874,790.357 L1394.811,790.357 L1394.811,43.247 ZM1101.495,473.341 C1111.916,481.154 1121.995,490.279 1131.713,500.685 C1141.432,511.107 1150.729,522.310 1159.588,534.294 C1168.448,546.279 1176.526,557.997 1183.823,569.450 L1325.010,790.357 L1131.713,790.357 L1015.541,598.107 C1006.854,583.529 998.510,570.513 990.526,559.044 C982.526,547.575 974.448,537.763 966.291,529.607 C958.135,521.450 949.620,515.185 940.776,510.841 C931.916,506.497 922.276,504.325 911.854,504.325 L866.526,504.325 L866.526,790.357 L698.245,790.357 L698.245,43.247 L964.995,43.247 C1146.307,43.247 1236.963,110.982 1236.963,246.435 C1236.963,272.497 1232.963,296.544 1224.979,318.607 C1216.979,340.669 1205.698,360.544 1191.104,378.263 C1176.510,395.982 1158.885,411.263 1138.229,424.107 C1117.557,436.950 1094.541,447.029 1069.198,454.310 L1069.198,456.404 C1080.307,459.872 1091.073,465.529 1101.495,473.341 ZM942.604,169.325 L866.526,169.325 L866.526,377.200 L939.479,377.200 C975.588,377.200 1004.588,366.794 1026.479,345.950 C1048.698,324.763 1059.823,298.544 1059.823,267.279 C1059.823,201.982 1020.745,169.325 942.604,169.325 ZM384.616,790.357 L215.819,790.357 L215.819,180.263 L3.772,180.263 L3.772,43.247 L597.710,43.247 L597.710,180.263 L384.616,180.263 L384.616,790.357 Z" fill="#000" class="cls-2"/>
    <rect x="4249" y="185" width="500" height="130" fill="#eb0e0e"/>
    <rect x="4434" width="130" height="500" fill="#eb0e0e"/>
  </g>
</svg>
